<?xml version="1.0" standalone="no"?>
<!DOCTYPE svg PUBLIC "-//W3C//DTD SVG 20010904//EN"
 "http://www.w3.org/TR/2001/REC-SVG-20010904/DTD/svg10.dtd">
<svg version="1.0" xmlns="http://www.w3.org/2000/svg"
 width="670.000000pt" height="351.000000pt" viewBox="0 0 670.000000 351.000000"
 preserveAspectRatio="xMidYMid meet">

<g transform="translate(0.000000,351.000000) scale(0.100000,-0.100000)"
fill="#000000" stroke="none">
<path d="M6118 3353 c56 -2 148 -2 205 0 56 1 10 3 -103 3 -113 0 -159 -2
-102 -3z"/>
<path d="M207 3293 c-15 -15 -5 -35 24 -47 20 -8 27 -16 20 -20 -7 -4 -18 -3
-26 4 -8 6 -16 7 -19 2 -11 -19 24 -36 52 -26 38 13 40 39 3 52 -41 14 -40 25
1 16 29 -6 31 -5 19 10 -13 16 -62 22 -74 9z"/>
<path d="M306 3291 c-3 -5 -2 -38 3 -73 1 -5 6 -8 11 -8 6 0 10 14 10 30 0 19
6 33 16 37 19 7 34 -13 34 -44 0 -13 5 -23 11 -23 6 0 9 17 7 43 l-3 42 -43 1
c-23 1 -44 -1 -46 -5z"/>
<path d="M429 3284 c-11 -14 -9 -15 26 -8 25 4 36 3 32 -3 -4 -6 -20 -13 -37
-16 -16 -4 -30 -13 -30 -21 0 -25 27 -38 64 -30 32 6 36 9 36 38 0 18 -5 37
-12 44 -17 17 -63 15 -79 -4z m61 -44 c0 -13 -28 -25 -38 -16 -3 4 0 11 8 16
20 13 30 12 30 0z"/>
<path d="M542 3232 c2 -38 7 -66 13 -65 6 1 11 11 13 22 2 13 9 17 23 14 27
-7 49 14 49 47 0 36 -16 48 -63 48 l-38 0 3 -66z m65 37 c16 -16 5 -39 -18
-39 -12 0 -19 7 -19 18 0 31 17 41 37 21z"/>
<path d="M6463 3225 c0 -44 2 -61 4 -37 2 23 2 59 0 80 -2 20 -4 1 -4 -43z"/>
<path d="M1038 3263 c7 -3 16 -2 19 1 4 3 -2 6 -13 5 -11 0 -14 -3 -6 -6z"/>
<path d="M1778 3263 c7 -3 16 -2 19 1 4 3 -2 6 -13 5 -11 0 -14 -3 -6 -6z"/>
<path d="M2536 3261 c-4 -5 3 -7 14 -4 23 6 26 13 6 13 -8 0 -17 -4 -20 -9z"/>
<path d="M6040 3266 c0 -2 9 -6 20 -9 11 -3 20 -1 20 4 0 5 -9 9 -20 9 -11 0
-20 -2 -20 -4z"/>
<path d="M6289 3259 c-2 -24 2 -54 10 -61 3 -4 6 9 5 28 -2 35 -13 60 -15 33z"/>
<path d="M1148 3243 c7 -3 16 -2 19 1 4 3 -2 6 -13 5 -11 0 -14 -3 -6 -6z"/>
<path d="M1830 3246 c0 -2 7 -7 16 -10 8 -3 12 -2 9 4 -6 10 -25 14 -25 6z"/>
<path d="M2002 3236 c7 -8 15 -12 17 -11 5 6 -10 25 -20 25 -5 0 -4 -6 3 -14z"/>
<path d="M2095 3240 c-3 -6 1 -7 9 -4 18 7 21 14 7 14 -6 0 -13 -4 -16 -10z"/>
<path d="M2598 3243 c7 -3 16 -2 19 1 4 3 -2 6 -13 5 -11 0 -14 -3 -6 -6z"/>
<path d="M2698 3243 c7 -3 16 -2 19 1 4 3 -2 6 -13 5 -11 0 -14 -3 -6 -6z"/>
<path d="M3195 3240 c-3 -6 1 -7 9 -4 18 7 21 14 7 14 -6 0 -13 -4 -16 -10z"/>
<path d="M3256 3241 c-4 -5 3 -7 14 -4 23 6 26 13 6 13 -8 0 -17 -4 -20 -9z"/>
<path d="M5610 3246 c0 -2 9 -6 20 -9 11 -3 18 -1 14 4 -5 9 -34 13 -34 5z"/>
<path d="M5669 3233 c-13 -16 -12 -17 3 -5 9 8 23 10 29 6 8 -4 9 -3 5 4 -10
17 -21 15 -37 -5z"/>
<path d="M5766 3242 c-2 -4 4 -8 15 -8 10 0 19 4 19 8 0 4 -6 8 -14 8 -8 0
-17 -4 -20 -8z"/>
<path d="M6040 3239 c0 -9 8 -19 18 -21 11 -3 19 0 19 8 0 7 -5 10 -10 7 -5
-3 -13 1 -18 8 -7 11 -9 11 -9 -2z"/>
<path d="M6119 3242 c11 -8 10 -11 -5 -15 -16 -4 -15 -5 4 -6 25 -1 26 20 1
27 -12 3 -12 2 0 -6z"/>
<path d="M6173 3243 c20 -5 23 -43 3 -43 -8 0 -17 8 -19 18 -4 15 -5 15 -6 -1
-1 -12 8 -21 21 -25 21 -5 21 -6 2 -14 -18 -8 -18 -8 1 -5 15 2 21 11 23 40 3
33 1 37 -20 36 -17 -1 -18 -3 -5 -6z"/>
<path d="M6247 3243 c-11 -11 -8 -21 9 -27 14 -5 15 -4 5 8 -9 11 -9 15 1 19
7 3 8 6 2 6 -6 1 -14 -2 -17 -6z"/>
<path d="M6338 3243 c7 -3 16 -2 19 1 4 3 -2 6 -13 5 -11 0 -14 -3 -6 -6z"/>
<path d="M6385 3239 c-11 -16 -1 -19 13 -3 7 8 8 14 3 14 -5 0 -13 -5 -16 -11z"/>
<path d="M1038 3233 c7 -3 16 -2 19 1 4 3 -2 6 -13 5 -11 0 -14 -3 -6 -6z"/>
<path d="M1088 3223 c6 -2 18 -2 25 0 6 3 1 5 -13 5 -14 0 -19 -2 -12 -5z"/>
<path d="M1320 3221 c0 -5 9 -7 20 -4 11 3 20 7 20 9 0 2 -9 4 -20 4 -11 0
-20 -4 -20 -9z"/>
<path d="M2048 3223 c7 -3 16 -2 19 1 4 3 -2 6 -13 5 -11 0 -14 -3 -6 -6z"/>
<path d="M2230 3218 c0 -4 6 -8 14 -8 8 0 17 4 20 8 2 4 -4 8 -15 8 -10 0 -19
-4 -19 -8z"/>
<path d="M2520 3224 c0 -17 27 -37 42 -31 8 4 7 6 -4 6 -9 1 -22 9 -27 19 -6
9 -11 12 -11 6z"/>
<path d="M2608 3223 c7 -3 16 -2 19 1 4 3 -2 6 -13 5 -11 0 -14 -3 -6 -6z"/>
<path d="M2688 3223 c6 -2 18 -2 25 0 6 3 1 5 -13 5 -14 0 -19 -2 -12 -5z"/>
<path d="M2748 3223 c6 -2 18 -2 25 0 6 3 1 5 -13 5 -14 0 -19 -2 -12 -5z"/>
<path d="M6322 3213 c2 -10 12 -19 23 -20 16 -1 16 -1 3 3 -25 8 -22 22 5 27
18 4 17 5 -6 6 -22 1 -28 -3 -25 -16z"/>
<path d="M3133 3213 c9 -2 23 -2 30 0 6 3 -1 5 -18 5 -16 0 -22 -2 -12 -5z"/>
<path d="M1088 3198 c5 -5 16 -8 23 -6 8 3 3 7 -10 11 -17 4 -21 3 -13 -5z"/>
<path d="M1977 3199 c7 -7 15 -10 18 -7 3 3 -2 9 -12 12 -14 6 -15 5 -6 -5z"/>
<path d="M2050 3200 c-9 -6 -10 -10 -3 -10 6 0 15 5 18 10 8 12 4 12 -15 0z"/>
<path d="M2688 3198 c5 -5 16 -8 23 -6 8 3 3 7 -10 11 -17 4 -21 3 -13 -5z"/>
<path d="M3210 3200 c-9 -6 -10 -10 -3 -10 6 0 15 5 18 10 8 12 4 12 -15 0z"/>
<path d="M3330 3200 c-9 -6 -10 -10 -3 -10 6 0 15 5 18 10 8 12 4 12 -15 0z"/>
<path d="M5625 3200 c-16 -7 -17 -9 -3 -9 9 -1 20 4 23 9 7 11 7 11 -20 0z"/>
<path d="M5670 3198 c0 -4 8 -8 18 -9 15 0 14 -2 -3 -10 -20 -9 -20 -9 0 -6
27 3 32 33 5 33 -11 0 -20 -4 -20 -8z"/>
<path d="M6108 3198 c5 -5 16 -8 23 -6 8 3 3 7 -10 11 -17 4 -21 3 -13 -5z"/>
<path d="M1338 3193 c7 -3 16 -2 19 1 4 3 -2 6 -13 5 -11 0 -14 -3 -6 -6z"/>
<path d="M1828 3193 c7 -3 16 -2 19 1 4 3 -2 6 -13 5 -11 0 -14 -3 -6 -6z"/>
<path d="M2758 3193 c7 -3 16 -2 19 1 4 3 -2 6 -13 5 -11 0 -14 -3 -6 -6z"/>
<path d="M5568 3193 c7 -3 16 -2 19 1 4 3 -2 6 -13 5 -11 0 -14 -3 -6 -6z"/>
<path d="M6248 3193 c7 -3 16 -2 19 1 4 3 -2 6 -13 5 -11 0 -14 -3 -6 -6z"/>
<path d="M4335 2841 c117 -13 192 -56 245 -143 104 -169 16 -395 -175 -447
-66 -18 -65 -18 -65 64 0 65 2 75 18 75 28 0 81 37 102 72 28 46 26 115 -3
159 -29 45 -106 83 -150 75 -53 -10 -97 -43 -117 -89 -24 -53 -25 -81 -1 -134
21 -46 54 -72 104 -82 l32 -7 0 -69 0 -70 -41 2 c-94 4 -207 96 -240 195 -22
66 -15 177 14 233 28 56 87 109 152 139 30 14 46 26 35 26 -30 0 -118 -54
-150 -92 -83 -98 -100 -234 -44 -346 44 -90 94 -128 219 -169 9 -3 -1 -10 -25
-17 -60 -19 -96 -40 -139 -82 -115 -112 -120 -302 -10 -424 41 -45 127 -93
187 -104 l37 -7 0 -155 c0 -101 3 -153 10 -149 6 4 10 66 10 155 0 155 1 160
46 160 9 0 39 11 69 25 139 66 211 219 170 360 -34 118 -125 205 -240 228 -15
3 -16 5 -5 9 8 3 36 13 62 22 64 23 132 86 165 154 36 74 39 182 6 253 -52
114 -150 180 -273 185 l-75 3 70 -8z m77 -185 c96 -63 66 -223 -46 -252 -26
-6 -26 -6 -28 62 l-2 69 -3 -67 c-4 -60 -6 -68 -24 -68 -48 0 -105 49 -119
102 -35 130 108 229 222 154z m-6 -607 c102 -63 99 -210 -7 -267 -136 -73
-280 71 -207 207 41 77 141 105 214 60z"/>
<path d="M4252 2040 c-44 -27 -75 -96 -66 -146 9 -50 57 -101 106 -115 87 -23
178 47 178 136 0 110 -125 181 -218 125z"/>
<path d="M5165 2835 c-92 -14 -129 -26 -202 -68 -46 -25 -153 -110 -161 -128
-1 -3 -16 -21 -32 -39 -17 -19 -30 -38 -30 -43 0 -5 -8 -21 -19 -35 -24 -36
-58 -135 -66 -197 -3 -27 -8 -60 -11 -72 l-4 -23 153 0 154 0 6 56 c3 30 11
62 17 69 7 8 8 20 4 26 -4 8 -3 9 4 5 7 -4 12 -1 12 6 0 22 92 105 140 127 34
15 66 21 130 21 73 0 93 -4 145 -29 62 -29 145 -113 145 -146 0 -9 4 -14 9
-11 5 3 8 0 8 -7 0 -6 3 -36 7 -65 l9 -53 146 3 146 3 -3 60 c-4 92 -53 232
-76 218 -5 -4 -7 1 -2 12 4 10 3 21 -1 24 -5 3 -22 26 -38 50 -49 73 -202 190
-226 175 -7 -4 -9 -3 -6 3 8 13 -27 28 -108 47 -91 22 -162 25 -250 11z"/>
<path d="M1400 2630 c0 -113 1 -120 20 -120 16 0 20 7 20 35 0 19 4 35 8 35 5
0 17 -16 28 -35 15 -28 25 -35 47 -35 28 0 29 1 15 23 -44 67 -44 63 -14 101
l27 36 -28 0 c-21 0 -34 -9 -53 -38 l-25 -37 -3 78 c-3 69 -5 77 -22 77 -19 0
-20 -8 -20 -120z"/>
<path d="M920 2625 l0 -115 26 0 26 0 -3 84 c-2 46 -3 83 -1 82 1 -2 15 -39
31 -82 21 -59 34 -80 49 -82 16 -3 24 11 48 85 l29 88 3 -87 c3 -86 3 -88 27
-88 l25 0 0 115 0 115 -39 0 -38 0 -24 -80 c-13 -44 -26 -80 -29 -80 -3 0 -16
36 -29 80 l-24 80 -38 0 -39 0 0 -115z"/>
<path d="M1840 2625 l0 -115 25 0 c23 0 25 4 25 45 0 31 4 45 14 45 7 0 24
-20 37 -45 20 -37 29 -45 52 -45 26 0 27 2 16 23 -6 12 -22 37 -36 55 -13 17
-19 32 -14 32 19 0 42 47 36 73 -8 31 -43 47 -105 47 l-50 0 0 -115z m104 59
c8 -21 -11 -44 -35 -44 -14 0 -19 7 -19 30 0 25 4 30 24 30 13 0 27 -7 30 -16z"/>
<path d="M2728 2713 c-10 -3 -18 -13 -18 -24 0 -10 -7 -19 -15 -19 -8 0 -15
-6 -15 -14 0 -8 7 -16 15 -20 10 -4 15 -20 15 -50 0 -51 19 -76 56 -76 17 0
24 5 24 20 0 11 -7 20 -15 20 -11 0 -15 12 -15 46 0 37 3 45 15 40 10 -4 15 1
15 14 0 11 -7 20 -15 20 -8 0 -15 9 -15 19 0 23 -8 29 -32 24z"/>
<path d="M1248 2663 c-35 -9 -20 -33 18 -30 51 3 54 -19 4 -27 -43 -7 -62 -32
-52 -68 6 -23 44 -33 71 -18 14 7 21 7 21 0 0 -5 12 -10 26 -10 26 0 26 0 22
66 -5 86 -33 107 -110 87z m60 -108 c-12 -12 -43 -8 -46 7 -4 20 41 30 46 10
2 -8 2 -15 0 -17z"/>
<path d="M1603 2658 c-47 -23 -53 -103 -10 -133 36 -25 107 -17 107 12 0 11
-7 14 -27 10 -29 -5 -63 7 -63 23 0 6 23 10 50 10 49 0 50 1 50 29 0 50 -54
75 -107 49z m65 -35 c2 -9 -7 -13 -28 -13 -28 0 -31 2 -20 15 15 18 41 16 48
-2z"/>
<path d="M2056 2649 c-20 -16 -26 -29 -26 -59 0 -58 45 -91 105 -76 39 10 31
34 -11 33 -21 -1 -39 5 -44 13 -8 12 0 16 45 18 47 3 55 6 55 23 0 27 -44 69
-73 69 -13 0 -36 -9 -51 -21z m72 -26 c2 -9 -7 -13 -28 -13 -28 0 -31 2 -20
15 15 18 41 16 48 -2z"/>
<path d="M2210 2590 c0 -73 2 -80 20 -80 17 0 20 7 20 48 0 55 10 75 36 70 16
-3 20 -14 22 -61 3 -53 5 -57 27 -57 24 0 25 3 25 61 0 57 1 60 23 57 19 -3
22 -10 25 -60 3 -54 5 -58 27 -58 24 0 25 3 25 58 0 66 -19 102 -54 102 -13 0
-29 -7 -36 -15 -11 -14 -15 -14 -32 2 -16 14 -24 15 -51 5 -21 -8 -33 -9 -35
-2 -2 5 -12 10 -23 10 -17 0 -19 -8 -19 -80z"/>
<path d="M2533 2658 c-51 -25 -52 -107 -2 -133 65 -34 129 -1 129 65 0 64 -64
98 -127 68z m77 -43 c22 -26 -3 -67 -38 -63 -28 3 -40 32 -28 64 7 19 50 18
66 -1z"/>
<path d="M2857 2663 c-9 -2 -24 -18 -33 -34 -29 -57 6 -119 67 -119 38 0 59
10 59 27 0 11 -7 13 -25 9 -27 -7 -65 8 -65 24 0 6 23 10 50 10 49 0 50 1 50
29 0 47 -44 69 -103 54z m61 -40 c2 -9 -7 -13 -27 -13 -31 0 -42 14 -18 23 19
8 40 3 45 -10z"/>
<path d="M1560 2200 c0 -113 1 -120 20 -120 16 0 20 7 20 35 0 19 4 35 8 35 5
0 17 -16 28 -35 14 -27 25 -35 47 -35 30 0 29 8 -12 60 l-19 24 30 38 30 38
-30 0 c-24 0 -35 -8 -54 -37 l-23 -38 -3 78 c-3 69 -5 77 -22 77 -19 0 -20 -8
-20 -120z"/>
<path d="M904 2293 c3 -10 12 -47 21 -83 30 -123 34 -130 64 -130 26 0 29 4
46 81 20 87 23 87 50 -13 16 -63 19 -68 44 -68 26 0 28 4 50 95 13 52 25 104
28 115 4 16 0 20 -19 20 -23 0 -26 -5 -38 -75 -7 -42 -16 -78 -20 -80 -4 -2
-15 31 -24 75 -17 76 -19 80 -45 80 -26 0 -29 -5 -41 -57 -7 -32 -17 -69 -23
-83 -9 -22 -12 -16 -26 55 -16 76 -18 80 -45 83 -23 3 -27 0 -22 -15z"/>
<path d="M1263 2230 c-47 -19 -57 -87 -18 -125 51 -52 145 -16 145 55 0 60
-63 95 -127 70z m72 -70 c0 -32 -2 -35 -30 -35 -24 0 -31 5 -33 23 -6 38 5 54
35 50 25 -3 28 -7 28 -38z"/>
<path d="M1430 2160 c0 -73 2 -80 20 -80 17 0 20 7 20 41 0 50 15 79 40 79 13
0 20 7 20 20 0 23 -19 26 -39 8 -11 -10 -14 -10 -18 0 -3 6 -13 12 -24 12 -17
0 -19 -8 -19 -80z"/>
<path d="M5013 2020 c-10 -11 -23 -20 -30 -20 -7 0 -25 -18 -39 -40 -21 -32
-25 -47 -20 -77 3 -21 7 -45 8 -53 1 -8 12 -23 25 -34 20 -15 23 -24 18 -50
-9 -44 -26 -76 -42 -76 -18 0 -16 -15 4 -31 11 -10 14 -10 9 -1 -14 23 9 12
37 -18 22 -23 37 -30 68 -30 21 0 42 0 47 0 4 -1 8 8 10 20 2 11 8 18 13 15 5
-4 9 2 9 12 0 10 7 28 15 41 9 12 24 45 35 74 10 29 25 73 34 97 13 34 14 50
6 76 -16 47 -66 93 -108 100 -21 4 -47 8 -59 11 -15 3 -29 -3 -40 -16z"/>
<path d="M909 1793 c-12 -16 -12 -17 1 -7 8 6 22 14 30 17 13 5 12 6 -1 6 -9
1 -23 -7 -30 -16z"/>
<path d="M1017 1793 c-4 -8 9 -53 16 -53 5 0 1 50 -5 56 -3 3 -8 2 -11 -3z"/>
<path d="M2160 1790 c-24 -8 -23 -8 8 -9 20 -1 31 3 27 9 -3 6 -7 10 -8 9 -1
-1 -13 -5 -27 -9z"/>
<path d="M2707 1793 c-4 -8 9 -53 16 -53 5 0 1 50 -5 56 -3 3 -8 2 -11 -3z"/>
<path d="M1130 1786 c0 -2 9 -6 20 -9 11 -3 18 -1 14 4 -5 9 -34 13 -34 5z"/>
<path d="M1184 1765 c1 -20 36 -36 36 -16 0 6 -6 8 -14 5 -9 -3 -16 2 -19 13
-3 15 -4 15 -3 -2z"/>
<path d="M1240 1779 c0 -5 5 -7 10 -4 6 3 10 8 10 11 0 2 -4 4 -10 4 -5 0 -10
-5 -10 -11z"/>
<path d="M1296 1775 c4 -8 7 -15 9 -15 2 0 5 7 9 15 3 9 0 15 -9 15 -9 0 -12
-6 -9 -15z"/>
<path d="M1388 1783 c7 -3 16 -2 19 1 4 3 -2 6 -13 5 -11 0 -14 -3 -6 -6z"/>
<path d="M1431 1772 c0 -11 3 -12 6 -4 8 20 23 14 24 -10 1 -21 2 -21 6 -3 3
11 10 23 15 26 5 3 -5 6 -21 7 -23 0 -31 -4 -30 -16z"/>
<path d="M1562 1765 c0 -16 2 -22 5 -12 2 9 2 23 0 30 -3 6 -5 -1 -5 -18z"/>
<path d="M1640 1781 c0 -6 5 -13 12 -17 6 -4 8 -3 4 4 -3 5 0 13 6 15 8 3 6 6
-4 6 -10 1 -18 -3 -18 -8z"/>
<path d="M1731 1763 c1 -23 2 -24 6 -5 2 12 8 22 13 22 5 0 11 -10 13 -22 5
-20 5 -20 4 2 -1 15 -9 26 -19 28 -14 3 -18 -3 -17 -25z"/>
<path d="M1784 1775 c-8 -19 4 -35 24 -34 15 1 15 2 0 6 -10 2 -18 11 -18 18
0 7 8 16 18 18 16 4 16 5 -1 6 -10 0 -20 -6 -23 -14z"/>
<path d="M1885 1780 c-3 -6 1 -7 9 -4 18 7 21 14 7 14 -6 0 -13 -4 -16 -10z"/>
<path d="M1936 1781 c-4 -5 3 -7 14 -4 23 6 26 13 6 13 -8 0 -17 -4 -20 -9z"/>
<path d="M2011 1763 c1 -23 2 -24 6 -5 2 12 8 22 13 22 5 0 11 -10 13 -22 5
-20 5 -20 4 2 -1 15 -9 26 -19 28 -14 3 -18 -3 -17 -25z"/>
<path d="M2065 1780 c3 -5 8 -10 11 -10 2 0 4 5 4 10 0 6 -5 10 -11 10 -5 0
-7 -4 -4 -10z"/>
<path d="M2110 1781 c13 -10 13 -11 0 -11 -13 0 -13 -2 -1 -9 11 -7 10 -10 -5
-14 -16 -4 -15 -5 4 -6 19 -1 23 4 20 21 -2 12 -10 23 -18 25 -13 4 -13 3 0
-6z"/>
<path d="M2218 1783 c7 -3 16 -2 19 1 4 3 -2 6 -13 5 -11 0 -14 -3 -6 -6z"/>
<path d="M2260 1775 c0 -8 2 -15 4 -15 2 0 6 7 10 15 3 8 1 15 -4 15 -6 0 -10
-7 -10 -15z"/>
<path d="M2364 1775 c-4 -9 -2 -21 4 -27 15 -15 44 -1 40 19 -4 23 -36 29 -44
8z m36 -10 c0 -8 -7 -15 -15 -15 -8 0 -15 7 -15 15 0 8 7 15 15 15 8 0 15 -7
15 -15z"/>
<path d="M2424 1765 c1 -20 36 -36 36 -16 0 6 -6 8 -14 5 -9 -3 -16 2 -19 13
-3 15 -4 15 -3 -2z"/>
<path d="M2480 1779 c0 -5 5 -7 10 -4 6 3 10 8 10 11 0 2 -4 4 -10 4 -5 0 -10
-5 -10 -11z"/>
<path d="M2560 1781 c0 -5 9 -7 20 -4 11 3 20 7 20 9 0 2 -9 4 -20 4 -11 0
-20 -4 -20 -9z"/>
<path d="M2668 1783 c7 -3 16 -2 19 1 4 3 -2 6 -13 5 -11 0 -14 -3 -6 -6z"/>
<path d="M2742 1765 c0 -16 2 -22 5 -12 2 9 2 23 0 30 -3 6 -5 -1 -5 -18z"/>
<path d="M2764 1775 c-4 -9 -2 -21 4 -27 15 -15 44 -1 40 19 -4 23 -36 29 -44
8z m36 -10 c0 -8 -7 -15 -15 -15 -8 0 -15 7 -15 15 0 8 7 15 15 15 8 0 15 -7
15 -15z"/>
<path d="M2822 1765 c0 -16 2 -22 5 -12 2 9 2 23 0 30 -3 6 -5 -1 -5 -18z"/>
<path d="M909 1758 c15 -20 36 -23 46 -8 3 6 -1 7 -10 4 -8 -4 -23 0 -33 7
-15 13 -16 12 -3 -3z"/>
<path d="M978 1763 c6 -2 18 -2 25 0 6 3 1 5 -13 5 -14 0 -19 -2 -12 -5z"/>
<path d="M1338 1763 c6 -2 18 -2 25 0 6 3 1 5 -13 5 -14 0 -19 -2 -12 -5z"/>
<path d="M1388 1763 c7 -3 16 -2 19 1 4 3 -2 6 -13 5 -11 0 -14 -3 -6 -6z"/>
<path d="M1491 1754 c0 -11 3 -14 6 -6 3 7 2 16 -1 19 -3 4 -6 -2 -5 -13z"/>
<path d="M2180 1755 c0 -8 4 -15 10 -15 5 0 7 7 4 15 -4 8 -8 15 -10 15 -2 0
-4 -7 -4 -15z"/>
<path d="M2218 1763 c6 -2 18 -2 25 0 6 3 1 5 -13 5 -14 0 -19 -2 -12 -5z"/>
<path d="M2668 1763 c7 -3 16 -2 19 1 4 3 -2 6 -13 5 -11 0 -14 -3 -6 -6z"/>
<path d="M1145 1750 c-16 -7 -17 -9 -3 -9 9 -1 20 4 23 9 7 11 7 11 -20 0z"/>
<path d="M1690 1740 c-6 -11 -8 -20 -6 -20 3 0 10 9 16 20 6 11 8 20 6 20 -3
0 -10 -9 -16 -20z"/>
<path d="M1937 1749 c7 -7 15 -10 18 -7 3 3 -2 9 -12 12 -14 6 -15 5 -6 -5z"/>
<path d="M2567 1749 c7 -7 15 -10 18 -7 3 3 -2 9 -12 12 -14 6 -15 5 -6 -5z"/>
<path d="M1082 1734 c-7 -8 -8 -14 -3 -14 10 0 25 19 20 25 -2 1 -10 -3 -17
-11z"/>
<path d="M1388 1743 c7 -3 16 -2 19 1 4 3 -2 6 -13 5 -11 0 -14 -3 -6 -6z"/>
<path d="M1648 1743 c7 -3 16 -2 19 1 4 3 -2 6 -13 5 -11 0 -14 -3 -6 -6z"/>
<path d="M2322 1734 c-7 -8 -8 -14 -3 -14 10 0 25 19 20 25 -2 1 -10 -3 -17
-11z"/>
<path d="M2628 1743 c7 -3 16 -2 19 1 4 3 -2 6 -13 5 -11 0 -14 -3 -6 -6z"/>
<path d="M2668 1743 c7 -3 16 -2 19 1 4 3 -2 6 -13 5 -11 0 -14 -3 -6 -6z"/>
<path d="M906 1671 c-4 -5 3 -7 14 -4 23 6 26 13 6 13 -8 0 -17 -4 -20 -9z"/>
<path d="M1202 1660 c0 -14 2 -19 5 -12 2 6 2 18 0 25 -3 6 -5 1 -5 -13z"/>
<path d="M2562 1660 c0 -14 2 -19 5 -12 2 6 2 18 0 25 -3 6 -5 1 -5 -13z"/>
<path d="M2792 1659 c-25 -9 -27 -40 -4 -45 7 -1 8 0 2 3 -20 9 -11 36 10 30
13 -3 20 0 20 9 0 8 -1 14 -2 13 -2 0 -13 -4 -26 -10z"/>
<path d="M3052 1640 c0 -19 2 -27 5 -17 2 9 2 25 0 35 -3 9 -5 1 -5 -18z"/>
<path d="M1078 1653 c7 -3 16 -2 19 1 4 3 -2 6 -13 5 -11 0 -14 -3 -6 -6z"/>
<path d="M1120 1651 c0 -5 12 -7 26 -5 37 4 39 11 4 12 -16 0 -30 -3 -30 -7z"/>
<path d="M1255 1651 c-3 -6 0 -8 9 -5 9 4 16 -2 19 -18 5 -23 5 -23 4 1 -2 26
-21 39 -32 22z"/>
<path d="M1304 1645 c-8 -19 3 -35 24 -34 14 0 13 2 -3 8 l-20 8 20 5 20 6
-20 1 c-17 1 -18 3 -5 11 10 7 11 10 2 10 -7 0 -15 -7 -18 -15z"/>
<path d="M1386 1652 c-2 -4 4 -8 14 -8 10 0 16 4 14 8 -3 4 -9 8 -14 8 -5 0
-11 -4 -14 -8z"/>
<path d="M1435 1650 c-3 -6 1 -7 9 -4 18 7 21 14 7 14 -6 0 -13 -4 -16 -10z"/>
<path d="M1470 1656 c0 -2 9 -6 20 -9 11 -3 18 -1 14 4 -5 9 -34 13 -34 5z"/>
<path d="M1524 1645 c-8 -19 4 -35 24 -34 15 1 15 2 0 6 -10 2 -18 11 -18 18
0 7 8 16 18 18 16 4 16 5 -1 6 -10 0 -20 -6 -23 -14z"/>
<path d="M1750 1651 c0 -6 5 -13 12 -17 6 -4 8 -3 4 4 -3 5 0 13 6 15 8 3 6 6
-4 6 -10 1 -18 -3 -18 -8z"/>
<path d="M1845 1650 c-3 -6 1 -7 9 -4 18 7 21 14 7 14 -6 0 -13 -4 -16 -10z"/>
<path d="M1928 1653 c7 -3 16 -2 19 1 4 3 -2 6 -13 5 -11 0 -14 -3 -6 -6z"/>
<path d="M1978 1653 c7 -3 16 -2 19 1 4 3 -2 6 -13 5 -11 0 -14 -3 -6 -6z"/>
<path d="M2018 1653 c7 -3 16 -2 19 1 4 3 -2 6 -13 5 -11 0 -14 -3 -6 -6z"/>
<path d="M2128 1653 c7 -3 16 -2 19 1 4 3 -2 6 -13 5 -11 0 -14 -3 -6 -6z"/>
<path d="M2168 1653 c7 -3 16 -2 19 1 4 3 -2 6 -13 5 -11 0 -14 -3 -6 -6z"/>
<path d="M2218 1653 c7 -3 16 -2 19 1 4 3 -2 6 -13 5 -11 0 -14 -3 -6 -6z"/>
<path d="M2260 1651 c0 -5 12 -7 26 -5 37 4 39 11 4 12 -16 0 -30 -3 -30 -7z"/>
<path d="M2370 1649 c0 -5 5 -7 10 -4 6 3 10 8 10 11 0 2 -4 4 -10 4 -5 0 -10
-5 -10 -11z"/>
<path d="M2454 1635 c1 -12 9 -21 21 -22 14 -1 15 0 3 3 -9 3 -19 13 -21 22
-3 12 -4 11 -3 -3z"/>
<path d="M2518 1653 c7 -3 16 -2 19 1 4 3 -2 6 -13 5 -11 0 -14 -3 -6 -6z"/>
<path d="M2580 1651 c0 -6 5 -13 12 -17 6 -4 8 -3 4 4 -3 5 0 13 6 15 8 3 6 6
-4 6 -10 1 -18 -3 -18 -8z"/>
<path d="M2678 1653 c7 -3 16 -2 19 1 4 3 -2 6 -13 5 -11 0 -14 -3 -6 -6z"/>
<path d="M2720 1651 c0 -6 6 -8 14 -5 9 4 16 -3 19 -18 5 -22 5 -22 4 2 -2 24
-37 44 -37 21z"/>
<path d="M2938 1653 c7 -3 16 -2 19 1 4 3 -2 6 -13 5 -11 0 -14 -3 -6 -6z"/>
<path d="M2978 1653 c7 -3 16 -2 19 1 4 3 -2 6 -13 5 -11 0 -14 -3 -6 -6z"/>
<path d="M2402 1630 c0 -14 2 -19 5 -12 2 6 2 18 0 25 -3 6 -5 1 -5 -13z"/>
<path d="M1028 1633 c6 -2 18 -2 25 0 6 3 1 5 -13 5 -14 0 -19 -2 -12 -5z"/>
<path d="M1078 1633 c7 -3 16 -2 19 1 4 3 -2 6 -13 5 -11 0 -14 -3 -6 -6z"/>
<path d="M1181 1624 c0 -11 3 -14 6 -6 3 7 2 16 -1 19 -3 4 -6 -2 -5 -13z"/>
<path d="M1578 1633 c6 -2 18 -2 25 0 6 3 1 5 -13 5 -14 0 -19 -2 -12 -5z"/>
<path d="M1629 1632 c9 -7 10 -11 2 -15 -7 -4 -8 -5 0 -3 15 2 13 20 -3 24
-10 3 -10 2 1 -6z"/>
<path d="M1669 1632 c9 -7 10 -11 2 -15 -7 -4 -8 -5 0 -3 15 2 13 20 -3 24
-10 3 -10 2 1 -6z"/>
<path d="M1708 1633 c6 -2 18 -2 25 0 6 3 1 5 -13 5 -14 0 -19 -2 -12 -5z"/>
<path d="M1928 1633 c6 -2 18 -2 25 0 6 3 1 5 -13 5 -14 0 -19 -2 -12 -5z"/>
<path d="M1979 1631 c11 -7 11 -9 0 -14 -10 -4 -9 -6 4 -6 9 -1 17 6 17 14 0
8 -8 15 -17 15 -14 0 -15 -2 -4 -9z"/>
<path d="M2058 1633 c6 -2 18 -2 25 0 6 3 1 5 -13 5 -14 0 -19 -2 -12 -5z"/>
<path d="M2168 1633 c6 -2 18 -2 25 0 6 3 1 5 -13 5 -14 0 -19 -2 -12 -5z"/>
<path d="M2218 1633 c7 -3 16 -2 19 1 4 3 -2 6 -13 5 -11 0 -14 -3 -6 -6z"/>
<path d="M2518 1633 c7 -3 16 -2 19 1 4 3 -2 6 -13 5 -11 0 -14 -3 -6 -6z"/>
<path d="M2678 1633 c7 -3 16 -2 19 1 4 3 -2 6 -13 5 -11 0 -14 -3 -6 -6z"/>
<path d="M2938 1633 c7 -3 16 -2 19 1 4 3 -2 6 -13 5 -11 0 -14 -3 -6 -6z"/>
<path d="M1380 1618 c0 -4 6 -8 14 -8 8 0 17 4 20 8 2 4 -4 8 -15 8 -10 0 -19
-4 -19 -8z"/>
<path d="M1485 1620 c-16 -7 -17 -9 -3 -9 9 -1 20 4 23 9 7 11 7 11 -20 0z"/>
<path d="M1847 1619 c7 -7 15 -10 18 -7 3 3 -2 9 -12 12 -14 6 -15 5 -6 -5z"/>
<path d="M908 1613 c6 -2 18 -2 25 0 6 3 1 5 -13 5 -14 0 -19 -2 -12 -5z"/>
<path d="M1078 1613 c7 -3 16 -2 19 1 4 3 -2 6 -13 5 -11 0 -14 -3 -6 -6z"/>
<path d="M1758 1613 c7 -3 16 -2 19 1 4 3 -2 6 -13 5 -11 0 -14 -3 -6 -6z"/>
<path d="M1928 1613 c7 -3 16 -2 19 1 4 3 -2 6 -13 5 -11 0 -14 -3 -6 -6z"/>
<path d="M2058 1613 c7 -3 16 -2 19 1 4 3 -2 6 -13 5 -11 0 -14 -3 -6 -6z"/>
<path d="M2168 1613 c7 -3 16 -2 19 1 4 3 -2 6 -13 5 -11 0 -14 -3 -6 -6z"/>
<path d="M2218 1613 c7 -3 16 -2 19 1 4 3 -2 6 -13 5 -11 0 -14 -3 -6 -6z"/>
<path d="M2518 1613 c7 -3 16 -2 19 1 4 3 -2 6 -13 5 -11 0 -14 -3 -6 -6z"/>
<path d="M2588 1613 c7 -3 16 -2 19 1 4 3 -2 6 -13 5 -11 0 -14 -3 -6 -6z"/>
<path d="M2678 1613 c7 -3 16 -2 19 1 4 3 -2 6 -13 5 -11 0 -14 -3 -6 -6z"/>
<path d="M2938 1613 c7 -3 16 -2 19 1 4 3 -2 6 -13 5 -11 0 -14 -3 -6 -6z"/>
<path d="M3018 1613 c7 -3 16 -2 19 1 4 3 -2 6 -13 5 -11 0 -14 -3 -6 -6z"/>
<path d="M5520 1473 l-54 -118 -121 0 c-95 0 -133 -5 -185 -22 -75 -24 -160
-43 -196 -43 -17 0 -27 8 -33 24 -5 13 -16 26 -23 29 -15 5 -95 -7 -104 -15
-7 -8 34 -99 61 -134 l24 -32 88 23 c90 23 148 47 155 64 1 5 46 12 98 15 52
3 97 11 98 16 2 6 13 10 24 10 18 0 19 2 7 17 -11 13 -8 13 13 -2 l26 -20 -26
-4 c-23 -4 -21 -6 13 -11 32 -5 19 -8 -62 -14 -103 -8 -114 -13 -94 -45 7 -11
29 -14 88 -13 43 1 79 7 81 12 2 5 11 5 22 -2 14 -9 29 -9 62 1 77 23 152 59
158 76 3 9 10 15 15 14 9 -2 150 270 143 276 -2 1 -53 5 -114 9 l-111 6 -53
-117z m-190 -154 c0 -10 -28 -19 -56 -19 -13 0 -24 6 -24 13 0 8 14 12 40 12
22 0 40 -3 40 -6z m111 -12 c-10 -9 -11 -8 -5 6 3 10 9 15 12 12 3 -3 0 -11
-7 -18z"/>
<path d="M1190 1540 c-29 -7 -35 -44 -7 -46 12 -1 13 -1 2 3 -8 2 -15 11 -15
20 0 11 7 14 25 11 14 -3 28 -2 30 3 8 12 -8 16 -35 9z"/>
<path d="M915 1531 c-3 -7 0 -8 9 -5 10 4 16 1 16 -9 0 -9 -7 -18 -15 -20 -11
-4 -10 -4 2 -3 10 1 18 9 18 20 0 22 -20 33 -30 17z"/>
<path d="M961 1512 c2 -23 2 -24 6 -4 5 28 19 29 26 1 7 -27 42 -22 42 6 0 16
-7 20 -37 22 -35 2 -38 0 -37 -25z m69 3 c0 -8 -7 -15 -15 -15 -8 0 -15 7 -15
15 0 8 7 15 15 15 8 0 15 -7 15 -15z"/>
<path d="M1050 1532 c0 -4 9 -8 20 -8 11 0 20 4 20 8 0 4 -9 8 -20 8 -11 0
-20 -4 -20 -8z"/>
<path d="M1330 1536 c0 -2 9 -6 20 -9 11 -3 20 -1 20 4 0 5 -9 9 -20 9 -11 0
-20 -2 -20 -4z"/>
<path d="M1480 1536 c0 -2 9 -6 20 -9 11 -3 18 -1 14 4 -5 9 -34 13 -34 5z"/>
<path d="M1550 1531 c13 -10 13 -11 0 -11 -13 0 -13 -2 -1 -9 11 -7 10 -10 -5
-14 -16 -4 -15 -5 4 -6 19 -1 23 4 20 21 -2 12 -10 23 -18 25 -13 4 -13 3 0
-6z"/>
<path d="M1581 1513 c1 -22 2 -23 6 -8 3 11 10 23 17 27 7 5 5 8 -6 8 -13 0
-18 -7 -17 -27z"/>
<path d="M1242 1510 c0 -14 2 -19 5 -12 2 6 2 18 0 25 -3 6 -5 1 -5 -13z"/>
<path d="M1449 1512 c9 -7 10 -11 2 -15 -7 -4 -8 -5 0 -3 15 2 13 20 -3 24
-10 3 -10 2 1 -6z"/>
<path d="M1050 1498 c0 -4 6 -8 14 -8 8 0 17 4 20 8 2 4 -4 8 -15 8 -10 0 -19
-4 -19 -8z"/>
<path d="M1125 1500 c-19 -8 -19 -9 3 -9 12 -1 22 4 22 9 0 6 -1 10 -2 9 -2 0
-12 -4 -23 -9z"/>
<path d="M1210 1500 c0 -5 5 -10 11 -10 5 0 7 5 4 10 -3 6 -8 10 -11 10 -2 0
-4 -4 -4 -10z"/>
<path d="M1495 1500 c-16 -7 -17 -9 -3 -9 9 -1 20 4 23 9 7 11 7 11 -20 0z"/>
<path d="M925 1225 c-23 -23 -25 -31 -25 -130 0 -99 2 -107 25 -130 l24 -25
284 0 c269 0 284 1 305 20 27 25 35 70 30 164 -3 62 -7 79 -27 100 l-24 26
-284 0 -284 0 -24 -25z m105 -125 c0 -20 5 -30 15 -30 8 0 15 9 15 20 0 13 7
20 20 20 11 0 20 -7 20 -15 0 -8 -6 -15 -12 -15 -9 0 -8 -4 2 -10 11 -7 2 -10
-32 -10 l-48 0 0 35 c0 19 5 35 10 35 6 0 10 -13 10 -30z m260 13 c1 -17 1
-17 11 0 12 21 29 23 29 3 0 -9 7 -12 21 -9 12 4 25 0 30 -8 6 -10 9 -10 9 -1
0 18 66 16 74 -3 3 -10 -1 -15 -12 -15 -15 0 -15 -2 -2 -10 12 -8 11 -10 -7
-10 -17 0 -23 6 -24 23 0 21 -1 21 -10 -3 -8 -20 -12 -22 -19 -10 -6 9 -10 10
-10 3 0 -15 -82 -15 -92 1 -6 8 -8 7 -8 -1 0 -7 -4 -13 -10 -13 -5 0 -10 16
-10 35 0 24 5 35 15 35 8 0 15 -8 15 -17z m-55 -30 c1 -13 -2 -23 -7 -23 -4 0
-9 10 -9 23 l-2 22 -4 -22 c-5 -28 -23 -30 -23 -3 0 11 -4 20 -10 20 -5 0 -10
-9 -10 -20 0 -16 -7 -20 -30 -20 -20 0 -30 5 -30 15 0 8 6 15 13 15 8 0 7 4
-3 10 -11 7 4 10 49 8 59 -3 65 -5 66 -25z"/>
<path d="M1350 1086 c0 -9 5 -16 10 -16 6 0 10 4 10 9 0 6 -4 13 -10 16 -5 3
-10 -1 -10 -9z"/>
<path d="M5202 1230 c0 -14 2 -19 5 -12 2 6 2 18 0 25 -3 6 -5 1 -5 -13z"/>
<path d="M4033 973 c-10 -3 -13 -73 -13 -299 0 -162 2 -294 6 -294 7 0 594
586 594 594 0 7 -569 7 -587 -1z"/>
<path d="M5189 970 c275 -5 283 -6 249 -22 -86 -41 -147 -121 -169 -221 l-12
-58 -70 3 c-50 2 -72 7 -77 18 -4 8 -15 31 -24 50 -67 141 -288 88 -288 -70 0
-89 64 -154 153 -154 74 0 128 45 153 127 4 14 18 17 80 17 l74 0 12 -52 c19
-93 80 -172 165 -217 l40 -21 -305 3 -305 2 -54 30 c-179 99 -214 333 -71 476
28 28 67 54 101 67 30 12 46 21 36 21 -30 1 -103 -39 -142 -78 -50 -50 -83
-114 -91 -173 l-7 -48 -148 0 -149 0 0 -154 0 -154 150 -1 150 -2 1 123 c0
118 1 121 14 85 19 -51 63 -109 110 -147 73 -58 103 -61 522 -58 l378 3 52 27
c142 75 206 257 141 399 -33 72 -75 119 -140 155 l-53 29 -380 0 c-375 1 -376
1 -96 -5z m517 -33 c109 -55 169 -162 162 -285 -18 -312 -435 -388 -566 -104
-72 158 7 343 176 408 57 22 166 13 228 -19z m-679 -147 c32 -19 63 -66 63
-95 0 -16 -7 -18 -87 -15 -32 1 -53 -3 -53 -9 0 -7 27 -11 70 -11 79 0 86 -9
50 -67 -72 -119 -260 -65 -260 75 0 85 56 142 140 142 27 0 58 -8 77 -20z"/>
<path d="M5525 815 c-138 -48 -139 -235 -3 -290 72 -29 151 3 188 74 26 52 25
96 -3 145 -37 67 -111 95 -182 71z"/>
</g>
</svg>
