<?xml version="1.0" standalone="no"?>
<!DOCTYPE svg PUBLIC "-//W3C//DTD SVG 20010904//EN"
 "http://www.w3.org/TR/2001/REC-SVG-20010904/DTD/svg10.dtd">
<svg version="1.0" xmlns="http://www.w3.org/2000/svg"
 width="608.000000pt" height="451.000000pt" viewBox="0 0 608.000000 451.000000"
 preserveAspectRatio="xMidYMid meet">

<g transform="translate(0.000000,451.000000) scale(0.100000,-0.100000)"
fill="#000000" stroke="none">
<path d="M0 2250 l0 -2250 3040 0 3040 0 0 2250 0 2250 -3040 0 -3040 0 0
-2250z m376 1969 c4 -8 0 -9 -15 -4 -11 3 -21 2 -21 -3 0 -15 27 -22 60 -15
21 4 30 2 30 -7 0 -9 4 -9 13 -3 6 6 36 10 65 11 45 0 55 -3 62 -22 7 -17 9
-15 9 17 1 49 18 48 23 -3 l4 -40 -76 0 c-46 0 -81 5 -88 12 -8 8 -12 8 -12 1
0 -6 -23 -11 -55 -11 -30 0 -55 4 -55 9 0 6 9 7 20 4 26 -8 25 2 -2 24 -12 10
-18 23 -14 29 9 15 43 15 52 1z m460 -4 c4 -8 12 -15 20 -15 8 0 14 -9 14 -21
0 -11 4 -18 10 -14 5 3 6 13 3 21 -4 12 0 15 18 12 16 -2 25 -11 27 -25 3 -22
0 -23 -67 -23 -38 0 -73 5 -76 10 -3 6 -12 10 -18 10 -7 0 -6 -4 3 -11 12 -8
10 -9 -10 -7 -17 2 -25 9 -25 23 0 14 7 20 25 21 45 2 50 4 50 19 0 8 5 15 10
15 6 0 13 -7 16 -15z m34 5 c0 -5 -4 -10 -10 -10 -5 0 -10 5 -10 10 0 6 5 10
10 10 6 0 10 -4 10 -10z m161 -8 c8 -12 20 -17 35 -14 19 3 24 0 24 -17 0 -12
4 -20 10 -16 5 3 7 12 3 20 -3 10 1 15 15 15 14 0 20 -7 20 -25 0 -23 -4 -25
-49 -25 -53 0 -59 5 -31 27 15 13 15 13 -5 3 -12 -5 -25 -15 -28 -20 -3 -6
-18 -10 -33 -10 -25 0 -27 3 -27 40 0 37 2 40 27 40 16 0 33 -8 39 -18z m139
3 c0 -8 6 -15 14 -15 8 0 17 -10 19 -22 3 -14 5 -9 6 15 1 34 21 55 21 22 0
-8 7 -15 15 -15 8 0 15 -5 15 -11 0 -8 5 -8 15 1 20 16 45 5 45 -20 0 -23 -29
-27 -48 -8 -9 9 -12 9 -12 0 0 -8 -19 -12 -55 -12 l-55 0 0 40 c0 22 5 40 10
40 6 0 10 -7 10 -15z m320 -25 c0 -36 -2 -40 -25 -40 -14 0 -28 7 -31 15 -4 8
-11 15 -16 15 -6 0 -8 -7 -4 -15 4 -12 -4 -15 -38 -15 -40 0 -43 2 -43 25 0
32 34 34 48 3 l10 -23 -5 23 c-4 20 -1 23 22 22 44 -3 52 -1 52 15 0 8 7 15
15 15 11 0 15 -11 15 -40z m3584 20 c75 -36 102 -136 55 -201 -41 -57 -84 -69
-264 -69 -88 0 -177 5 -197 10 -20 6 -50 26 -67 46 -26 29 -31 43 -31 85 0 62
21 100 69 128 33 19 52 21 215 21 159 0 184 -2 220 -20z m-4352 -35 c5 -24 3
-25 -38 -25 -40 0 -44 2 -44 25 0 22 4 25 39 25 33 0 39 -3 43 -25z m3052 -1
c20 -19 20 -34 0 -62 -9 -13 -26 -22 -42 -22 -26 0 -27 2 -27 50 0 48 1 50 27
50 15 0 34 -7 42 -16z m186 -9 c0 -14 9 -35 20 -47 11 -12 18 -24 15 -27 -3
-2 -12 4 -20 15 -13 17 -14 17 -15 2 0 -10 -4 -18 -9 -18 -6 0 -10 23 -9 50 0
28 4 50 9 50 5 0 9 -11 9 -25z m134 -15 c18 -46 19 -50 8 -50 -4 0 -14 17 -21
38 -8 20 -19 40 -25 44 -7 5 -5 8 5 8 10 0 23 -16 33 -40z m71 -10 c0 -38 -4
-50 -15 -50 -12 0 -14 11 -12 50 5 67 27 67 27 0z m150 0 c0 -48 -1 -51 -25
-48 -20 2 -25 9 -25 32 0 18 6 31 15 33 12 4 12 3 2 -5 -17 -11 -12 -44 7 -50
10 -3 12 6 10 42 -3 27 0 46 6 46 5 0 10 -23 10 -50z m-464 -18 c6 -29 4 -32
-17 -32 -25 0 -40 15 -24 25 5 3 10 1 10 -5 0 -6 4 -9 9 -5 15 9 9 46 -6 41
-7 -3 -13 -1 -13 5 0 26 35 1 41 -29z m49 -3 c0 -16 -4 -29 -10 -29 -5 0 -10
16 -10 36 0 21 4 33 10 29 6 -3 10 -19 10 -36z m30 31 c0 -5 -4 -10 -10 -10
-5 0 -10 5 -10 10 0 6 5 10 10 10 6 0 10 -4 10 -10z m70 6 c0 -3 -4 -8 -10
-11 -5 -3 -10 -1 -10 4 0 6 5 11 10 11 6 0 10 -2 10 -4z m235 -15 c13 -41 -19
-67 -44 -37 -9 11 -10 20 -1 35 13 26 37 27 45 2z m143 -4 c2 -10 -3 -17 -12
-17 -18 0 -22 -16 -6 -23 6 -3 5 -4 -2 -3 -22 4 -33 33 -18 50 15 20 34 16 38
-7z m-3725 -77 c-3 -11 -7 -20 -8 -20 -1 0 -5 9 -8 20 -3 12 0 20 8 20 8 0 11
-8 8 -20z m144 14 c-3 -3 -12 -4 -19 -1 -8 3 -5 6 6 6 11 1 17 -2 13 -5z m-97
-19 c0 -6 -9 -11 -20 -12 -19 -2 -26 8 -15 19 9 9 35 5 35 -7z m117 0 c0 -8
-4 -12 -9 -9 -5 3 -6 10 -3 15 9 13 12 11 12 -6z m20 -7 c-3 -8 -6 -5 -6 6 -1
11 2 17 5 13 3 -3 4 -12 1 -19z m40 7 c0 -8 -4 -12 -9 -9 -5 3 -6 10 -3 15 9
13 12 11 12 -6z m110 -7 c-3 -8 -6 -5 -6 6 -1 11 2 17 5 13 3 -3 4 -12 1 -19z
m-197 8 c0 -3 -4 -8 -10 -11 -5 -3 -10 -1 -10 4 0 6 5 11 10 11 6 0 10 -2 10
-4z m160 -6 c0 -5 -4 -10 -10 -10 -5 0 -10 5 -10 10 0 6 5 10 10 10 6 0 10 -4
10 -10z m229 6 c-3 -3 -20 -8 -39 -11 -19 -3 -30 -2 -23 3 13 8 70 15 62 8z
m1214 -403 c-149 -2 -397 -2 -550 0 -153 1 -30 2 272 2 303 0 428 -1 278 -2z
m1245 0 c-152 -2 -404 -2 -560 0 -156 1 -31 2 277 2 308 0 435 -1 283 -2z
m-408 -147 c0 -14 -5 -28 -11 -32 -8 -4 -7 -9 2 -16 11 -8 11 -9 -1 -5 -8 2
-14 13 -13 23 1 10 0 13 -3 7 -8 -19 -44 -16 -44 3 0 8 -4 12 -10 9 -5 -3 -10
3 -10 14 0 18 6 21 45 21 41 0 45 -2 45 -24z m-2495 4 c-3 -5 -12 -10 -18 -10
-7 0 -6 4 3 10 19 12 23 12 15 0z m1362 -16 c-3 -3 -12 -4 -19 -1 -8 3 -5 6 6
6 11 1 17 -2 13 -5z m50 -16 c-3 -8 -6 -5 -6 6 -1 11 2 17 5 13 3 -3 4 -12 1
-19z m1184 15 c-11 -5 -11 -7 0 -15 12 -8 12 -9 0 -6 -22 6 -25 28 -4 27 12 0
14 -2 4 -6z m194 -3 c20 -1 20 -1 1 -12 -15 -8 -21 -8 -24 1 -3 8 -8 9 -16 2
-9 -8 -13 -7 -13 3 0 8 7 12 16 11 9 -2 25 -4 36 -5z m1042 4 c-3 -3 -12 -4
-19 -1 -8 3 -5 6 6 6 11 1 17 -2 13 -5z m87 -9 c-4 -8 -8 -15 -10 -15 -2 0 -4
7 -4 15 0 8 4 15 10 15 5 0 7 -7 4 -15z m-3730 -7 c-3 -4 -9 -8 -15 -8 -5 0
-9 4 -9 8 0 5 7 9 15 9 8 0 12 -4 9 -9z m56 0 c0 -11 -28 -10 -35 1 -3 6 4 9
15 8 11 -1 20 -5 20 -9z m1210 0 c0 -4 -7 -8 -15 -8 -8 0 -15 4 -15 8 0 5 7 9
15 9 8 0 15 -4 15 -9z m65 2 c3 -5 -3 -10 -14 -10 -12 0 -21 5 -21 10 0 6 6
10 14 10 8 0 18 -4 21 -10z m35 0 c0 -5 -2 -10 -4 -10 -3 0 -8 5 -11 10 -3 6
-1 10 4 10 6 0 11 -4 11 -10z m1170 -2 c0 -4 -9 -8 -20 -8 -11 0 -20 4 -20 9
0 6 9 9 20 8 11 -1 20 -5 20 -9z m105 2 c3 -5 1 -10 -4 -10 -6 0 -11 5 -11 10
0 6 2 10 4 10 3 0 8 -4 11 -10z m1055 -4 c-7 -7 -13 -7 -20 0 -6 6 -3 10 10
10 13 0 16 -4 10 -10z m74 2 c-3 -4 -9 -8 -15 -8 -5 0 -9 4 -9 8 0 5 7 9 15 9
8 0 12 -4 9 -9z m53 6 c-3 -3 -12 -4 -19 -1 -8 3 -5 6 6 6 11 1 17 -2 13 -5z
m28 -4 c3 -5 1 -10 -4 -10 -6 0 -11 5 -11 10 0 6 2 10 4 10 3 0 8 -4 11 -10z
m-3915 -16 c0 -2 -9 -4 -21 -4 -11 0 -18 4 -14 10 5 8 35 3 35 -6z m1235 6 c3
-5 -1 -10 -10 -10 -9 0 -13 5 -10 10 3 6 8 10 10 10 2 0 7 -4 10 -10z m1205 0
c0 -5 -7 -10 -16 -10 -8 0 -12 5 -9 10 3 6 10 10 16 10 5 0 9 -4 9 -10z m1260
0 c0 -5 -5 -10 -11 -10 -5 0 -7 5 -4 10 3 6 8 10 11 10 2 0 4 -4 4 -10z
m-3870 -360 c0 -95 1 -101 23 -110 16 -6 6 -9 -43 -9 -49 0 -61 2 -47 10 14 8
17 24 17 84 0 69 -2 74 -22 77 -20 3 -18 6 17 25 22 12 43 22 48 23 4 0 7 -45
7 -100z m162 88 c8 -7 20 -22 26 -33 10 -17 11 -17 12 -3 0 38 76 62 121 38
23 -13 25 -52 4 -70 -13 -11 -14 -15 -1 -29 43 -49 13 -111 -54 -111 -22 0
-45 7 -54 16 -22 22 -20 60 4 77 19 13 19 14 2 31 -18 15 -19 14 -30 -22 -15
-50 -60 -91 -107 -99 -28 -4 -36 -3 -31 5 4 7 13 12 21 12 7 0 26 15 41 33
l27 32 -29 3 c-39 5 -64 29 -64 64 0 54 70 89 112 56z m298 -95 c-24 -68 -44
-109 -53 -111 -13 -3 -11 12 13 84 17 48 30 89 30 91 0 10 -59 0 -78 -13 -20
-14 -22 -14 -22 5 0 45 9 51 80 51 l69 0 -39 -107z m780 7 c0 -95 1 -101 23
-110 16 -6 6 -9 -43 -9 -49 0 -61 2 -47 10 14 8 17 24 17 84 0 69 -2 74 -22
77 -20 3 -18 6 17 25 22 12 43 22 48 23 4 0 7 -45 7 -100z m164 87 c9 -7 23
-34 29 -61 l13 -49 44 61 c62 85 78 83 82 -10 l3 -73 55 73 c30 39 60 72 67
72 9 0 13 -20 13 -70 0 -40 4 -70 10 -70 6 0 10 -7 10 -15 0 -8 -4 -15 -10
-15 -5 0 -10 -11 -10 -25 0 -20 -5 -25 -25 -25 -20 0 -25 5 -25 25 0 23 -4 25
-45 25 -41 0 -45 -2 -45 -25 0 -21 -5 -25 -30 -25 -25 0 -30 4 -30 25 0 22 -4
25 -38 25 -28 0 -44 -6 -60 -25 -27 -31 -72 -33 -97 -5 -29 32 -32 126 -6 168
23 35 62 43 95 19z m1116 -87 c0 -84 3 -101 18 -109 13 -8 1 -10 -48 -10 -36
0 -58 3 -50 6 25 10 30 25 30 91 0 56 -3 65 -20 69 -28 7 -25 17 13 36 56 28
57 26 57 -83z m130 0 c0 -84 3 -101 18 -109 13 -8 1 -10 -48 -10 -49 0 -59 3
-42 9 20 9 22 16 22 81 0 62 -2 71 -20 76 -11 3 -20 9 -20 13 0 7 65 38 83 39
4 1 7 -44 7 -99z m146 87 c-12 -9 -17 -23 -14 -49 l3 -37 45 40 c37 32 42 40
30 49 -11 7 -2 10 35 10 l50 0 -52 -35 c-28 -19 -54 -39 -57 -44 -6 -10 86
-126 107 -134 6 -3 -16 -6 -50 -6 -53 -1 -61 1 -57 17 2 9 -9 33 -26 52 l-29
35 -1 -42 c0 -30 5 -45 18 -52 13 -8 1 -10 -48 -10 -49 0 -61 2 -47 10 14 8
17 25 17 99 0 74 -3 91 -17 99 -14 8 -2 10 46 11 55 0 62 -2 47 -13z m945 3
c22 -12 25 -53 5 -72 -11 -11 -10 -17 6 -39 21 -29 18 -57 -8 -84 -20 -20 -83
-19 -106 2 -24 21 -23 60 1 75 19 12 19 12 0 36 -24 31 -24 47 1 72 22 22 70
26 101 10z m141 -7 c30 -27 17 -84 -31 -127 -29 -26 -26 -36 9 -36 17 0 30 5
30 10 0 13 47 2 74 -16 50 -34 64 31 15 69 -31 24 -32 25 -10 36 25 14 28 46
5 55 -8 3 -25 1 -37 -5 -22 -12 -22 -12 -3 10 40 44 129 10 99 -38 -10 -15 -9
-22 2 -31 9 -7 15 -29 15 -50 0 -30 -6 -43 -26 -59 -34 -27 -99 -28 -113 -3
-10 16 -10 16 -11 0 0 -15 -10 -18 -65 -18 -36 0 -65 3 -65 6 0 3 14 23 30 44
41 52 56 96 40 115 -16 19 -29 19 -52 -2 -17 -15 -18 -15 -18 0 0 47 75 74
112 40z m308 -10 c26 -33 24 -96 -5 -139 -19 -30 -77 -57 -109 -51 -18 3 -17
5 11 16 27 11 63 48 63 66 0 3 -13 5 -29 5 -20 0 -35 8 -45 22 -21 30 -20 50
5 82 29 37 80 36 109 -1z m-4305 -283 c3 -6 -1 -7 -10 -4 -9 4 -15 3 -14 -2 3
-19 -1 -44 -8 -44 -5 0 -8 14 -8 30 0 22 5 30 17 30 9 0 20 -4 23 -10z m75 2
c0 -4 -9 -8 -19 -8 -11 0 -17 4 -15 8 3 4 12 8 20 8 8 0 14 -4 14 -8z m52 -19
c-4 -21 -2 -25 12 -20 9 4 16 2 16 -3 0 -6 -10 -10 -22 -10 -19 0 -23 6 -23
30 0 17 5 30 11 30 7 0 9 -11 6 -27z m182 11 c5 -14 4 -15 -9 -4 -11 9 -19 10
-27 2 -14 -14 0 -35 19 -28 8 3 11 1 8 -4 -10 -15 -32 -12 -39 6 -7 19 10 44
29 44 7 0 16 -7 19 -16z m76 1 c0 -8 -2 -15 -4 -15 -2 0 -6 7 -10 15 -3 8 -1
15 4 15 6 0 10 -7 10 -15z m90 7 c-22 -10 -24 -40 -3 -45 14 -4 13 -5 -4 -6
-19 -1 -23 4 -23 29 0 25 4 30 23 29 16 0 18 -2 7 -7z m76 -8 c-4 -9 -1 -24 6
-33 10 -13 8 -12 -8 2 -11 9 -24 14 -27 10 -4 -3 -7 -1 -7 5 0 7 8 12 18 13
14 0 14 2 -3 9 -19 8 -19 9 4 9 17 1 22 -3 17 -15z m70 -9 c1 -8 -4 -11 -12
-8 -15 6 -18 16 -7 26 8 9 16 1 19 -18z m608 17 c-6 -4 -10 -17 -9 -29 1 -13
-3 -23 -9 -23 -6 0 -11 14 -11 30 0 23 4 30 20 30 12 0 16 -3 9 -8z m86 -8
c11 -12 10 -18 -3 -32 -14 -13 -19 -14 -29 -3 -11 10 -10 11 3 6 21 -8 35 13
21 27 -8 8 -16 7 -29 -3 -16 -13 -17 -12 -4 4 17 21 25 21 41 1z m53 -4 c-3
-11 -7 -20 -8 -20 -1 0 -5 9 -8 20 -3 12 0 20 8 20 8 0 11 -8 8 -20z m172 10
c3 -5 0 -7 -8 -4 -19 7 -33 -14 -19 -28 8 -8 16 -7 27 2 13 11 14 10 9 -4 -8
-20 -28 -21 -44 -1 -10 12 -10 18 0 30 14 17 26 19 35 5z m64 -40 c0 -9 -4 -8
-9 5 -5 11 -9 27 -9 35 0 9 4 8 9 -5 5 -11 9 -27 9 -35z m21 40 c0 -5 -2 -10
-4 -10 -3 0 -8 5 -11 10 -3 6 -1 10 4 10 6 0 11 -4 11 -10z m85 2 c-16 -11
-17 -34 -3 -43 9 -6 7 -9 -7 -9 -16 0 -20 7 -20 30 0 23 4 30 20 30 11 0 16
-4 10 -8z m81 -8 c-4 -9 -1 -24 6 -33 8 -10 3 -8 -11 4 -21 17 -24 18 -18 3 4
-10 2 -18 -3 -18 -17 0 -11 30 7 37 15 6 15 7 -3 14 -17 7 -17 8 5 8 17 1 22
-3 17 -15z m677 9 c-7 -2 -19 -2 -25 0 -7 3 -2 5 12 5 14 0 19 -2 13 -5z m82
-23 c0 -16 -6 -26 -18 -28 -19 -4 -32 20 -23 44 9 25 41 13 41 -16z m55 4 c0
-20 4 -25 16 -20 8 3 12 2 9 -4 -3 -6 -14 -10 -23 -10 -12 0 -17 8 -17 30 0
17 3 30 8 30 4 0 7 -12 7 -26z m175 -4 c0 -29 -32 -41 -41 -16 -9 24 4 48 23
44 12 -2 18 -12 18 -28z m55 21 c0 -5 3 -17 7 -27 4 -11 3 -15 -4 -11 -14 9
-24 47 -12 47 5 0 9 -4 9 -9z m30 -6 c0 -8 -2 -15 -4 -15 -2 0 -6 7 -10 15 -3
8 -1 15 4 15 6 0 10 -7 10 -15z m82 8 c-6 -2 -10 -9 -7 -13 3 -5 1 -11 -4 -14
-5 -3 -11 3 -14 14 -4 16 0 20 16 19 12 0 16 -3 9 -6z m84 -9 c-4 -9 -1 -24 6
-33 10 -13 8 -12 -8 2 -11 9 -24 14 -27 10 -4 -3 -7 -1 -7 5 0 7 8 12 18 13
14 0 14 2 -3 9 -19 8 -19 9 4 9 17 1 22 -3 17 -15z m670 -9 c1 -8 -4 -11 -12
-8 -15 6 -18 16 -7 26 8 9 16 1 19 -18z m54 1 c0 -13 6 -27 13 -29 7 -4 6 -6
-4 -6 -11 -1 -18 9 -21 29 -3 17 -1 30 4 30 4 0 8 -11 8 -24z m90 14 c-10 -6
-11 -10 -2 -10 6 0 12 -9 12 -20 0 -12 -7 -20 -17 -20 -13 0 -18 8 -18 30 0
23 4 30 20 30 17 0 17 -2 5 -10z m75 0 c3 -6 -1 -7 -9 -4 -18 7 -21 14 -7 14
6 0 13 -4 16 -10z m54 -6 c-11 -14 -10 -18 6 -30 16 -12 16 -14 3 -14 -9 0
-20 5 -23 10 -9 14 4 50 17 50 6 0 5 -7 -3 -16z m97 0 c-4 -9 -1 -24 6 -33 10
-13 8 -12 -8 2 -11 9 -23 15 -25 12 -3 -2 -5 5 -6 15 -1 14 5 20 19 20 14 0
18 -5 14 -16z m59 -14 c0 -16 -5 -30 -11 -30 -6 0 -9 13 -6 30 2 17 7 30 11
30 3 0 6 -13 6 -30z m73 0 c0 -24 -4 -30 -19 -30 -11 0 -17 5 -14 10 4 6 11 8
16 5 5 -4 9 -1 9 4 0 6 -6 11 -12 11 -9 0 -9 3 1 9 11 7 10 10 -5 14 -17 4
-17 5 2 6 17 1 21 -5 22 -29z m67 22 c-16 -11 -17 -34 -3 -43 9 -6 7 -9 -7 -9
-16 0 -20 7 -20 30 0 23 4 30 20 30 11 0 16 -4 10 -8z m71 -14 c1 -11 -3 -15
-12 -11 -17 6 -19 36 -2 31 6 -2 12 -11 14 -20z m-416 -24 c0 -8 -8 -14 -17
-13 -12 0 -13 2 -5 6 10 4 10 8 1 19 -10 12 -9 13 5 8 9 -3 16 -12 16 -20z
m-3858 2 c10 6 11 4 0 -7 -10 -11 -15 -10 -30 6 -15 17 -15 18 0 6 9 -7 23 -9
30 -5z m295 -8 c-3 -8 -6 -5 -6 6 -1 11 2 17 5 13 3 -3 4 -12 1 -19z m1498 3
c-3 -6 -11 -11 -16 -11 -5 0 -4 6 3 14 14 16 24 13 13 -3z m1245 4 c0 -8 -7
-15 -15 -15 -13 0 -14 3 -3 15 16 18 18 18 18 0z m-1710 -5 c0 -5 -12 -10 -27
-9 l-28 1 25 8 c14 4 26 8 28 9 1 1 2 -3 2 -9z m1060 0 c0 -5 -5 -10 -11 -10
-5 0 -7 5 -4 10 3 6 8 10 11 10 2 0 4 -4 4 -10z m-2237 -7 c-7 -2 -19 -2 -25
0 -7 3 -2 5 12 5 14 0 19 -2 13 -5z m404 1 c-3 -3 -12 -4 -19 -1 -8 3 -5 6 6
6 11 1 17 -2 13 -5z m836 -1 c-7 -2 -19 -2 -25 0 -7 3 -2 5 12 5 14 0 19 -2
13 -5z m1240 0 c-7 -2 -19 -2 -25 0 -7 3 -2 5 12 5 14 0 19 -2 13 -5z m260 0
c-7 -2 -21 -2 -30 0 -10 3 -4 5 12 5 17 0 24 -2 18 -5z m-2766 -235 c-2 -13
-4 -5 -4 17 -1 22 1 32 4 23 2 -10 2 -28 0 -40z m53 42 c0 -5 -2 -10 -4 -10
-3 0 -8 5 -11 10 -3 6 -1 10 4 10 6 0 11 -4 11 -10z m84 3 c-5 -5 -11 -11 -14
-14 -3 -4 -11 -1 -18 7 -11 12 -8 14 14 14 15 0 23 -3 18 -7z m1114 -14 c1 -8
-4 -23 -11 -33 -12 -16 -14 -16 -14 -2 0 9 4 16 9 16 12 0 10 27 -2 33 -6 3
-5 4 2 3 7 -1 14 -9 16 -17z m112 11 c0 -5 -2 -10 -4 -10 -3 0 -8 5 -11 10 -3
6 -1 10 4 10 6 0 11 -4 11 -10z m1070 -25 c0 -19 -3 -35 -7 -35 -5 0 -8 16 -8
35 0 19 3 35 8 35 4 0 7 -16 7 -35z m93 28 c-7 -2 -13 -11 -13 -18 0 -7 6 -16
13 -18 9 -4 9 -6 0 -6 -6 -1 -15 4 -18 9 -9 15 2 40 17 39 10 0 10 -2 1 -6z
m40 -15 c-4 -19 -3 -20 6 -8 9 13 11 13 11 -1 0 -9 -6 -21 -13 -27 -10 -8 -12
-5 -11 16 1 34 3 42 8 42 2 0 2 -10 -1 -22z m90 15 c-7 -2 -19 -2 -25 0 -7 3
-2 5 12 5 14 0 19 -2 13 -5z m-2478 -38 c0 -10 -6 -19 -13 -21 -7 -1 -8 0 -2
3 5 2 10 11 10 18 0 7 -5 16 -10 18 -6 3 -5 4 2 3 7 -2 13 -11 13 -21z m55 0
c0 -17 -5 -25 -17 -25 -15 0 -15 2 -4 9 8 5 11 16 8 25 -4 9 -2 16 3 16 6 0
10 -11 10 -25z m80 15 c0 -5 -2 -10 -4 -10 -3 0 -8 5 -11 10 -3 6 -1 10 4 10
6 0 11 -4 11 -10z m975 -19 c-6 -5 -25 10 -25 20 0 5 6 4 14 -3 8 -7 12 -15
11 -17z m130 4 c0 -10 -6 -19 -13 -21 -7 -1 -8 0 -2 3 5 2 10 11 10 18 0 7 -5
16 -10 18 -6 3 -5 4 2 3 7 -2 13 -11 13 -21z m55 14 c0 -6 -7 -9 -15 -5 -9 3
-15 0 -15 -10 0 -10 6 -14 15 -10 8 3 15 1 15 -4 0 -13 -27 -13 -35 0 -4 6 -4
17 -1 25 6 17 36 20 36 4z m40 -4 c0 -8 -4 -15 -8 -15 -5 0 -9 7 -9 15 0 8 4
15 9 15 4 0 8 -7 8 -15z m1222 -10 c3 -14 1 -25 -3 -25 -5 0 -9 11 -9 25 0 14
2 25 4 25 2 0 6 -11 8 -25z m68 -6 c0 -10 -7 -19 -15 -19 -8 0 -15 5 -15 11 0
5 6 7 13 3 9 -6 9 -5 0 8 -7 8 -10 18 -7 21 11 10 24 -3 24 -24z m-1437 1 c3
-12 0 -20 -8 -20 -8 0 -11 8 -8 20 3 11 7 20 8 20 1 0 5 -9 8 -20z m-1428 0
c3 -5 1 -10 -4 -10 -6 0 -11 5 -11 10 0 6 2 10 4 10 3 0 8 -4 11 -10z m189 -5
c3 -9 0 -15 -9 -15 -9 0 -12 6 -9 15 4 8 7 15 9 15 2 0 5 -7 9 -15z m153 2 c0
-8 -6 -14 -12 -14 -6 0 -12 6 -12 14 0 7 6 13 12 13 6 0 12 -6 12 -13z m898 3
c3 -5 -1 -10 -10 -10 -9 0 -13 5 -10 10 3 6 8 10 10 10 2 0 7 -4 10 -10z
m1190 0 c3 -5 1 -10 -4 -10 -6 0 -11 5 -11 10 0 6 2 10 4 10 3 0 8 -4 11 -10z
m330 -19 c-6 -5 -25 10 -25 20 0 5 6 4 14 -3 8 -7 12 -15 11 -17z m-3025 -506
c8 -10 31 -15 66 -15 l53 0 -19 -42 c-10 -24 -23 -44 -28 -46 -5 -1 -17 17
-27 40 -17 39 -18 41 -22 18 -7 -37 -32 -60 -67 -60 -62 1 -94 57 -56 98 24
26 81 30 100 7z m425 5 c3 -5 -3 -10 -14 -10 -12 0 -21 5 -21 10 0 6 6 10 14
10 8 0 18 -4 21 -10z m505 -7 c0 -13 -3 -14 -12 -5 -21 21 -28 13 -28 -37 0
-30 5 -51 13 -54 6 -3 -4 -6 -24 -6 l-35 -1 6 50 c4 31 3 53 -4 57 -5 4 -12 1
-14 -5 -5 -17 -22 -15 -22 3 0 12 13 15 60 15 50 0 60 -3 60 -17z m170 -33 c0
-27 0 -53 0 -57 0 -5 -17 -8 -37 -8 -38 0 -38 0 -38 40 0 34 3 40 23 43 16 2
22 8 18 18 -3 9 1 14 14 14 17 0 20 -7 20 -50z m-902 -2 c2 -13 -3 -18 -18
-18 -15 0 -20 -5 -18 -17 2 -10 11 -17 21 -17 9 1 14 -2 11 -7 -10 -16 -53 -9
-64 10 -14 27 -13 37 6 56 21 20 58 16 62 -7z m137 12 c-3 -5 -1 -18 4 -27 10
-17 11 -16 12 2 1 11 1 23 0 28 0 4 17 7 39 7 l40 0 0 -45 c0 -40 -2 -45 -23
-45 -20 0 -22 4 -19 40 2 22 0 40 -6 40 -5 0 -17 -18 -26 -40 -19 -49 -31 -50
-45 -7 -9 26 -17 33 -34 32 -18 -2 -22 -8 -22 -33 0 -25 -4 -32 -20 -32 -17 0
-20 7 -20 44 l0 44 63 1 c39 0 61 -3 57 -9z m173 -2 c19 -19 14 -28 -13 -28
-26 0 -30 -7 -17 -28 5 -8 16 -10 27 -6 13 5 16 4 11 -4 -9 -16 -49 -15 -64 0
-26 26 -7 78 28 78 9 0 21 -5 28 -12z m129 -33 c-12 -25 -24 -45 -27 -45 -4 0
-13 18 -20 40 -7 22 -17 40 -22 40 -5 0 -4 -9 2 -20 11 -20 5 -60 -8 -60 -4 0
-14 20 -23 45 l-17 45 68 0 68 0 -21 -45z m364 24 c16 -30 -3 -69 -34 -69 -29
0 -47 17 -47 45 0 45 60 63 81 24z m200 -26 l5 -43 -37 0 c-44 0 -56 12 -34
33 10 11 11 17 3 19 -7 3 -9 12 -5 22 5 12 15 16 34 14 25 -3 29 -8 34 -45z
m58 40 c-3 -19 2 -33 12 -33 6 0 9 9 6 20 -4 14 0 20 13 20 16 0 15 -4 -5 -44
-12 -24 -25 -53 -28 -66 -6 -24 -37 -25 -45 -1 -3 10 1 12 17 8 27 -7 27 11 2
63 l-19 40 24 0 c13 0 23 -3 23 -7z m-511 -50 c-10 -2 -26 -2 -35 0 -10 3 -2
5 17 5 19 0 27 -2 18 -5z m-718 -382 c0 -5 -8 -15 -17 -22 -16 -13 -17 -12 -5
3 10 13 10 17 0 21 -8 4 -7 6 5 6 9 1 17 -3 17 -8z m147 -23 c-3 -7 -5 -2 -5
12 0 14 2 19 5 13 2 -7 2 -19 0 -25z m1123 28 c0 -3 -4 -8 -10 -11 -5 -3 -10
-1 -10 4 0 6 5 11 10 11 6 0 10 -2 10 -4z m1208 -29 c12 -3 10 -5 -5 -6 -18
-1 -23 4 -22 22 1 15 3 17 6 5 2 -9 12 -19 21 -21z m1242 22 c13 -9 12 -10 -3
-5 -10 3 -15 2 -12 -3 3 -5 1 -12 -5 -16 -5 -3 -10 3 -10 14 0 23 8 26 30 10z
m80 1 c0 -5 -4 -10 -10 -10 -5 0 -10 5 -10 10 0 6 5 10 10 10 6 0 10 -4 10
-10z m80 0 c0 -5 -2 -10 -4 -10 -3 0 -8 5 -11 10 -3 6 -1 10 4 10 6 0 11 -4
11 -10z m-3835 -30 c18 0 20 16 3 24 -7 3 -4 5 6 3 25 -3 32 -23 10 -31 -25
-9 -54 3 -54 22 1 16 2 15 11 0 5 -10 17 -18 24 -18z m122 8 c-3 -8 -6 -5 -6
6 -1 11 2 17 5 13 3 -3 4 -12 1 -19z m1140 0 c-3 -8 -6 -5 -6 6 -1 11 2 17 5
13 3 -3 4 -12 1 -19z m20 0 c-3 -8 -6 -5 -6 6 -1 11 2 17 5 13 3 -3 4 -12 1
-19z m1210 13 c10 9 13 8 13 -3 0 -8 -10 -14 -23 -14 -13 0 -24 6 -24 13 0 9
4 10 10 4 7 -7 15 -7 24 0z m30 -13 c-3 -8 -6 -5 -6 6 -1 11 2 17 5 13 3 -3 4
-12 1 -19z m1198 13 c3 -5 2 -12 -3 -15 -5 -3 -9 1 -9 9 0 17 3 19 12 6z m52
-13 c-3 -8 -6 -5 -6 6 -1 11 2 17 5 13 3 -3 4 -12 1 -19z m20 0 c-3 -8 -6 -5
-6 6 -1 11 2 17 5 13 3 -3 4 -12 1 -19z m98 13 c3 -5 1 -12 -5 -16 -5 -3 -10
1 -10 9 0 18 6 21 15 7z m-2695 -17 c0 -2 -7 -4 -15 -4 -8 0 -15 4 -15 10 0 5
7 7 15 4 8 -4 15 -8 15 -10z m-1194 -224 c1 -14 5 -33 9 -43 10 -24 -12 -47
-47 -47 -32 0 -47 23 -28 45 10 12 10 18 0 30 -18 21 5 47 39 43 20 -2 26 -9
27 -28z m104 23 c0 -5 -8 -30 -19 -58 -23 -61 -47 -75 -26 -15 20 57 19 63
-10 58 -17 -4 -25 -1 -25 8 0 10 13 14 40 14 22 0 40 -3 40 -7z m1145 -3 c-3
-5 -18 -10 -33 -10 l-27 0 24 -13 c39 -20 48 -42 27 -66 -20 -22 -61 -28 -71
-10 -12 18 5 24 27 10 13 -8 24 -9 30 -3 12 12 -17 42 -43 42 -22 0 -23 1 -7
35 9 20 18 25 45 25 20 0 32 -4 28 -10z m83 -14 c2 -10 -6 -32 -18 -49 l-23
-30 26 7 c21 5 25 3 21 -9 -4 -10 -20 -15 -46 -15 l-39 0 27 35 c31 41 27 70
-8 59 -21 -6 -21 -5 -9 10 19 22 65 17 69 -8z m1152 14 c0 -5 -12 -10 -27 -10
l-28 -1 28 -15 c29 -16 36 -51 15 -72 -18 -18 -68 -15 -68 3 0 18 21 20 38 3
6 -6 15 -8 19 -4 12 11 -12 41 -36 44 -25 4 -24 3 -9 37 8 18 19 25 40 25 15
0 28 -4 28 -10z m92 -32 c2 -24 2 -51 0 -60 -5 -22 -42 -24 -42 -3 0 8 -9 15
-20 15 -11 0 -20 4 -20 10 0 12 59 80 70 80 4 0 10 -19 12 -42z m83 25 c-28
-15 -28 -16 -9 -24 27 -9 37 -35 24 -60 -12 -21 -50 -25 -68 -7 -32 32 11 108
60 108 21 -1 21 -2 -7 -17z m98 -4 c8 -12 4 -25 -13 -49 l-24 -33 22 5 c15 4
22 2 22 -8 0 -10 -12 -14 -41 -14 l-40 0 20 29 c32 44 26 92 -7 59 -7 -7 -12
-8 -12 -2 0 33 54 43 73 13z m967 11 c0 -5 -12 -10 -27 -10 l-28 -1 28 -15
c45 -24 32 -84 -19 -84 -24 0 -41 16 -30 28 4 3 16 0 27 -7 12 -7 24 -10 27
-6 11 10 -14 40 -37 43 -24 4 -24 3 -11 36 7 20 16 26 40 26 16 0 30 -4 30
-10z m88 -14 c2 -10 -6 -32 -18 -49 l-23 -30 26 7 c21 5 25 3 21 -9 -4 -10
-20 -15 -46 -15 l-40 0 26 31 c14 17 26 37 26 44 0 21 -19 28 -35 15 -18 -15
-20 1 -3 18 19 19 62 11 66 -12z m75 17 c-7 -2 -13 -14 -13 -25 0 -19 1 -19
23 -5 12 8 21 20 20 26 -2 6 11 11 30 11 l32 0 -38 -23 -38 -23 36 -37 36 -37
-36 0 c-20 0 -34 4 -31 9 3 4 -3 16 -14 26 -19 17 -20 17 -20 -3 0 -11 6 -23
13 -25 6 -3 -6 -5 -28 -5 -22 0 -34 2 -27 5 7 3 12 24 12 53 0 29 -5 50 -12
53 -7 3 5 5 27 5 22 0 34 -2 28 -5z m577 -107 c0 -3 -4 -8 -10 -11 -5 -3 -10
-1 -10 4 0 6 5 11 10 11 6 0 10 -2 10 -4z m-3795 -16 c3 -5 -1 -10 -10 -10 -9
0 -13 5 -10 10 3 6 8 10 10 10 2 0 7 -4 10 -10z m2390 0 c3 -5 -1 -10 -10 -10
-9 0 -13 5 -10 10 3 6 8 10 10 10 2 0 7 -4 10 -10z m1240 0 c3 -5 -1 -10 -10
-10 -9 0 -13 5 -10 10 3 6 8 10 10 10 2 0 7 -4 10 -10z m-4348 -426 c-3 -3
-12 -4 -19 -1 -8 3 -5 6 6 6 11 1 17 -2 13 -5z m3733 -4 c18 -12 2 -12 -25 0
-13 6 -15 9 -5 9 8 0 22 -4 30 -9z m110 0 c0 -5 -2 -10 -4 -10 -3 0 -8 5 -11
10 -3 6 -1 10 4 10 6 0 11 -4 11 -10z m-3766 -11 c-2 -4 -13 -5 -24 -2 -11 3
-20 0 -20 -5 0 -6 -13 -10 -30 -9 -16 1 -30 6 -30 11 0 4 9 6 20 3 11 -3 23
-1 26 4 3 5 18 8 34 7 16 -1 27 -5 24 -9z m36 -5 c0 -8 -5 -12 -10 -9 -6 4 -8
11 -5 16 9 14 15 11 15 -7z m30 1 c0 -8 -4 -15 -10 -15 -5 0 -10 7 -10 15 0 8
5 15 10 15 6 0 10 -7 10 -15z m40 0 c0 -8 -7 -15 -15 -15 -13 0 -14 3 -3 15
16 18 18 18 18 0z m1127 -7 c-3 -8 -6 -5 -6 6 -1 11 2 17 5 13 3 -3 4 -12 1
-19z m20 0 c-3 -8 -6 -5 -6 6 -1 11 2 17 5 13 3 -3 4 -12 1 -19z m1223 5 c0
-7 -10 -12 -24 -11 -17 2 -22 6 -16 13 13 16 40 15 40 -2z m17 -5 c-3 -8 -6
-5 -6 6 -1 11 2 17 5 13 3 -3 4 -12 1 -19z m1227 7 c3 -9 0 -15 -8 -15 -7 0
-13 7 -13 15 0 8 4 15 8 15 4 0 9 -7 13 -15z m109 -2 c-3 -7 -9 -13 -14 -13
-5 0 -9 6 -9 13 0 8 6 14 14 14 8 0 12 -6 9 -14z m57 2 c0 -8 -2 -15 -4 -15
-2 0 -6 7 -10 15 -3 8 -1 15 4 15 6 0 10 -7 10 -15z m-2720 -11 c0 -2 -7 -4
-15 -4 -8 0 -15 4 -15 10 0 5 7 7 15 4 8 -4 15 -8 15 -10z m43 -1 c-7 -2 -19
-2 -25 0 -7 3 -2 5 12 5 14 0 19 -2 13 -5z m1194 1 c-3 -3 -12 -4 -19 -1 -8 3
-5 6 6 6 11 1 17 -2 13 -5z m-2447 -248 c0 -34 5 -56 13 -59 6 -3 -6 -5 -28
-5 -22 0 -34 2 -27 5 7 2 12 22 12 44 0 24 -5 39 -12 39 -14 1 20 30 34 30 4
0 8 -24 8 -54z m92 -6 l3 -60 -35 1 c-19 0 -29 3 -22 6 6 2 12 22 12 43 0 21
-5 40 -12 43 -8 3 -3 9 12 15 38 16 38 16 42 -48z m96 3 c-24 -65 -26 -68 -33
-61 -3 2 1 26 9 52 l15 48 -30 -4 c-28 -4 -36 1 -22 15 3 4 23 7 44 7 l38 0
-21 -57z m1077 47 c-3 -5 -18 -10 -33 -11 -16 0 -21 -3 -12 -6 8 -3 23 -12 32
-20 15 -14 18 -13 24 11 8 34 51 47 71 21 7 -11 13 -31 13 -45 0 -41 -22 -64
-53 -56 -16 4 -27 13 -27 23 0 14 -4 13 -23 -5 -25 -23 -61 -29 -72 -11 -11
17 4 24 25 11 27 -16 30 -15 30 8 0 15 -9 22 -30 27 -35 6 -34 4 -18 38 9 20
18 25 45 25 20 0 32 -4 28 -10z m173 -47 c-24 -65 -26 -68 -33 -61 -3 2 1 26
9 52 l15 48 -30 -4 c-28 -4 -36 1 -22 15 3 4 23 7 44 7 l38 0 -21 -57z m1042
3 c0 -34 5 -56 13 -59 6 -3 -8 -6 -33 -6 -35 0 -41 2 -27 10 18 11 25 79 7 79
-5 0 -10 4 -10 9 0 8 16 16 43 20 4 0 7 -23 7 -53z m114 22 c13 -37 -3 -82
-29 -86 -34 -4 -50 14 -50 58 0 25 6 45 15 51 25 16 54 6 64 -23z m83 -28
c-12 -33 -25 -60 -29 -60 -11 0 -10 12 7 60 l15 42 -30 -4 c-29 -4 -37 1 -23
15 3 4 23 7 44 7 l38 0 -22 -60z m1043 6 c0 -34 5 -56 13 -59 6 -3 -6 -6 -27
-6 -31 -1 -37 2 -28 11 16 16 16 78 0 78 -14 1 20 30 34 30 4 0 8 -24 8 -54z
m110 17 l0 -38 18 35 c30 61 82 48 82 -20 0 -21 -7 -43 -15 -50 -19 -16 -62
-5 -68 18 -4 14 -6 14 -12 -5 -8 -26 -33 -30 -41 -8 -4 8 -15 15 -25 15 -10 0
-19 4 -19 10 0 13 60 80 71 80 5 0 9 -17 9 -37z m178 -23 c-11 -33 -24 -60
-29 -60 -12 0 -12 0 6 50 19 55 20 53 -15 48 -29 -4 -37 1 -23 15 3 4 23 7 44
7 l38 0 -21 -60z m-3368 -76 c0 -2 -9 -4 -21 -4 -11 0 -18 4 -14 10 5 8 35 3
35 -6z m60 6 c0 -5 -5 -10 -11 -10 -5 0 -7 5 -4 10 3 6 8 10 11 10 2 0 4 -4 4
-10z m1165 0 c3 -5 -1 -10 -10 -10 -9 0 -13 5 -10 10 3 6 8 10 10 10 2 0 7 -4
10 -10z"/>
<path d="M401 4174 c0 -11 3 -14 6 -6 3 7 2 16 -1 19 -3 4 -6 -2 -5 -13z"/>
<path d="M460 4180 c0 -12 28 -25 36 -17 3 3 -4 10 -15 17 -15 7 -21 7 -21 0z"/>
<path d="M841 4174 c0 -11 3 -14 6 -6 3 7 2 16 -1 19 -3 4 -6 -2 -5 -13z"/>
<path d="M990 4191 c0 -17 5 -31 10 -31 6 0 10 11 10 24 0 14 -4 28 -10 31 -6
4 -10 -7 -10 -24z"/>
<path d="M1231 4174 c0 -11 3 -14 6 -6 3 7 2 16 -1 19 -3 4 -6 -2 -5 -13z"/>
<path d="M1291 4174 c0 -11 3 -14 6 -6 3 7 2 16 -1 19 -3 4 -6 -2 -5 -13z"/>
<path d="M3730 4140 c0 -28 4 -40 14 -40 18 0 30 33 21 60 -12 37 -35 23 -35
-20z"/>
<path d="M4200 4125 c0 -14 5 -25 10 -25 6 0 10 11 10 25 0 14 -4 25 -10 25
-5 0 -10 -11 -10 -25z"/>
<path d="M4350 4140 c0 -5 5 -10 10 -10 6 0 10 5 10 10 0 6 -4 10 -10 10 -5 0
-10 -4 -10 -10z"/>
<path d="M3158 3513 c7 -3 16 -2 19 1 4 3 -2 6 -13 5 -11 0 -14 -3 -6 -6z"/>
<path d="M794 3176 c-8 -32 5 -77 24 -84 17 -5 16 69 -2 94 -14 18 -15 18 -22
-10z"/>
<path d="M945 3190 c-9 -15 3 -47 21 -54 8 -3 17 1 21 11 11 28 -27 68 -42 43z"/>
<path d="M942 3043 c2 -26 8 -38 18 -38 19 0 25 41 10 61 -21 24 -31 16 -28
-23z"/>
<path d="M2034 3155 c-6 -46 0 -142 11 -153 16 -17 26 24 23 103 -3 100 -22
127 -34 50z"/>
<path d="M2172 3107 l-22 -32 21 -3 c27 -5 31 0 27 37 l-3 30 -23 -32z"/>
<path d="M2322 3110 c-28 -37 -28 -40 3 -40 22 0 25 4 25 35 0 19 -1 35 -3 35
-2 0 -13 -13 -25 -30z"/>
<path d="M4364 3185 c-8 -19 26 -59 39 -46 14 14 4 55 -16 59 -9 2 -20 -4 -23
-13z"/>
<path d="M4360 3046 c0 -41 16 -55 38 -33 14 14 14 18 -2 41 -23 36 -36 32
-36 -8z"/>
<path d="M4812 3149 c3 -51 21 -78 30 -42 6 29 -6 86 -20 91 -10 3 -12 -9 -10
-49z"/>
<path d="M3090 2880 c0 -11 7 -20 15 -20 8 0 15 9 15 20 0 11 -7 20 -15 20 -8
0 -15 -9 -15 -20z"/>
<path d="M3320 2880 c0 -11 7 -20 15 -20 8 0 15 9 15 20 0 11 -7 20 -15 20 -8
0 -15 -9 -15 -20z"/>
<path d="M368 2075 c-14 -32 4 -78 29 -73 35 7 33 98 -2 98 -8 0 -21 -11 -27
-25z"/>
<path d="M510 2061 c0 -17 18 -21 24 -6 3 9 0 15 -9 15 -8 0 -15 -4 -15 -9z"/>
<path d="M1490 2035 c0 -19 5 -35 10 -35 6 0 10 16 10 35 0 19 -4 35 -10 35
-5 0 -10 -16 -10 -35z"/>
<path d="M910 2060 c0 -5 5 -10 10 -10 6 0 10 5 10 10 0 6 -4 10 -10 10 -5 0
-10 -4 -10 -10z"/>
<path d="M1056 2055 c4 -8 8 -15 10 -15 2 0 4 7 4 15 0 8 -4 15 -10 15 -5 0
-7 -7 -4 -15z"/>
<path d="M1397 2063 c-11 -10 -8 -51 3 -58 6 -4 10 8 10 29 0 37 -2 41 -13 29z"/>
<path d="M480 1396 c0 -9 5 -16 10 -16 6 0 10 4 10 9 0 6 -4 13 -10 16 -5 3
-10 -1 -10 -9z"/>
<path d="M470 1331 c0 -12 5 -21 10 -21 6 0 10 6 10 14 0 8 -4 18 -10 21 -5 3
-10 -3 -10 -14z"/>
<path d="M3035 1360 c-3 -5 -1 -10 4 -10 6 0 11 5 11 10 0 6 -2 10 -4 10 -3 0
-8 -4 -11 -10z"/>
<path d="M3140 1346 c0 -14 5 -28 10 -31 6 -4 10 7 10 24 0 17 -4 31 -10 31
-5 0 -10 -11 -10 -24z"/>
<path d="M1810 580 c0 -32 4 -49 10 -45 6 3 10 24 10 45 0 21 -4 42 -10 45 -6
4 -10 -13 -10 -45z"/>
<path d="M3050 580 c0 -32 4 -49 10 -45 6 3 10 24 10 45 0 21 -4 42 -10 45 -6
4 -10 -13 -10 -45z"/>
<path d="M4380 580 c0 -27 5 -50 10 -50 6 0 10 23 10 50 0 28 -4 50 -10 50 -5
0 -10 -22 -10 -50z"/>
<path d="M4275 580 c-3 -5 -1 -10 4 -10 6 0 11 5 11 10 0 6 -2 10 -4 10 -3 0
-8 -4 -11 -10z"/>
</g>
</svg>
