<?xml version="1.0" standalone="no"?>
<!DOCTYPE svg PUBLIC "-//W3C//DTD SVG 20010904//EN"
 "http://www.w3.org/TR/2001/REC-SVG-20010904/DTD/svg10.dtd">
<svg version="1.0" xmlns="http://www.w3.org/2000/svg"
 width="558.000000pt" height="403.000000pt" viewBox="0 0 558.000000 403.000000"
 preserveAspectRatio="xMidYMid meet">

<g transform="translate(0.000000,403.000000) scale(0.100000,-0.100000)"
fill="#000000" stroke="none">
<path d="M0 2015 l0 -2015 2790 0 2790 0 0 2015 0 2015 -2790 0 -2790 0 0
-2015z m2737 1758 c-39 -41 -52 -112 -32 -179 8 -29 20 -56 25 -59 6 -3 10
-18 10 -32 0 -15 14 -39 36 -61 l37 -37 28 35 c28 34 32 53 6 32 -18 -15 -30
-3 -16 15 9 10 7 13 -11 13 -16 0 -20 4 -16 15 3 9 -1 18 -10 22 -15 5 -15 7
0 15 9 5 14 13 11 19 -4 5 -1 9 6 9 8 0 6 7 -5 19 -11 13 -15 27 -11 44 7 25
8 25 30 11 27 -17 33 -11 39 40 3 25 1 36 -9 36 -7 0 -15 15 -17 35 -4 35 -4
36 26 29 74 -16 136 -70 173 -150 22 -48 25 -66 21 -123 -6 -76 -25 -120 -76
-174 -35 -36 -121 -77 -162 -77 -17 0 -18 3 -8 25 9 21 9 29 -4 42 -13 12 -16
12 -16 2 4 -76 -7 -82 -94 -49 -137 52 -207 219 -146 352 39 83 129 157 192
158 18 0 17 -3 -7 -27z m76 -78 c-3 -9 -8 -14 -10 -11 -3 3 -2 9 2 15 9 16 15
13 8 -4z m-897 -680 c4 -8 1 -21 -5 -29 -9 -10 -8 -15 4 -19 9 -4 19 2 26 14
13 24 52 22 57 -3 2 -13 -3 -18 -17 -18 -14 0 -19 -5 -14 -16 3 -8 12 -13 19
-10 8 3 14 1 14 -4 0 -14 -44 -12 -58 2 -9 9 -15 9 -24 0 -7 -7 -30 -12 -52
-12 l-41 0 0 55 0 55 43 0 c29 0 45 -5 48 -15z m134 -40 c0 -46 -3 -55 -17
-55 -15 0 -18 9 -18 55 0 46 3 55 17 55 15 0 18 -9 18 -55z m50 23 c0 -29 1
-30 13 -14 8 11 23 17 38 14 20 -2 24 -8 24 -38 0 -30 -4 -36 -24 -38 -15 -3
-30 3 -38 14 -12 16 -13 16 -13 1 0 -10 -8 -17 -20 -17 -18 0 -20 7 -20 55 0
48 2 55 20 55 16 0 20 -7 20 -32z m242 15 c22 -20 23 -42 2 -71 -23 -33 -83
-27 -103 9 -13 24 -13 29 2 53 21 31 70 36 99 9z m60 -38 c3 -50 1 -55 -17
-55 -18 0 -20 7 -20 55 0 45 3 55 17 55 13 0 17 -12 20 -55z m361 25 c8 0 8
-3 -1 -9 -8 -5 -12 -20 -10 -37 l4 -29 17 38 c14 33 21 38 44 35 25 -3 28 -7
28 -38 0 -29 -4 -36 -24 -38 -13 -2 -28 1 -34 7 -7 7 -14 7 -24 0 -21 -18 -43
-2 -43 31 0 35 23 81 28 55 2 -8 9 -15 15 -15z m137 15 c0 -8 7 -15 15 -15 8
0 19 -9 25 -20 17 -31 -4 -61 -40 -58 -27 2 -29 5 -32 55 -3 45 0 53 15 53 9
0 17 -7 17 -15z m90 5 c0 -5 -7 -10 -15 -10 -8 0 -15 5 -15 10 0 6 7 10 15 10
8 0 15 -4 15 -10z m113 3 c-8 -3 -13 -23 -13 -49 0 -36 3 -44 18 -44 10 0 23
5 30 12 9 9 12 8 12 -5 0 -14 -10 -17 -57 -16 -32 0 -52 3 -45 6 7 3 12 23 12
48 0 25 -5 45 -12 48 -7 3 5 5 27 5 22 0 34 -2 28 -5z m187 -24 c0 -18 4 -28
10 -24 6 4 8 11 5 16 -4 5 3 9 14 9 18 0 20 -3 9 -19 -9 -15 -9 -23 1 -35 22
-26 33 -18 29 19 l-4 36 60 -3 61 -3 3 -37 3 -38 -155 0 c-86 0 -156 3 -157 8
-7 69 -6 72 34 72 36 0 37 -1 37 -35 0 -19 5 -35 11 -35 7 0 10 18 7 50 -2 42
0 50 15 50 12 0 17 -8 17 -31z m-838 -36 l1 -38 4 38 c6 51 30 49 35 -3 l4
-41 -36 3 c-32 3 -35 6 -41 41 -5 31 -3 37 13 37 14 0 18 -8 20 -37z m139 15
l2 -23 4 23 c2 12 11 22 18 22 12 0 11 -5 -1 -27 -7 -16 -14 -34 -14 -40 0
-21 -18 -14 -26 10 l-7 22 -10 -22 c-11 -25 -27 -31 -27 -10 0 6 -7 24 -14 40
l-15 27 45 0 c39 0 44 -3 45 -22z m111 -18 c3 -39 3 -40 -29 -40 -38 0 -49 13
-28 33 10 11 11 17 3 19 -19 7 1 28 27 28 19 0 23 -6 27 -40z m290 0 c3 -35 1
-40 -17 -40 -17 0 -20 6 -20 40 0 30 4 40 16 40 12 0 18 -11 21 -40z m570 0
c3 -39 3 -40 -29 -40 -37 0 -49 13 -27 30 11 10 12 15 3 20 -17 11 -1 30 26
30 19 0 23 -6 27 -40z m99 -2 l6 -38 -41 0 -42 0 -1 41 -2 40 37 -3 c34 -3 37
-6 43 -40z m-1439 -138 c-3 -31 -1 -40 11 -40 9 0 21 8 26 18 9 15 10 15 11
-5 0 -20 -5 -23 -37 -23 l-38 0 0 45 c0 34 4 45 15 45 12 0 15 -9 12 -40z
m384 22 c1 -7 0 -8 -3 -2 -6 13 -33 13 -33 1 0 -5 9 -12 19 -16 23 -7 36 -34
22 -48 -12 -12 -44 -5 -47 11 -1 7 0 8 3 2 6 -12 33 -13 33 -1 0 5 -10 15 -22
23 -15 10 -19 20 -15 32 8 19 39 18 43 -2z m339 -9 c13 -16 25 -36 25 -47 0
-14 -8 -9 -31 20 -17 21 -36 42 -42 46 -8 5 -6 8 6 8 10 0 29 -12 42 -27z m32
21 c-3 -3 -12 -4 -19 -1 -8 3 -5 6 6 6 11 1 17 -2 13 -5z m33 -4 c0 -5 -2 -10
-4 -10 -3 0 -8 5 -11 10 -3 6 -1 10 4 10 6 0 11 -4 11 -10z m215 0 c3 -5 1
-10 -4 -10 -6 0 -11 5 -11 10 0 6 2 10 4 10 3 0 8 -4 11 -10z m-571 -48 c1
-41 -20 -42 -26 -2 -5 32 0 42 15 37 6 -2 11 -17 11 -35z m109 32 c3 -4 1 -16
-4 -27 -8 -15 -8 -22 2 -29 11 -7 9 -8 -6 -6 -13 2 -20 12 -21 28 -2 36 11 51
29 34z m-431 -34 c4 -27 2 -30 -24 -30 -18 0 -28 5 -28 15 0 18 16 20 23 3 3
-7 4 -3 4 8 -1 15 -6 20 -16 16 -9 -3 -12 -1 -7 6 15 24 44 13 48 -18z m68 15
c0 -9 -10 -20 -22 -25 l-23 -9 23 0 c33 -1 26 -36 -7 -36 -21 0 -24 5 -26 35
-2 45 1 50 31 50 15 0 24 -6 24 -15z m58 3 c9 -9 12 -9 12 0 0 7 9 12 20 12
11 0 20 -5 20 -11 0 -5 -6 -7 -12 -3 -10 6 -10 4 0 -7 18 -20 15 -39 -8 -39
-11 0 -20 4 -20 10 0 5 8 7 18 3 14 -5 15 -3 5 7 -10 11 -16 10 -32 -4 -24
-21 -51 -15 -51 12 0 32 25 43 48 20z m260 -21 c3 -23 0 -27 -22 -27 -26 0
-35 13 -17 24 5 4 11 0 14 -6 3 -7 4 -3 4 8 -1 15 -6 20 -16 16 -9 -4 -12 -1
-7 7 13 21 41 8 44 -22z m100 15 c2 -7 -5 -12 -15 -12 -17 -1 -17 -1 1 -15 19
-15 19 -15 -1 -15 -25 0 -38 27 -22 47 13 15 31 13 37 -5z m194 -12 c3 -20 0
-30 -9 -30 -8 0 -13 12 -13 30 0 17 4 30 9 30 5 0 11 -13 13 -30z m68 15 c0
-9 -10 -20 -22 -25 l-23 -9 23 0 c33 -1 26 -36 -7 -36 -21 0 -24 5 -26 35 -2
45 1 50 31 50 15 0 24 -6 24 -15z m58 -2 c2 -7 -3 -13 -12 -13 -9 0 -16 -4
-16 -9 0 -6 9 -9 20 -8 13 1 20 8 20 22 0 18 6 22 38 23 37 2 39 0 39 -28 0
-19 -6 -30 -14 -30 -9 0 -12 8 -9 24 4 20 1 23 -16 18 -13 -3 -18 -11 -15 -23
4 -15 -1 -18 -35 -17 -41 0 -55 15 -44 44 7 18 37 15 44 -3z m150 -15 c3 -24
0 -28 -22 -28 -16 0 -26 6 -26 15 0 8 5 15 11 15 5 0 7 -6 3 -12 -4 -7 -3 -9
1 -5 15 13 14 36 -1 30 -8 -3 -14 0 -14 7 0 6 10 10 23 8 16 -2 23 -11 25 -30z
m-434 -17 c3 -5 0 -14 -7 -19 -10 -8 -13 -6 -14 9 -2 19 11 26 21 10z m63 -7
c-3 -3 -12 -4 -19 -1 -8 3 -5 6 6 6 11 1 17 -2 13 -5z m-967 -204 c0 -5 18
-10 40 -10 26 0 43 -6 50 -17 11 -17 11 -17 6 0 -4 13 0 17 19 17 19 0 25 -5
26 -22 1 -18 3 -16 10 10 12 41 32 45 28 5 0 -4 8 -10 18 -14 17 -7 17 -8 1
-8 -10 -1 -18 -6 -18 -11 0 -6 -27 -10 -66 -9 -56 1 -67 5 -71 20 -3 10 -9 16
-14 14 -4 -3 -6 -12 -2 -20 3 -9 -1 -15 -10 -15 -10 0 -13 7 -10 18 5 19 -23
50 -34 38 -3 -3 -1 -6 5 -6 7 0 12 -7 12 -15 0 -8 -5 -15 -11 -15 -5 0 -7 -4
-4 -10 3 -5 -2 -10 -13 -10 -15 0 -18 7 -18 35 1 31 4 35 29 35 15 0 27 -4 27
-10z m280 0 c0 -5 11 -10 25 -10 14 0 25 -5 25 -12 0 -6 8 -1 19 10 25 29 28
28 33 -13 l4 -35 -86 0 -85 0 0 35 c0 33 2 35 33 35 17 0 32 -4 32 -10z m207
-2 c5 -8 32 -13 76 -13 47 0 67 4 67 13 0 6 7 12 15 12 8 0 15 -4 15 -10 0 -5
9 -10 20 -10 11 0 20 -6 20 -12 0 -10 2 -10 8 -1 9 14 84 13 94 -1 5 -7 8 -7
8 2 0 6 10 12 21 12 18 0 19 -3 9 -15 -6 -8 -9 -19 -5 -25 3 -5 -1 -10 -9 -10
-9 0 -16 5 -16 10 0 6 -8 10 -17 10 -16 0 -16 -2 -3 -11 12 -8 9 -9 -12 -5
-17 4 -32 1 -42 -9 -20 -20 -26 -19 -27 8 0 12 -3 16 -6 10 -3 -8 -24 -13 -55
-13 -39 0 -54 5 -68 23 l-19 22 6 -22 c7 -28 -13 -31 -22 -3 -5 16 -9 17 -20
7 -7 -6 -9 -15 -4 -18 5 -3 -14 -6 -43 -7 l-53 -1 0 34 c0 31 3 35 27 35 15 0
31 -6 35 -12z m543 -22 l0 -34 -75 -1 c-74 -1 -75 -1 -75 24 0 23 4 25 45 25
25 0 45 -5 45 -10 0 -6 8 -5 19 2 11 7 17 16 15 20 -3 4 2 8 10 8 11 0 16 -10
16 -34z m96 20 c3 -8 15 -11 30 -8 20 4 24 1 24 -22 0 -19 -5 -26 -20 -26 -12
0 -20 7 -20 18 -1 16 -1 16 -11 0 -6 -10 -22 -18 -37 -18 -24 0 -27 4 -27 35
0 32 3 35 28 35 15 0 30 -6 33 -14z m109 -6 c16 0 24 -7 27 -25 5 -23 2 -25
-33 -25 -36 0 -39 2 -39 28 0 30 12 51 18 33 2 -6 14 -11 27 -11z m109 -12
c12 -28 14 -30 15 -10 1 17 7 22 26 22 19 0 25 -6 26 -22 l2 -23 4 23 c5 26
40 30 46 5 2 -10 3 -6 2 10 -1 17 3 27 12 27 7 0 13 -4 13 -10 0 -6 31 -10 74
-10 65 0 74 -2 79 -19 7 -28 1 -31 -57 -31 -31 0 -46 4 -38 9 10 6 10 10 -2
20 -12 10 -15 7 -21 -19 -4 -19 -13 -30 -23 -30 -13 0 -14 2 -4 8 9 6 10 15 3
33 -10 24 -10 24 -10 2 -1 -22 -5 -23 -87 -23 -54 0 -83 4 -79 10 3 6 1 10 -4
10 -6 0 -11 -4 -11 -10 0 -5 -6 -10 -14 -10 -11 0 -11 6 2 35 20 43 28 44 46
3z m263 26 c-3 -3 -12 -4 -19 -1 -8 3 -5 6 6 6 11 1 17 -2 13 -5z m-1731 -15
c3 -6 1 -16 -6 -22 -10 -9 -12 -8 -7 5 3 9 1 19 -6 22 -9 3 -9 5 0 5 6 1 15
-4 19 -10z m1859 2 c3 -5 0 -13 -6 -17 -7 -4 -9 -3 -5 4 3 5 0 13 -6 15 -9 4
-10 6 -1 6 6 1 14 -3 18 -8z m-1395 -271 c0 -5 -8 -7 -17 -4 -15 5 -15 3 1
-10 11 -9 22 -12 25 -8 3 5 24 9 46 9 22 0 34 -2 28 -4 -7 -3 -13 -11 -13 -19
0 -9 5 -12 10 -9 6 3 10 1 10 -4 0 -14 -27 -14 -35 -1 -3 6 -12 10 -18 10 -7
0 -6 -4 3 -10 12 -8 11 -10 -7 -10 -13 0 -23 6 -24 13 0 10 -2 10 -6 0 -6 -16
-53 -17 -53 -2 0 6 9 8 23 4 22 -6 22 -6 -2 13 -13 11 -21 24 -17 31 9 13 46
15 46 1z m250 -24 l0 -34 -72 -1 c-72 -1 -92 8 -81 36 6 15 93 18 93 3 0 -6 8
-5 19 2 11 7 17 16 15 20 -3 4 2 8 10 8 11 0 16 -10 16 -34z m72 -1 c-3 -26
-9 -35 -23 -35 -10 0 -19 5 -19 10 0 6 5 10 11 10 7 0 9 10 7 25 -4 19 -1 25
11 25 13 0 16 -7 13 -35z m99 14 c28 -33 14 -49 -40 -47 -38 3 -46 6 -46 23 0
14 6 20 23 19 12 0 22 5 22 13 0 20 20 16 41 -8z m105 8 c3 -9 18 -12 44 -10
32 2 40 0 41 -15 1 -16 2 -15 6 1 4 16 15 18 90 16 64 -1 87 2 94 12 8 12 10
12 18 0 7 -10 27 -14 70 -13 58 1 61 0 61 -23 0 -20 -5 -25 -26 -25 -17 0 -23
4 -18 13 6 9 5 9 -7 0 -9 -8 -37 -11 -68 -9 -35 2 -57 -2 -66 -11 -16 -15 -39
-18 -30 -3 3 6 -1 10 -9 10 -9 0 -16 9 -16 20 0 11 -4 20 -10 20 -5 0 -10 -9
-10 -19 0 -18 -8 -20 -112 -19 l-113 0 0 34 c0 31 3 34 28 34 15 0 30 -6 33
-13z m-168 -273 c8 -15 10 -15 15 0 4 11 19 16 44 16 28 0 34 -3 23 -10 -8 -5
-23 -7 -32 -4 -14 4 -18 0 -18 -20 0 -14 5 -26 11 -26 5 0 7 5 4 10 -3 6 1 10
9 10 9 0 16 3 16 8 0 4 13 13 30 20 25 12 32 11 44 -1 15 -15 80 -11 70 4 -11
18 19 8 37 -12 36 -41 17 -50 -112 -48 -66 0 -122 5 -125 11 -3 5 -14 2 -25
-8 -17 -15 -19 -15 -19 -1 0 9 5 19 10 22 15 9 2 25 -21 25 -18 0 -20 -4 -13
-32 6 -29 5 -31 -10 -19 -32 26 -13 71 31 71 12 0 26 -7 31 -16z m-238 -264
c0 -6 28 -10 65 -10 43 0 65 4 65 12 0 24 12 -2 14 -31 l2 -31 -53 0 c-46 0
-55 3 -63 23 l-9 22 0 -22 c-1 -13 -7 -23 -15 -23 -9 0 -12 7 -9 18 2 10 -3
24 -11 31 -11 9 -16 10 -16 2 0 -6 6 -11 13 -11 9 0 8 -3 -2 -9 -7 -5 -10 -14
-7 -20 4 -6 0 -11 -11 -11 -14 0 -18 8 -18 35 0 32 3 35 28 35 15 0 27 -4 27
-10z m230 0 c0 -5 11 -10 25 -10 14 0 25 -5 25 -12 0 -6 8 -1 19 10 25 29 28
28 33 -13 l4 -35 -78 0 c-45 0 -78 4 -78 10 0 6 -8 11 -17 11 -17 1 -17 2 0 6
9 2 17 13 17 24 0 14 7 19 25 19 14 0 25 -4 25 -10z m175 -2 c4 -9 23 -12 61
-9 39 2 59 -1 66 -10 7 -10 8 -8 5 9 -5 23 18 33 25 10 3 -8 32 -11 89 -11 46
1 78 -1 72 -4 -7 -2 -13 -14 -13 -25 0 -16 -6 -19 -32 -18 -50 3 -60 1 -53
-10 3 -5 -1 -10 -9 -10 -9 0 -16 6 -16 13 0 8 -14 11 -45 9 -25 -2 -52 1 -59
7 -11 9 -15 9 -20 -1 -5 -10 -7 -10 -12 0 -3 6 -10 12 -15 12 -6 0 -7 -4 -4
-10 3 -5 -1 -10 -9 -10 -9 0 -16 5 -16 12 0 9 -3 9 -12 0 -7 -7 -21 -12 -32
-12 -17 0 -21 6 -21 35 0 30 3 35 23 35 12 0 25 -6 27 -12z m-173 -288 c-5
-34 17 -43 25 -10 4 15 14 20 39 20 19 0 34 5 34 10 0 21 20 9 21 -12 0 -13 3
-17 6 -10 8 21 21 13 17 -10 -4 -22 -4 -22 6 1 6 14 16 21 25 17 8 -3 21 1 29
9 8 8 25 15 38 15 18 0 20 -2 8 -10 -11 -7 -7 -10 17 -10 23 0 33 -6 38 -21 4
-11 5 -22 3 -24 -1 -1 -94 -5 -205 -7 l-203 -4 0 38 0 38 53 0 54 0 -5 -30z
m-37 -260 c8 13 105 13 105 0 0 -14 74 -12 88 2 9 9 12 9 12 -1 0 -11 3 -11
15 -1 10 9 15 9 15 1 0 -6 17 -11 39 -11 36 0 38 -2 33 -25 -4 -26 -5 -26
-103 -24 -84 1 -99 4 -99 18 0 9 -5 23 -11 31 -8 12 -9 7 -6 -17 3 -26 0 -33
-13 -33 -12 0 -16 7 -12 28 3 21 0 29 -12 29 -9 0 -16 -5 -16 -10 0 -17 -32
-47 -50 -47 -11 0 -17 10 -18 37 -2 31 -1 34 12 24 10 -8 16 -9 21 -1z m15
-260 c0 -14 87 -13 96 1 5 8 9 8 14 -1 5 -8 43 -12 123 -11 114 0 115 0 120
-24 4 -24 2 -25 -54 -25 -53 0 -59 2 -59 21 0 12 -4 17 -11 14 -6 -4 -8 -13
-5 -21 3 -8 -1 -14 -9 -14 -8 0 -15 -4 -15 -10 0 -13 -33 -13 -47 1 -12 12
-95 14 -188 4 -69 -8 -81 -1 -71 40 5 19 14 25 44 28 20 2 43 4 50 5 6 1 12
-2 12 -8z m-10 -280 c0 5 11 10 25 10 14 0 25 -5 25 -11 0 -5 -5 -7 -11 -4 -6
4 -10 1 -8 -6 4 -32 -2 -49 -17 -49 -8 0 -12 5 -9 10 3 6 2 10 -3 10 -6 0 -12
-7 -16 -15 -11 -29 -26 -15 -23 20 4 29 2 33 -9 24 -8 -7 -11 -21 -8 -35 7
-26 -5 -31 -24 -12 -19 19 -14 45 10 62 20 14 24 14 45 1 13 -9 23 -11 23 -5z
m192 -2 c3 -7 24 -11 54 -11 27 1 53 -4 57 -11 5 -6 7 -2 4 12 -3 15 0 22 9
22 8 0 14 -4 14 -10 0 -5 8 -10 17 -10 13 0 14 -3 5 -12 -8 -8 -8 -15 -1 -24
8 -9 -24 -12 -145 -12 -154 0 -156 0 -152 21 3 19 10 22 57 23 29 1 55 7 57
13 5 14 19 14 24 -1z m-229 -280 c8 -12 7 -21 -2 -32 -19 -23 -58 -20 -66 4
-14 43 44 67 68 28z m148 0 c11 -12 19 -15 19 -8 0 7 8 10 20 7 12 -3 24 1 30
11 5 10 10 12 10 5 0 -9 24 -13 85 -13 70 0 87 -3 92 -16 4 -10 0 -22 -10 -29
-9 -7 -14 -15 -10 -18 3 -4 -1 -7 -10 -7 -8 0 -18 6 -21 13 -5 10 -7 10 -12 0
-11 -24 -31 -14 -29 15 1 15 0 19 -2 10 -4 -16 -17 -18 -99 -18 l-94 0 -1 28
c-1 27 -1 27 -8 3 -7 -27 -31 -41 -31 -19 0 10 -3 9 -10 -2 -11 -18 -18 -11
-30 29 l-9 31 51 0 c39 0 55 -5 69 -22z"/>
<path d="M2805 3380 c3 -5 13 -10 21 -10 8 0 12 5 9 10 -3 6 -13 10 -21 10 -8
0 -12 -4 -9 -10z"/>
<path d="M1860 3000 c0 -11 4 -20 9 -20 11 0 22 26 14 34 -12 12 -23 5 -23
-14z"/>
<path d="M1965 2980 c-3 -5 -1 -10 4 -10 6 0 11 5 11 10 0 6 -2 10 -4 10 -3 0
-8 -4 -11 -10z"/>
<path d="M1860 2949 c0 -24 23 -21 28 4 2 10 -3 17 -12 17 -10 0 -16 -9 -16
-21z"/>
<path d="M2135 2978 c-4 -10 -4 -26 0 -35 8 -17 8 -17 12 0 3 9 3 25 0 35 -4
16 -4 16 -12 0z"/>
<path d="M2274 3007 c-3 -9 -4 -28 -2 -44 2 -20 8 -28 23 -28 17 0 20 7 20 40
0 30 -4 41 -18 43 -9 2 -20 -3 -23 -11z"/>
<path d="M2805 2978 c-4 -10 -4 -26 0 -35 8 -17 8 -17 12 0 3 9 3 25 0 35 -4
16 -4 16 -12 0z"/>
<path d="M2900 2963 c0 -18 2 -33 4 -33 9 0 13 39 5 51 -6 10 -9 4 -9 -18z"/>
<path d="M3202 2965 c0 -16 2 -22 5 -12 2 9 2 23 0 30 -3 6 -5 -1 -5 -18z"/>
<path d="M3437 2983 c-11 -10 -8 -53 3 -53 6 0 9 14 8 30 -3 33 -2 33 -11 23z"/>
<path d="M3392 2955 c0 -16 2 -22 5 -12 2 9 2 23 0 30 -3 6 -5 -1 -5 -18z"/>
<path d="M3290 2940 c0 -5 5 -10 11 -10 5 0 7 5 4 10 -3 6 -8 10 -11 10 -2 0
-4 -4 -4 -10z"/>
<path d="M2545 2980 c3 -5 8 -10 11 -10 2 0 4 5 4 10 0 6 -5 10 -11 10 -5 0
-7 -4 -4 -10z"/>
<path d="M3622 2960 c0 -19 2 -27 5 -17 2 9 2 25 0 35 -3 9 -5 1 -5 -18z"/>
<path d="M2360 2810 c0 -5 5 -10 10 -10 6 0 10 5 10 10 0 6 -4 10 -10 10 -5 0
-10 -4 -10 -10z"/>
<path d="M2368 2753 c7 -3 16 -2 19 1 4 3 -2 6 -13 5 -11 0 -14 -3 -6 -6z"/>
<path d="M2430 2800 c0 -19 3 -21 12 -12 9 9 9 15 0 24 -9 9 -12 7 -12 -12z"/>
<path d="M3040 2810 c0 -5 5 -10 10 -10 6 0 10 5 10 10 0 6 -4 10 -10 10 -5 0
-10 -4 -10 -10z"/>
<path d="M3048 2753 c7 -3 16 -2 19 1 4 3 -2 6 -13 5 -11 0 -14 -3 -6 -6z"/>
<path d="M2011 2534 c0 -11 3 -14 6 -6 3 7 2 16 -1 19 -3 4 -6 -2 -5 -13z"/>
<path d="M2190 2559 c0 -5 5 -7 10 -4 6 3 10 -1 10 -10 0 -9 -4 -13 -10 -10
-5 3 -10 1 -10 -4 0 -13 20 -14 38 -2 11 6 10 11 -3 25 -19 18 -35 21 -35 5z"/>
<path d="M2400 2545 c0 -15 4 -24 10 -20 6 3 10 12 10 20 0 8 -4 17 -10 20 -6
4 -10 -5 -10 -20z"/>
<path d="M2681 2534 c0 -11 3 -14 6 -6 3 7 2 16 -1 19 -3 4 -6 -2 -5 -13z"/>
<path d="M2871 2534 c0 -11 3 -14 6 -6 3 7 2 16 -1 19 -3 4 -6 -2 -5 -13z"/>
<path d="M3040 2545 c0 -15 4 -24 10 -20 6 3 10 12 10 20 0 8 -4 17 -10 20 -6
4 -10 -5 -10 -20z"/>
<path d="M3161 2534 c0 -11 3 -14 6 -6 3 7 2 16 -1 19 -3 4 -6 -2 -5 -13z"/>
<path d="M3560 2530 c0 -5 5 -10 11 -10 5 0 7 5 4 10 -3 6 -8 10 -11 10 -2 0
-4 -4 -4 -10z"/>
<path d="M2431 2254 c0 -11 3 -14 6 -6 3 7 2 16 -1 19 -3 4 -6 -2 -5 -13z"/>
<path d="M2641 2254 c0 -11 3 -14 6 -6 3 7 2 16 -1 19 -3 4 -6 -2 -5 -13z"/>
<path d="M2780 2265 c0 -15 4 -24 10 -20 6 3 10 12 10 20 0 8 -4 17 -10 20 -6
4 -10 -5 -10 -20z"/>
<path d="M2930 2257 c0 -8 7 -14 15 -14 8 0 15 6 15 14 0 7 -7 13 -15 13 -8 0
-15 -6 -15 -13z"/>
<path d="M3021 2254 c0 -11 3 -14 6 -6 3 7 2 16 -1 19 -3 4 -6 -2 -5 -13z"/>
<path d="M3051 2254 c0 -11 3 -14 6 -6 3 7 2 16 -1 19 -3 4 -6 -2 -5 -13z"/>
<path d="M3161 2254 c0 -11 3 -14 6 -6 3 7 2 16 -1 19 -3 4 -6 -2 -5 -13z"/>
<path d="M2860 2250 c-12 -8 -10 -10 8 -10 13 0 20 4 17 10 -7 12 -6 12 -25 0z"/>
<path d="M2741 1984 c0 -11 3 -14 6 -6 3 7 2 16 -1 19 -3 4 -6 -2 -5 -13z"/>
<path d="M2625 1725 c0 -26 9 -32 21 -14 3 6 0 17 -7 25 -12 11 -14 9 -14 -11z"/>
<path d="M2792 1720 c0 -14 2 -19 5 -12 2 6 2 18 0 25 -3 6 -5 1 -5 -13z"/>
<path d="M3031 1714 c0 -11 3 -14 6 -6 3 7 2 16 -1 19 -3 4 -6 -2 -5 -13z"/>
<path d="M2551 1444 c0 -11 3 -14 6 -6 3 7 2 16 -1 19 -3 4 -6 -2 -5 -13z"/>
<path d="M2571 1444 c0 -11 3 -14 6 -6 3 7 2 16 -1 19 -3 4 -6 -2 -5 -13z"/>
<path d="M2591 1444 c0 -11 3 -14 6 -6 3 7 2 16 -1 19 -3 4 -6 -2 -5 -13z"/>
<path d="M2691 1444 c0 -11 3 -14 6 -6 3 7 2 16 -1 19 -3 4 -6 -2 -5 -13z"/>
<path d="M2761 1164 c0 -11 3 -14 6 -6 3 7 2 16 -1 19 -3 4 -6 -2 -5 -13z"/>
<path d="M2811 1164 c0 -11 3 -14 6 -6 3 7 2 16 -1 19 -3 4 -6 -2 -5 -13z"/>
<path d="M2524 915 c-8 -21 2 -32 31 -32 21 0 25 4 23 20 -4 24 -46 34 -54 12z
m23 -10 c0 -8 -4 -12 -9 -9 -4 3 -8 9 -8 15 0 5 4 9 8 9 5 0 9 -7 9 -15z m20
-7 c-3 -8 -6 -5 -6 6 -1 11 2 17 5 13 3 -3 4 -12 1 -19z"/>
<path d="M2621 904 c0 -11 3 -14 6 -6 3 7 2 16 -1 19 -3 4 -6 -2 -5 -13z"/>
<path d="M2670 900 c0 -5 5 -10 11 -10 5 0 7 5 4 10 -3 6 -8 10 -11 10 -2 0
-4 -4 -4 -10z"/>
<path d="M2798 893 c7 -3 16 -2 19 1 4 3 -2 6 -13 5 -11 0 -14 -3 -6 -6z"/>
<path d="M2720 630 c0 -5 5 -10 10 -10 6 0 10 5 10 10 0 6 -4 10 -10 10 -5 0
-10 -4 -10 -10z"/>
<path d="M2801 624 c0 -11 3 -14 6 -6 3 7 2 16 -1 19 -3 4 -6 -2 -5 -13z"/>
<path d="M2514 375 c-4 -9 -2 -21 4 -27 16 -16 47 -5 47 17 0 26 -42 34 -51
10z m41 -23 c-7 -8 -35 7 -35 18 0 6 7 6 20 -2 10 -7 17 -14 15 -16z"/>
<path d="M2631 374 c0 -11 3 -14 6 -6 3 7 2 16 -1 19 -3 4 -6 -2 -5 -13z"/>
<path d="M2830 360 c0 -5 5 -10 11 -10 5 0 7 5 4 10 -3 6 -8 10 -11 10 -2 0
-4 -4 -4 -10z"/>
<path d="M2951 354 c0 -11 3 -14 6 -6 3 7 2 16 -1 19 -3 4 -6 -2 -5 -13z"/>
<path d="M2800 350 c0 -5 5 -10 11 -10 5 0 7 5 4 10 -3 6 -8 10 -11 10 -2 0
-4 -4 -4 -10z"/>
</g>
</svg>
