<?xml version="1.0" standalone="no"?>
<!DOCTYPE svg PUBLIC "-//W3C//DTD SVG 20010904//EN"
 "http://www.w3.org/TR/2001/REC-SVG-20010904/DTD/svg10.dtd">
<svg version="1.0" xmlns="http://www.w3.org/2000/svg"
 width="749.000000pt" height="415.000000pt" viewBox="0 0 749.000000 415.000000"
 preserveAspectRatio="xMidYMid meet">

<g transform="translate(0.000000,415.000000) scale(0.100000,-0.100000)"
fill="#000000" stroke="none">
<path d="M0 3820 l0 -320 3745 0 3745 0 0 320 0 320 -3745 0 -3745 0 0 -320z
m7210 190 c4 -14 4 -36 0 -50 -5 -20 -13 -25 -36 -25 -25 0 -30 4 -32 29 -2
15 -1 39 3 53 8 34 56 29 65 -7z m-100 -91 l0 -32 -65 6 c-51 4 -63 2 -55 -7
5 -7 13 -30 18 -52 l8 -39 54 -1 c52 -1 52 -1 8 3 -61 5 -63 23 -3 23 39 0 47
3 55 25 7 18 17 25 35 25 24 0 25 -2 25 -68 0 -104 -9 -112 -130 -112 -129 0
-130 1 -130 130 0 125 4 130 106 130 l74 0 0 -31z m-6506 -11 c6 -4 -4 -8 -21
-8 -32 0 -32 1 -15 20 12 14 18 17 21 8 2 -7 9 -16 15 -20z m-22 -58 c-2 -17
-8 -33 -14 -36 -5 -3 -6 6 -2 23 12 50 23 59 16 13z m1958 10 c0 -11 4 -20 9
-20 5 0 11 9 14 20 7 26 37 26 37 1 0 -11 5 -23 10 -26 6 -4 10 5 10 19 0 17
5 26 16 26 10 0 14 -6 11 -14 -3 -8 -9 -31 -13 -50 -7 -42 -31 -48 -40 -11 -8
31 -22 32 -26 3 -5 -39 -35 -34 -42 7 -4 20 -10 43 -13 51 -3 8 1 14 11 14 9
0 16 -8 16 -20z m220 -7 c0 -25 1 -25 13 -9 15 20 48 19 55 -3 3 -9 -2 -11
-17 -6 -17 5 -21 2 -21 -15 0 -17 4 -19 28 -14 24 7 26 6 13 -9 -16 -20 -42
-22 -59 -5 -9 9 -12 9 -12 0 0 -7 -7 -12 -15 -12 -11 0 -15 12 -15 50 0 38 4
50 15 50 10 0 15 -10 15 -27z m450 -13 c-13 -8 -13 -13 -2 -31 15 -23 10 -34
-11 -26 -18 7 -28 68 -14 85 8 11 13 10 26 -3 14 -14 14 -17 1 -25z m215 10
c0 -18 -6 -26 -22 -28 -15 -2 -23 -10 -23 -23 0 -10 -7 -19 -15 -19 -11 0 -15
12 -15 51 l0 50 38 -3 c32 -3 37 -6 37 -28z m45 21 c0 -5 10 -11 23 -13 18 -2
23 -10 25 -40 2 -29 0 -38 -12 -38 -11 0 -16 9 -16 30 0 17 -4 30 -10 30 -5 0
-10 -13 -10 -30 0 -16 -4 -30 -10 -30 -5 0 -10 23 -10 50 0 28 5 50 10 50 6 0
10 -4 10 -9z m427 3 c-3 -3 -12 -4 -19 -1 -8 3 -5 6 6 6 11 1 17 -2 13 -5z
m46 -6 c3 -10 8 -10 21 2 16 12 19 12 27 -2 6 -10 17 -14 35 -10 16 3 29 -1
35 -9 16 -25 9 -39 -18 -40 l-28 -1 30 -8 c40 -9 14 -21 -40 -17 -35 2 -40 5
-43 30 -2 15 -8 27 -14 27 -6 0 -8 -12 -4 -31 5 -25 3 -30 -12 -27 -9 2 -20
16 -23 33 l-7 30 -1 -32 c-1 -22 -6 -33 -16 -33 -11 0 -15 11 -15 40 0 33 3
40 19 40 11 0 23 5 26 10 9 14 22 13 28 -2z m340 0 c2 -7 4 -29 3 -48 -1 -34
-2 -35 -43 -38 l-43 -3 0 50 0 51 39 0 c22 0 41 -5 44 -12z m297 2 c0 -5 7
-10 15 -10 9 0 19 -10 24 -22 l8 -23 7 23 c4 12 12 22 17 22 12 0 12 -9 -7
-63 -12 -37 -21 -47 -37 -47 -16 0 -18 3 -9 9 15 9 7 81 -9 81 -16 0 -23 -32
-8 -40 17 -11 5 -24 -14 -17 -18 7 -28 68 -15 85 12 15 28 16 28 2z m205 -20
c0 -18 -6 -26 -22 -28 -15 -2 -23 -10 -23 -23 0 -10 -7 -19 -15 -19 -11 0 -15
12 -15 51 l0 50 38 -3 c32 -3 37 -6 37 -28z m125 -20 c0 -27 -4 -50 -10 -50
-5 0 -10 23 -10 50 0 28 5 50 10 50 6 0 10 -22 10 -50z m2177 15 c-9 -9 -16
-10 -25 -2 -16 12 3 28 24 20 10 -4 10 -8 1 -18z m-4379 3 c20 -20 13 -38 -15
-39 -24 -2 -25 -2 -5 -6 32 -6 27 -25 -5 -21 -29 3 -41 32 -29 64 7 17 38 18
54 2z m196 6 c9 -4 16 -18 16 -34 0 -43 -54 -57 -69 -17 -16 41 12 67 53 51z
m134 -36 c2 -22 -1 -38 -7 -38 -6 0 -11 14 -11 30 0 17 -4 30 -10 30 -5 0 -10
-14 -10 -31 0 -20 -4 -29 -12 -26 -7 2 -13 13 -13 25 0 11 -3 24 -7 28 -5 4
-8 -7 -8 -24 0 -22 -5 -32 -15 -32 -11 0 -15 11 -15 40 l0 40 53 -2 52 -3 3
-37z m80 30 c20 -20 13 -38 -15 -39 -24 -2 -25 -2 -5 -6 32 -6 27 -25 -5 -21
-29 3 -41 32 -29 64 7 17 38 18 54 2z m176 -10 c8 -13 8 -23 0 -35 -28 -45
-89 -9 -64 38 13 24 48 22 64 -3z m266 -8 c0 -16 5 -30 10 -30 6 0 10 14 10
30 0 17 5 30 10 30 6 0 10 -18 10 -40 0 -37 -2 -40 -29 -40 -30 0 -41 14 -41
56 0 15 6 24 15 24 10 0 15 -10 15 -30z m168 -13 c2 -28 0 -37 -12 -37 -11 0
-16 10 -16 31 0 17 -4 28 -10 24 -5 -3 -10 -17 -10 -31 0 -13 -4 -24 -10 -24
-5 0 -10 14 -10 30 0 17 -4 30 -10 30 -5 0 -10 -13 -10 -30 0 -16 -4 -30 -10
-30 -5 0 -10 18 -10 40 l0 40 53 -3 52 -2 3 -38z m124 29 c14 -20 9 -66 -7
-66 -10 0 -15 10 -15 31 0 17 -4 28 -10 24 -5 -3 -10 -17 -10 -31 0 -13 -4
-24 -10 -24 -5 0 -10 14 -10 30 0 17 -4 30 -10 30 -5 0 -10 -13 -10 -30 0 -16
-4 -30 -9 -30 -9 0 -20 67 -13 75 9 9 97 1 104 -9z m292 -2 c11 -28 7 -34 -21
-35 l-28 -1 30 -8 c24 -5 27 -8 13 -14 -40 -18 -71 16 -54 60 7 19 52 18 60
-2z m220 0 c11 -28 7 -34 -21 -35 l-28 -1 30 -8 c24 -5 27 -8 13 -14 -40 -18
-71 16 -54 60 7 19 52 18 60 -2z m84 -27 c3 -38 3 -38 -30 -35 -40 4 -49 30
-16 46 l23 11 -23 0 c-14 1 -20 5 -17 12 4 5 19 9 33 7 23 -3 27 -8 30 -41z
m42 12 c0 -17 4 -28 10 -24 6 3 10 17 10 31 0 13 5 24 10 24 6 0 10 -18 10
-41 0 -39 -1 -40 -32 -37 -30 3 -33 6 -36 41 -2 28 0 37 12 37 11 0 16 -10 16
-31z m378 -12 c3 -38 3 -38 -29 -35 -42 4 -48 23 -12 42 27 14 27 15 5 16 -14
0 -20 4 -17 11 4 5 17 9 28 7 18 -2 23 -11 25 -41z m120 0 c3 -38 3 -38 -29
-35 -42 4 -48 23 -12 42 26 14 26 15 6 16 -13 0 -23 5 -23 11 0 6 12 9 28 7
23 -3 27 -8 30 -41z m80 25 c2 -8 -5 -11 -20 -10 -15 2 -23 -2 -23 -12 0 -10
8 -14 23 -12 27 2 25 -21 -2 -26 -37 -7 -60 40 -34 66 15 15 50 12 56 -6z m70
6 c20 -20 13 -38 -15 -39 l-28 -1 30 -8 c24 -5 27 -8 13 -14 -40 -18 -71 16
-54 60 7 17 38 18 54 2z m77 2 c3 -6 -4 -10 -17 -11 l-23 0 25 -10 c31 -13 32
-13 24 -33 -3 -9 -17 -16 -29 -16 -31 0 -43 20 -13 21 l23 0 -22 11 c-23 11
-29 28 -16 41 10 10 41 8 48 -3z"/>
<path d="M7168 4002 c-6 -25 2 -53 13 -47 12 8 12 52 0 59 -5 3 -11 -2 -13
-12z"/>
<path d="M7015 3771 c-6 -11 9 -23 19 -14 9 9 7 23 -3 23 -6 0 -12 -4 -16 -9z"/>
<path d="M7100 3765 c0 -8 5 -15 10 -15 6 0 10 7 10 15 0 8 -4 15 -10 15 -5 0
-10 -7 -10 -15z"/>
<path d="M3380 3850 c0 -5 7 -10 15 -10 8 0 15 5 15 10 0 6 -7 10 -15 10 -8 0
-15 -4 -15 -10z"/>
<path d="M3983 3820 c1 -11 5 -20 9 -20 4 0 8 9 8 20 0 11 -4 20 -9 20 -6 0
-9 -9 -8 -20z"/>
<path d="M4028 3833 c7 -3 16 -2 19 1 4 3 -2 6 -13 5 -11 0 -14 -3 -6 -6z"/>
<path d="M4230 3850 c0 -5 7 -10 15 -10 8 0 15 5 15 10 0 6 -7 10 -15 10 -8 0
-15 -4 -15 -10z"/>
<path d="M4230 3810 c0 -5 9 -10 21 -10 11 0 17 5 14 10 -3 6 -13 10 -21 10
-8 0 -14 -4 -14 -10z"/>
<path d="M4740 3850 c0 -5 7 -10 15 -10 8 0 15 5 15 10 0 6 -7 10 -15 10 -8 0
-15 -4 -15 -10z"/>
<path d="M2870 3820 c0 -11 7 -20 15 -20 8 0 15 9 15 20 0 11 -7 20 -15 20 -8
0 -15 -9 -15 -20z"/>
<path d="M3250 3820 c0 -13 5 -20 13 -17 6 2 12 10 12 17 0 7 -6 15 -12 18 -8
2 -13 -5 -13 -18z"/>
<path d="M4108 3833 c7 -3 16 -2 19 1 4 3 -2 6 -13 5 -11 0 -14 -3 -6 -6z"/>
<path d="M4328 3833 c7 -3 16 -2 19 1 4 3 -2 6 -13 5 -11 0 -14 -3 -6 -6z"/>
<path d="M4405 3810 c-3 -5 -1 -10 4 -10 6 0 11 5 11 10 0 6 -2 10 -4 10 -3 0
-8 -4 -11 -10z"/>
<path d="M4830 3810 c0 -5 5 -10 10 -10 6 0 10 5 10 10 0 6 -4 10 -10 10 -5 0
-10 -4 -10 -10z"/>
<path d="M4950 3809 c0 -5 5 -7 10 -4 6 3 10 8 10 11 0 2 -4 4 -10 4 -5 0 -10
-5 -10 -11z"/>
<path d="M5108 3833 c7 -3 16 -2 19 1 4 3 -2 6 -13 5 -11 0 -14 -3 -6 -6z"/>
<path d="M989 3082 c-8 -3 -17 -10 -21 -16 -4 -6 -8 -622 -8 -1368 0 -1220 2
-1358 16 -1372 14 -14 84 -16 628 -16 513 0 615 2 632 14 19 14 19 40 19 1375
0 1086 -3 1363 -13 1373 -10 10 -144 13 -625 13 -337 1 -620 -1 -628 -3z m379
-52 c-4 -24 -1 -30 14 -30 11 0 23 -12 30 -27 11 -26 12 -27 15 -6 3 14 9 20
19 16 9 -3 14 1 14 13 0 9 3 15 6 12 3 -4 -2 -28 -12 -55 -36 -102 0 -151 156
-216 90 -37 133 -39 149 -8 5 10 -2 52 -20 115 -15 54 -30 113 -32 130 -3 27
-8 31 -35 34 -18 2 -32 7 -32 11 0 5 11 6 25 3 16 -3 31 1 38 10 10 12 29 14
107 7 52 -4 168 -8 258 -10 l162 -2 0 -367 0 -366 -48 -1 c-27 0 -63 -8 -82
-18 -33 -17 -51 -17 -150 1 -19 4 -38 12 -42 18 -5 6 -8 2 -8 -11 0 -12 8 -28
19 -35 18 -13 21 -18 21 -38 0 -6 19 -7 45 -4 36 4 45 2 45 -10 0 -8 5 -18 11
-22 8 -4 9 4 4 27 -7 32 -7 33 11 19 16 -14 17 -13 11 4 -6 16 -5 17 8 6 13
-11 14 -10 9 3 -8 21 95 44 126 27 20 -11 20 -18 20 -211 l-1 -200 -32 -20
c-42 -25 -89 -25 -113 2 -27 30 -50 40 -78 33 -17 -4 -22 -11 -19 -25 7 -27
43 -51 58 -39 8 7 18 4 30 -10 18 -19 17 -20 -3 -20 -11 0 -23 -4 -26 -9 -7
-10 -78 -7 -96 4 -9 5 -11 4 -6 -3 4 -8 0 -12 -12 -12 -15 0 -18 6 -14 30 2
17 -1 36 -7 44 -9 10 -8 15 4 20 8 3 15 12 15 21 0 9 9 15 24 15 14 0 31 6 38
13 7 8 19 12 26 9 6 -2 12 1 12 7 0 6 -8 11 -17 12 -14 0 -12 3 5 10 30 12 19
29 -19 29 -18 0 -28 4 -24 10 3 6 -4 14 -17 19 -18 7 -25 4 -35 -13 -7 -11
-12 -33 -13 -48 0 -43 -39 -79 -90 -85 -93 -10 -169 14 -333 107 -57 32 -263
90 -334 95 -26 1 -30 -1 -22 -12 9 -10 6 -13 -14 -13 -14 0 -32 -8 -39 -18 -7
-9 -24 -23 -38 -29 -24 -11 -23 -12 10 -7 32 4 33 4 10 -6 -14 -6 -35 -9 -47
-7 -12 2 -24 -1 -27 -7 -2 -6 -4 59 -3 144 0 85 2 127 4 93 4 -57 6 -63 29
-69 14 -4 28 -4 31 0 3 3 12 1 20 -5 10 -9 13 -8 13 0 0 21 -21 52 -31 46 -5
-4 -9 -2 -9 4 0 5 6 12 13 14 11 5 -17 11 -35 8 -13 -2 -9 17 5 22 21 8 107
-4 107 -15 0 -6 -7 -8 -15 -4 -8 3 -15 1 -15 -4 0 -6 6 -10 13 -10 8 0 7 -4
-3 -10 -13 -8 -12 -10 3 -10 9 0 17 6 17 13 0 7 9 20 20 30 11 9 20 25 20 35
0 10 4 22 9 28 5 5 11 18 15 29 5 18 1 20 -32 20 -20 -1 -40 4 -45 10 -5 6
-12 5 -20 -6 -13 -16 -38 -28 -74 -35 -17 -3 -21 -1 -17 11 4 8 1 15 -4 15 -6
0 -13 -12 -15 -27 -2 -16 -4 78 -4 207 -1 129 1 226 4 215 8 -34 30 -98 53
-149 21 -51 20 -90 -2 -68 -22 22 -48 14 -48 -14 0 -25 2 -26 35 -21 19 3 37
2 40 -3 6 -10 48 -9 55 1 3 4 19 9 35 10 17 2 33 8 36 12 3 4 17 -14 30 -40
13 -26 28 -51 33 -55 14 -10 133 -31 147 -26 11 4 -119 118 -134 118 -3 0 -2
-14 3 -31 7 -22 6 -29 -3 -26 -7 2 -17 24 -23 48 -5 24 -15 56 -22 72 -15 36
-3 68 49 120 23 23 52 56 65 73 l24 32 -36 103 c-20 57 -44 123 -55 146 -10
24 -19 47 -19 53 0 6 27 10 61 10 l61 0 -4 -30z m76 5 c11 -8 15 -15 9 -15 -7
0 -15 5 -18 10 -4 6 -11 8 -16 5 -5 -4 -9 -1 -9 4 0 15 11 13 34 -4z m145 -53
c-15 -36 -25 -49 -36 -45 -17 7 -12 68 7 87 8 8 8 3 0 -18 -6 -16 -9 -31 -6
-33 2 -3 7 5 11 16 7 22 35 55 41 48 2 -2 -5 -27 -17 -55z m-518 -747 c-40
-18 -41 -18 -41 -4 0 5 5 7 10 4 6 -3 10 -1 10 4 0 6 12 11 28 11 27 -1 27 -1
-7 -15z m-38 -377 l42 4 -19 -21 c-10 -11 -23 -18 -27 -15 -5 3 -9 1 -9 -5 0
-5 5 -13 10 -16 6 -3 10 -2 10 4 0 6 6 8 14 5 8 -3 13 -16 11 -31 -1 -15 4
-27 14 -31 9 -3 22 -12 29 -19 7 -7 20 -13 28 -13 8 0 14 -4 14 -10 0 -14 -13
-13 -28 2 -9 9 -12 8 -12 -4 0 -11 13 -18 41 -23 22 -4 43 -4 46 -1 4 3 -1 6
-10 6 -9 0 -17 5 -17 10 0 6 6 10 14 10 8 0 17 6 19 13 3 6 6 2 6 -10 1 -13 7
-23 14 -23 8 0 7 -4 -3 -10 -13 -9 -13 -10 0 -10 13 -1 13 -2 -1 -13 -17 -13
-19 -18 -19 -42 0 -19 -39 -19 -64 0 -11 8 -24 15 -30 15 -5 0 -1 -7 10 -15
18 -13 15 -14 -28 -15 -32 0 -48 4 -49 13 0 10 -2 10 -6 0 -2 -7 -16 -13 -29
-13 l-24 0 2 158 c0 86 3 143 5 126 4 -30 5 -31 46 -26z m67 -18 c0 -5 -2 -10
-4 -10 -3 0 -8 5 -11 10 -3 6 -1 10 4 10 6 0 11 -4 11 -10z m1130 -130 l0
-110 -75 0 c-58 0 -77 4 -81 15 -4 8 -13 15 -22 15 -13 0 -12 -3 4 -16 20 -16
13 -16 -33 3 -11 4 -14 3 -9 -5 5 -9 -8 -12 -47 -12 -41 0 -54 3 -54 15 0 11
6 13 20 9 13 -4 24 1 34 16 8 12 21 19 29 16 7 -3 16 0 20 6 4 6 3 9 -2 6 -5
-4 -22 0 -39 8 -16 8 -22 12 -11 9 11 -3 24 2 32 12 11 15 13 16 14 2 0 -23
30 -19 30 3 0 11 5 16 10 13 6 -3 10 2 10 12 0 15 2 16 10 3 8 -12 10 -11 10
8 0 12 7 23 15 24 8 0 21 1 28 2 6 1 11 -6 9 -14 -1 -10 2 -9 13 4 8 11 15 24
15 28 0 7 51 35 68 38 1 0 2 -49 2 -110z m-319 34 c27 1 49 -2 49 -7 0 -4 9
-3 21 3 11 7 23 9 26 6 5 -5 -178 -96 -193 -96 -4 0 -1 7 6 15 11 13 10 14 -4
9 -9 -3 -23 -1 -31 6 -9 7 -26 9 -45 5 -24 -5 -30 -3 -30 10 0 9 -4 14 -9 11
-5 -3 -15 1 -22 10 -10 13 -10 17 2 24 10 7 16 4 21 -8 4 -9 7 -11 7 -4 2 22
21 13 21 -10 0 -22 1 -22 26 5 14 16 29 25 33 21 3 -4 0 -9 -6 -11 -19 -7 -16
-21 8 -34 20 -10 21 -9 15 23 -5 27 -4 29 4 11 5 -13 16 -23 25 -23 8 0 14 -5
13 -11 -2 -6 4 -14 12 -16 13 -4 13 -3 0 7 -12 9 -9 11 15 6 25 -4 23 -2 -12
14 -24 10 -43 25 -43 32 0 10 2 10 9 0 7 -11 10 -10 15 3 3 9 7 26 8 38 1 13
3 8 5 -10 4 -31 5 -31 54 -29z m-34 14 c-3 -7 -5 -2 -5 12 0 14 2 19 5 13 2
-7 2 -19 0 -25z m-612 -64 c13 -5 14 -8 3 -15 -19 -12 -25 -11 -25 6 0 17 0
17 22 9z m515 -34 c0 -13 -6 -20 -17 -19 -12 0 -13 2 -5 6 10 4 10 8 1 19 -9
11 -8 14 5 14 9 0 16 -8 16 -20z m-477 -5 c-3 -9 -8 -14 -10 -11 -3 3 -2 9 2
15 9 16 15 13 8 -4z m-19 -20 c3 -8 1 -15 -4 -15 -6 0 -10 7 -10 15 0 8 2 15
4 15 2 0 6 -7 10 -15z m623 -5 c-1 -21 -13 -27 -62 -29 -22 0 -26 2 -15 9 8 5
26 6 39 3 19 -5 23 -3 18 10 -3 9 -1 18 6 21 7 2 13 5 14 5 1 1 1 -8 0 -19z
m-674 -10 c-3 -11 -9 -20 -14 -20 -11 0 -11 3 -3 24 9 23 23 20 17 -4z m511 4
c4 -10 1 -14 -6 -12 -15 5 -23 28 -10 28 5 0 13 -7 16 -16z m486 -659 c0 -344
-3 -625 -7 -626 -44 -6 -1213 -3 -1225 3 -17 8 -18 48 -18 628 l0 620 625 0
625 0 0 -625z"/>
<path d="M1830 2594 c0 -21 2 -23 25 -12 27 12 26 23 -5 31 -16 4 -20 0 -20
-19z"/>
<path d="M1666 2541 c-5 -8 84 -3 93 5 2 2 -16 4 -42 4 -25 0 -48 -4 -51 -9z"/>
<path d="M1850 2449 c0 -10 3 -25 6 -34 6 -14 9 -14 30 6 13 12 47 28 76 35
l53 13 -82 -2 c-71 -1 -83 -4 -83 -18z"/>
<path d="M998 2363 c5 -59 10 -63 11 -10 1 26 -3 47 -7 47 -4 0 -6 -17 -4 -37z"/>
<path d="M1876 2392 c-2 -4 0 -14 6 -22 8 -12 9 -11 4 4 -5 14 -2 17 9 12 9
-3 13 -2 10 4 -7 12 -22 13 -29 2z"/>
<path d="M1915 2360 c-4 -11 -11 -18 -16 -15 -11 7 -12 -5 -1 -22 11 -18 27
-2 29 30 2 32 -3 35 -12 7z"/>
<path d="M1871 2284 c0 -11 3 -14 6 -6 3 7 2 16 -1 19 -3 4 -6 -2 -5 -13z"/>
<path d="M1960 2191 c0 -5 5 -13 10 -16 6 -3 10 -2 10 4 0 5 -4 13 -10 16 -5
3 -10 2 -10 -4z"/>
<path d="M1994 2187 c3 -10 6 -23 6 -28 0 -5 7 -9 15 -9 20 0 19 7 -6 33 -18
18 -21 19 -15 4z"/>
<path d="M2172 2169 c5 -17 48 -25 48 -10 0 6 -4 11 -9 11 -5 0 -17 3 -27 7
-12 4 -15 2 -12 -8z"/>
<path d="M2040 2134 c0 -17 -16 -18 -24 -1 -3 6 -3 0 1 -16 3 -15 0 -33 -6
-41 -19 -22 -22 -56 -5 -49 8 3 14 10 14 15 0 6 8 17 18 24 10 8 12 13 5 14
-22 0 -14 20 12 30 30 11 32 26 5 33 -13 3 -20 0 -20 -9z"/>
<path d="M1116 2124 c-3 -9 -2 -22 2 -31 6 -10 9 -5 9 16 0 35 -2 38 -11 15z"/>
<path d="M2097 2106 c-4 -9 -13 -13 -22 -10 -10 4 -15 0 -15 -10 0 -9 4 -16
10 -16 19 0 60 24 57 34 -6 17 -24 18 -30 2z"/>
<path d="M1020 2000 c0 -5 5 -10 11 -10 5 0 7 5 4 10 -3 6 -8 10 -11 10 -2 0
-4 -4 -4 -10z"/>
<path d="M1905 1990 c3 -5 8 -10 11 -10 2 0 4 5 4 10 0 6 -5 10 -11 10 -5 0
-7 -4 -4 -10z"/>
<path d="M2180 1990 c0 -5 5 -10 10 -10 6 0 10 5 10 10 0 6 -4 10 -10 10 -5 0
-10 -4 -10 -10z"/>
<path d="M2065 1960 c-3 -5 -1 -10 4 -10 6 0 11 5 11 10 0 6 -2 10 -4 10 -3 0
-8 -4 -11 -10z"/>
<path d="M1936 1824 c-5 -12 -2 -15 10 -10 8 3 18 6 20 6 3 0 2 5 -1 10 -9 15
-22 12 -29 -6z"/>
<path d="M1020 1781 c0 -5 7 -11 14 -14 10 -4 13 -1 9 9 -6 15 -23 19 -23 5z"/>
<path d="M1058 1733 c7 -3 16 -2 19 1 4 3 -2 6 -13 5 -11 0 -14 -3 -6 -6z"/>
<path d="M1075 1671 c-6 -11 13 -26 22 -17 4 3 1 6 -6 6 -7 0 -9 5 -6 10 3 6
4 10 1 10 -3 0 -7 -4 -11 -9z"/>
<path d="M1160 1663 c0 -17 19 -37 27 -29 4 5 2 11 -5 13 -6 3 -10 9 -6 14 3
5 0 9 -5 9 -6 0 -11 -3 -11 -7z"/>
<path d="M990 1635 c0 -8 4 -15 10 -15 5 0 7 7 4 15 -4 8 -8 15 -10 15 -2 0
-4 -7 -4 -15z"/>
<path d="M2195 1760 c3 -5 8 -10 11 -10 2 0 4 5 4 10 0 6 -5 10 -11 10 -5 0
-7 -4 -4 -10z"/>
<path d="M2056 1668 c3 -4 9 -8 15 -8 5 0 9 4 9 8 0 5 -7 9 -15 9 -8 0 -12 -4
-9 -9z"/>
<path d="M2180 1660 c-9 -6 -10 -10 -3 -10 6 0 15 5 18 10 8 12 4 12 -15 0z"/>
<path d="M1886 1718 c6 -9 54 -7 54 3 0 3 -13 6 -30 6 -16 0 -27 -4 -24 -9z"/>
<path d="M1060 1442 c0 -28 21 -82 31 -82 5 0 12 14 16 30 8 44 20 45 27 4 9
-45 28 -40 38 11 11 51 3 70 -9 25 -10 -34 -12 -33 -27 13 -8 27 -26 20 -32
-13 -7 -32 -24 -32 -24 0 0 10 -4 22 -10 25 -5 3 -10 -2 -10 -13z"/>
<path d="M1202 1410 c0 -39 2 -47 7 -26 9 41 31 46 31 7 0 -17 5 -31 11 -31 6
0 9 16 7 38 -3 31 -6 37 -25 35 -13 -2 -23 4 -26 15 -3 9 -5 -8 -5 -38z"/>
<path d="M1507 1454 c-16 -16 -6 -45 18 -54 32 -12 32 -24 0 -17 -16 3 -24 0
-22 -7 2 -6 15 -11 28 -11 32 0 41 44 10 52 -12 3 -21 10 -21 15 0 5 10 6 21
3 15 -5 20 -3 17 6 -5 15 -40 24 -51 13z"/>
<path d="M1913 1410 c-1 -30 1 -47 4 -37 6 21 19 22 27 2 3 -8 10 -15 15 -15
7 0 7 9 -1 25 -8 19 -8 28 2 40 8 9 8 15 2 15 -6 0 -14 -4 -17 -10 -10 -17
-23 -11 -28 13 -2 12 -4 -3 -4 -33z"/>
<path d="M1327 1442 c-10 -17 6 -82 19 -82 8 0 14 5 14 10 0 6 -4 10 -10 10
-5 0 -10 9 -10 20 0 11 5 20 10 20 6 0 10 4 10 9 0 11 -28 22 -33 13z"/>
<path d="M1289 1428 c0 -7 -2 -25 -3 -40 -1 -16 2 -28 6 -28 4 0 8 18 8 40 0
22 -2 40 -5 40 -3 0 -5 -6 -6 -12z"/>
<path d="M1377 1433 c-4 -3 -7 -19 -7 -35 0 -31 20 -45 48 -32 14 6 12 8 -13
14 l-30 8 28 1 c28 1 35 19 15 39 -13 13 -31 16 -41 5z m30 -19 c-3 -3 -12 -4
-19 -1 -8 3 -5 6 6 6 11 1 17 -2 13 -5z"/>
<path d="M1580 1398 c0 -21 5 -38 10 -38 6 0 10 14 10 31 0 39 22 34 31 -7 6
-26 7 -24 8 13 1 40 0 42 -29 41 -28 -1 -30 -4 -30 -40z"/>
<path d="M1671 1418 c-11 -29 4 -58 29 -58 31 0 33 18 3 23 l-28 4 28 2 c28 1
35 19 15 39 -19 19 -38 14 -47 -10z m36 -4 c-3 -3 -12 -4 -19 -1 -8 3 -5 6 6
6 11 1 17 -2 13 -5z"/>
<path d="M1755 1430 c-3 -6 4 -10 17 -11 l23 0 -22 -11 c-35 -17 -30 -47 7
-46 24 1 30 5 30 24 0 12 -3 29 -6 38 -7 18 -39 22 -49 6z m35 -40 c0 -5 -7
-10 -16 -10 -8 0 -12 5 -9 10 3 6 10 10 16 10 5 0 9 -4 9 -10z"/>
<path d="M1830 1425 c-15 -18 -10 -45 12 -59 14 -8 22 -7 35 7 17 18 17 18 -9
12 -24 -6 -28 -4 -28 15 0 19 4 21 27 15 23 -5 25 -4 14 9 -17 20 -35 20 -51
1z"/>
<path d="M1987 1433 c-13 -12 -7 -22 21 -37 l27 -15 -29 -1 c-22 0 -27 -3 -19
-11 15 -15 47 -7 51 14 2 10 -5 21 -20 26 l-23 10 23 0 c13 1 20 5 17 11 -7
11 -38 13 -48 3z"/>
<path d="M1095 1250 c3 -5 8 -10 11 -10 2 0 4 5 4 10 0 6 -5 10 -11 10 -5 0
-7 -4 -4 -10z"/>
<path d="M1338 1253 c6 -2 18 -2 25 0 6 3 1 5 -13 5 -14 0 -19 -2 -12 -5z"/>
<path d="M1675 1250 c-9 -15 4 -30 23 -29 15 1 15 2 0 6 -10 2 -18 8 -18 13 0
5 8 11 18 13 15 4 15 5 0 6 -9 0 -20 -3 -23 -9z"/>
<path d="M2117 1253 c-4 -3 -7 -20 -7 -36 0 -38 6 -32 13 11 5 33 5 36 -6 25z"/>
<path d="M1220 1227 c0 -14 4 -28 8 -31 9 -5 8 41 -1 51 -4 3 -7 -5 -7 -20z"/>
<path d="M1150 1230 c0 -5 7 -7 15 -4 8 4 15 8 15 10 0 2 -7 4 -15 4 -8 0 -15
-4 -15 -10z"/>
<path d="M1202 1215 c0 -16 2 -22 5 -12 2 9 2 23 0 30 -3 6 -5 -1 -5 -18z"/>
<path d="M1258 1233 c7 -3 16 -2 19 1 4 3 -2 6 -13 5 -11 0 -14 -3 -6 -6z"/>
<path d="M1398 1233 c7 -3 16 -2 19 1 4 3 -2 6 -13 5 -11 0 -14 -3 -6 -6z"/>
<path d="M1445 1230 c-3 -6 1 -7 9 -4 18 7 21 14 7 14 -6 0 -13 -4 -16 -10z"/>
<path d="M1488 1215 c2 -14 6 -25 8 -25 2 0 4 11 4 25 0 14 -4 25 -9 25 -4 0
-6 -11 -3 -25z"/>
<path d="M1528 1233 c7 -3 16 -2 19 1 4 3 -2 6 -13 5 -11 0 -14 -3 -6 -6z"/>
<path d="M1594 1226 c-8 -20 3 -36 24 -35 14 0 13 2 -3 9 -18 8 -18 9 -2 9 10
1 17 6 15 13 -7 19 -27 21 -34 4z"/>
<path d="M1731 1213 c1 -23 2 -24 6 -5 2 12 8 22 13 22 5 0 11 -10 13 -22 5
-20 5 -20 4 2 -1 15 -9 26 -19 28 -14 3 -18 -3 -17 -25z"/>
<path d="M1784 1226 c-8 -20 3 -36 24 -35 14 0 13 2 -3 9 -18 8 -18 9 -2 9 10
1 17 6 15 13 -7 19 -27 21 -34 4z"/>
<path d="M1848 1233 c7 -3 16 -2 19 1 4 3 -2 6 -13 5 -11 0 -14 -3 -6 -6z"/>
<path d="M1898 1233 c7 -3 16 -2 19 1 4 3 -2 6 -13 5 -11 0 -14 -3 -6 -6z"/>
<path d="M1950 1225 c-7 -9 -8 -15 -2 -15 5 0 12 7 16 15 3 8 4 15 2 15 -2 0
-9 -7 -16 -15z"/>
<path d="M1985 1231 c-6 -11 13 -26 22 -17 4 3 0 6 -8 6 -11 0 -11 2 1 10 9 6
10 10 3 10 -6 0 -14 -4 -18 -9z"/>
<path d="M2068 1233 c7 -3 16 -2 19 1 4 3 -2 6 -13 5 -11 0 -14 -3 -6 -6z"/>
<path d="M1338 1223 c7 -3 16 -2 19 1 4 3 -2 6 -13 5 -11 0 -14 -3 -6 -6z"/>
<path d="M1258 1213 c6 -2 18 -2 25 0 6 3 1 5 -13 5 -14 0 -19 -2 -12 -5z"/>
<path d="M1388 1213 c6 -2 18 -2 25 0 6 3 1 5 -13 5 -14 0 -19 -2 -12 -5z"/>
<path d="M1517 1214 c-9 -10 2 -24 19 -24 8 0 14 7 14 15 0 15 -21 21 -33 9z"/>
<path d="M1837 1214 c-9 -10 2 -24 19 -24 8 0 14 7 14 15 0 15 -21 21 -33 9z"/>
<path d="M1115 1200 c3 -5 8 -10 11 -10 2 0 4 5 4 10 0 6 -5 10 -11 10 -5 0
-7 -4 -4 -10z"/>
<path d="M1258 1193 c7 -3 16 -2 19 1 4 3 -2 6 -13 5 -11 0 -14 -3 -6 -6z"/>
<path d="M1398 1193 c7 -3 16 -2 19 1 4 3 -2 6 -13 5 -11 0 -14 -3 -6 -6z"/>
<path d="M1678 1193 c6 -2 18 -2 25 0 6 3 1 5 -13 5 -14 0 -19 -2 -12 -5z"/>
<path d="M1898 1193 c7 -3 16 -2 19 1 4 3 -2 6 -13 5 -11 0 -14 -3 -6 -6z"/>
<path d="M1988 1193 c7 -3 16 -2 19 1 4 3 -2 6 -13 5 -11 0 -14 -3 -6 -6z"/>
<path d="M2068 1193 c7 -3 16 -2 19 1 4 3 -2 6 -13 5 -11 0 -14 -3 -6 -6z"/>
<path d="M1345 1140 c-8 -14 3 -30 21 -30 8 0 14 -5 14 -11 0 -7 -9 -9 -21 -6
-16 4 -19 3 -11 -5 12 -12 42 -4 42 13 0 6 -9 13 -20 16 -25 7 -26 20 -2 26
15 4 15 5 0 6 -9 0 -20 -3 -23 -9z"/>
<path d="M1070 1126 c0 -2 7 -6 15 -10 8 -3 15 -1 15 4 0 6 -7 10 -15 10 -8 0
-15 -2 -15 -4z"/>
<path d="M1112 1105 c0 -16 2 -22 5 -12 2 9 2 23 0 30 -3 6 -5 -1 -5 -18z"/>
<path d="M1138 1123 c6 -2 18 -2 25 0 6 3 1 5 -13 5 -14 0 -19 -2 -12 -5z"/>
<path d="M1184 1116 c-8 -20 3 -36 24 -35 14 0 13 2 -3 9 -18 8 -18 9 -2 9 10
1 17 6 15 13 -7 19 -27 21 -34 4z"/>
<path d="M1248 1123 c7 -3 16 -2 19 1 4 3 -2 6 -13 5 -11 0 -14 -3 -6 -6z"/>
<path d="M1428 1123 c6 -2 18 -2 25 0 6 3 1 5 -13 5 -14 0 -19 -2 -12 -5z"/>
<path d="M1474 1116 c-8 -20 3 -36 24 -35 14 0 13 2 -3 9 -18 8 -18 9 -2 9 10
1 17 6 15 13 -7 19 -27 21 -34 4z"/>
<path d="M1060 1088 c0 -4 6 -8 14 -8 8 0 17 4 20 8 2 4 -4 8 -15 8 -10 0 -19
-4 -19 -8z"/>
<path d="M1428 1083 c6 -2 18 -2 25 0 6 3 1 5 -13 5 -14 0 -19 -2 -12 -5z"/>
<path d="M1076 925 c-19 -14 -16 -45 4 -45 5 0 10 -7 10 -15 0 -9 -6 -12 -15
-9 -19 8 -19 -1 1 -21 12 -12 19 -13 30 -4 17 14 18 45 3 55 -8 4 -7 9 2 15
12 7 11 11 -1 23 -13 13 -18 13 -34 1z"/>
<path d="M1153 897 c-29 -42 -29 -47 2 -47 14 0 25 -6 25 -12 1 -9 4 -8 9 2 9
16 3 90 -8 90 -3 0 -16 -15 -28 -33z m24 -12 c0 -8 -7 -15 -15 -15 -12 0 -12
3 -2 15 7 8 13 15 15 15 1 0 2 -7 2 -15z"/>
<path d="M1224 916 c-3 -8 -4 -29 -2 -48 2 -25 8 -34 25 -36 26 -4 39 31 29
73 -7 28 -43 35 -52 11z m36 -36 c0 -31 -16 -41 -26 -15 -8 19 2 45 16 45 5 0
10 -13 10 -30z"/>
<path d="M1920 906 c0 -2 7 -6 15 -10 8 -3 15 -1 15 4 0 6 -7 10 -15 10 -8 0
-15 -2 -15 -4z"/>
<path d="M2040 896 c0 -8 -5 -16 -12 -18 -8 -3 -7 -6 3 -10 7 -3 21 -2 29 1
14 5 14 8 -2 24 -14 13 -18 14 -18 3z"/>
<path d="M1803 873 c9 -2 25 -2 35 0 9 3 1 5 -18 5 -19 0 -27 -2 -17 -5z"/>
<path d="M1930 850 c-9 -6 -10 -10 -3 -10 6 0 15 5 18 10 8 12 4 12 -15 0z"/>
<path d="M1299 565 c-13 -35 -14 -45 -4 -45 8 0 15 6 18 13 3 9 9 9 27 -1 12
-7 24 -12 26 -9 7 7 -29 87 -40 87 -6 0 -18 -20 -27 -45z m35 0 c3 -8 1 -15
-4 -15 -6 0 -10 7 -10 15 0 8 2 15 4 15 2 0 6 -7 10 -15z"/>
<path d="M1420 603 c0 -7 -9 -13 -19 -13 -24 0 -37 -36 -20 -56 7 -8 22 -14
33 -12 16 2 21 10 22 35 0 18 -3 38 -8 45 -6 10 -8 10 -8 1z m-8 -58 c-12 -22
-27 -2 -18 22 5 12 10 13 17 6 7 -7 8 -17 1 -28z"/>
<path d="M1490 601 c0 -5 -9 -11 -21 -14 -16 -4 -20 -12 -17 -34 2 -22 9 -29
31 -31 26 -3 27 -2 27 42 0 25 -4 46 -10 46 -5 0 -10 -4 -10 -9z m0 -46 c0
-14 -4 -25 -10 -25 -5 0 -10 11 -10 25 0 14 5 25 10 25 6 0 10 -11 10 -25z"/>
<path d="M1713 603 c-16 -6 -17 -55 -1 -71 15 -15 45 -16 53 -2 4 7 -3 8 -20
4 -25 -6 -26 -5 -23 27 3 29 7 34 26 32 13 -2 21 1 17 7 -6 10 -31 12 -52 3z"/>
<path d="M1906 602 c-4 -7 -18 -12 -32 -12 -21 0 -24 -5 -24 -35 0 -19 5 -35
10 -35 6 0 10 14 10 30 0 20 5 30 15 30 10 0 15 -10 15 -30 0 -18 5 -30 13
-30 9 0 12 12 9 38 -5 51 -7 58 -16 44z"/>
<path d="M1559 596 c-3 -3 -3 -21 -1 -41 6 -47 27 -46 26 2 -1 34 -12 51 -25
39z"/>
<path d="M1600 576 c-27 -33 18 -72 48 -42 13 13 14 20 6 34 -15 23 -38 26
-54 8z m36 -32 c-5 -13 -10 -14 -18 -6 -6 6 -8 18 -4 28 5 13 10 14 18 6 6 -6
8 -18 4 -28z"/>
<path d="M1790 581 c0 -6 8 -8 18 -5 9 2 7 -1 -6 -7 -30 -16 -24 -43 11 -47
27 -3 28 -1 25 30 -2 25 -8 34 -25 36 -13 2 -23 -1 -23 -7z m22 -43 c-7 -7
-12 -8 -12 -2 0 14 12 26 19 19 2 -3 -1 -11 -7 -17z"/>
<path d="M2477 3075 l-22 -11 -3 -1361 c-2 -1228 -1 -1363 14 -1377 14 -14 84
-16 634 -16 l619 0 15 22 c14 20 16 167 16 1374 0 1245 -1 1353 -17 1365 -13
12 -124 14 -625 15 -418 0 -616 -3 -631 -11z m646 -35 c5 -4 27 -1 49 7 46 16
127 11 138 -8 6 -9 12 -8 25 4 14 15 42 17 201 17 l185 0 -2 -79 -2 -79 -30
-6 c-19 -4 -36 -1 -46 7 -23 20 -130 46 -171 42 -19 -2 -27 -2 -17 1 10 3 29
11 43 19 22 11 14 12 -66 10 -49 -1 -90 2 -90 7 0 4 -9 8 -21 8 -15 0 -19 -4
-15 -16 4 -12 2 -15 -9 -10 -8 3 -15 1 -15 -4 0 -6 7 -10 15 -10 8 0 15 -4 15
-9 0 -10 -137 -14 -183 -5 -15 3 -25 10 -22 15 4 5 -6 4 -21 -1 -21 -8 -29 -8
-36 2 -6 11 -8 11 -8 0 0 -7 -5 -10 -11 -6 -6 3 -15 0 -20 -7 -6 -9 -9 -10 -9
-2 0 7 8 17 18 22 14 8 9 10 -22 11 -49 0 -42 10 9 13 55 3 57 25 3 29 -37 3
-44 7 -46 27 l-4 24 79 -8 c43 -4 82 -10 86 -15z m-646 -307 c-1 -59 -3 -13
-3 102 0 116 2 164 3 108 2 -56 2 -151 0 -210z m503 217 c0 -5 -4 -10 -10 -10
-5 0 -10 5 -10 10 0 6 5 10 10 10 6 0 10 -4 10 -10z m77 -26 c-3 -3 -12 -4
-19 -1 -8 3 -5 6 6 6 11 1 17 -2 13 -5z m98 -14 c8 -13 -5 -13 -25 0 -13 8
-13 10 2 10 9 0 20 -4 23 -10z m65 -6 c0 -2 -7 -4 -15 -4 -8 0 -15 4 -15 10 0
5 7 7 15 4 8 -4 15 -8 15 -10z m373 -1 c-7 -2 -19 -2 -25 0 -7 3 -2 5 12 5 14
0 19 -2 13 -5z m-460 -60 c16 -12 25 -23 22 -23 -4 0 -2 -7 5 -15 7 -8 16 -13
20 -10 5 3 12 0 16 -6 4 -7 3 -9 -4 -5 -6 3 -13 2 -16 -3 -9 -15 6 -20 73 -26
60 -5 88 10 34 18 -16 2 -5 5 27 7 30 1 48 4 38 7 -20 5 -31 30 -17 39 5 3 15
1 22 -4 21 -17 118 -21 124 -6 6 17 39 18 49 2 4 -6 3 -8 -4 -4 -15 9 -23 -7
-12 -24 7 -12 12 -12 22 -2 6 6 21 11 32 11 16 -1 17 -2 4 -6 -18 -5 -33 -33
-18 -33 6 0 10 5 10 12 0 6 8 3 19 -8 10 -10 17 -22 14 -26 -2 -4 14 -12 36
-19 23 -7 44 -21 52 -35 7 -13 16 -24 21 -24 4 0 8 -12 8 -28 0 -30 -34 -61
-43 -39 -4 8 -6 7 -6 -3 -1 -8 -11 -20 -23 -25 -29 -13 -36 -35 -9 -30 25 5
25 2 6 -34 -8 -16 -11 -32 -7 -36 4 -5 2 -5 -5 -2 -6 4 -13 2 -15 -4 -2 -6
-21 -12 -42 -14 -22 -1 -32 1 -24 6 9 6 8 10 -5 15 -14 5 -15 9 -6 20 13 16
12 16 -12 30 -14 8 -12 12 17 26 30 15 32 16 27 1 -5 -12 -2 -15 10 -10 13 5
17 1 17 -17 0 -15 -7 -26 -20 -29 -26 -7 -26 -27 1 -27 11 0 17 5 14 10 -3 6
0 10 7 10 9 0 12 14 9 51 -2 35 -7 49 -15 46 -7 -3 -19 3 -26 13 -7 10 -20 16
-28 13 -8 -3 -18 0 -23 8 -7 11 -9 11 -9 1 0 -7 -4 -11 -9 -8 -5 3 -11 -1 -15
-9 -6 -16 -52 -20 -93 -9 -18 5 -22 11 -17 31 6 23 5 24 -15 13 -12 -6 -24
-17 -27 -25 -3 -8 -12 -11 -20 -8 -17 6 -10 -15 24 -82 34 -66 72 -157 72
-171 0 -21 38 -32 97 -30 43 1 50 -1 40 -12 -11 -14 -70 -12 -110 4 -15 5 -17
-1 -17 -41 0 -55 -25 -115 -49 -116 -9 -1 -41 -2 -71 -3 -59 -2 -84 -11 -74
-27 3 -6 -5 -7 -23 -4 -21 5 -24 4 -13 -4 9 -6 10 -11 3 -11 -6 0 -20 -3 -30
-6 -15 -5 -15 -4 -3 5 12 9 10 10 -12 9 -20 -2 -24 -5 -17 -14 8 -9 5 -11 -9
-7 -11 2 -39 -2 -63 -11 -26 -9 -36 -16 -24 -16 13 -1 6 -6 -19 -16 -21 -7
-43 -11 -49 -7 -5 3 -7 1 -4 -4 4 -6 -6 -13 -24 -17 -16 -3 -61 -19 -99 -36
-37 -16 -70 -30 -72 -30 -2 0 -5 17 -6 38 -2 20 -12 79 -22 131 -17 80 -18 95
-6 105 13 10 22 53 29 138 4 53 17 15 17 -53 0 -38 3 -69 8 -69 4 0 5 54 2
119 -4 99 -8 122 -24 140 -15 17 -16 20 -4 16 9 -4 19 -2 23 4 3 6 0 11 -7 11
-7 1 -2 7 11 14 14 8 37 12 51 9 25 -3 216 39 228 51 3 4 -22 6 -56 6 l-62 0
0 41 c0 32 4 42 20 46 11 3 20 9 20 14 0 5 8 9 18 10 11 1 8 4 -8 8 -14 4 -35
4 -47 0 -14 -5 -23 -5 -23 1 0 6 5 10 10 10 6 0 10 7 10 15 0 17 45 21 55 5 3
-5 16 -10 28 -10 18 0 19 2 7 10 -13 8 -12 10 3 10 9 0 17 -4 17 -8 0 -4 14
-8 32 -8 27 1 33 -3 39 -29 10 -35 1 -107 -15 -117 -6 -4 2 -8 17 -8 51 0 60
20 42 92 -37 148 -77 193 -154 170 -20 -7 -47 -22 -59 -35 -29 -31 -52 -100
-52 -158 0 -53 -14 -73 -24 -34 -8 32 2 107 20 151 10 25 11 34 3 34 -15 0 18
38 46 53 59 32 126 22 188 -30z m-424 21 c23 -29 28 -74 9 -74 -9 0 -9 -3 1
-9 12 -8 13 -14 3 -35 -10 -23 -9 -26 8 -26 10 0 22 -5 25 -10 3 -6 24 -8 46
-5 l40 5 -3 -43 c-3 -36 -6 -42 -23 -39 -11 2 -38 4 -61 5 -29 1 -41 6 -40 17
1 8 -6 14 -14 12 -11 -2 -11 1 3 11 23 19 22 26 -3 20 -11 -3 -20 -9 -20 -14
0 -5 -7 -9 -16 -9 -12 0 -15 6 -10 23 3 12 6 32 6 45 0 18 4 22 19 17 16 -5
18 -2 14 15 -4 15 -9 18 -16 11 -17 -17 -29 -13 -22 8 4 14 -1 20 -20 25 -18
5 -25 13 -25 29 0 52 64 65 99 21z m517 -45 c3 -5 1 -9 -5 -9 -17 0 -41 12
-41 20 0 10 38 1 46 -11z m219 11 c4 -6 -9 -10 -32 -9 -38 1 -38 1 -8 9 17 4
31 8 32 9 1 0 5 -3 8 -9z m-135 -20 c0 -13 -20 -13 -40 0 -12 8 -9 10 13 10
15 0 27 -4 27 -10z m-685 -40 c3 -5 1 -10 -4 -10 -6 0 -11 5 -11 10 0 6 2 10
4 10 3 0 8 -4 11 -10z m13 -32 c-2 -6 -10 -14 -16 -16 -7 -2 -10 2 -6 12 7 18
28 22 22 4z m522 -88 c0 -11 -6 -20 -14 -20 -9 0 -12 7 -9 20 3 11 9 20 14 20
5 0 9 -9 9 -20z m186 -57 c-2 -16 -4 -37 -5 -48 -1 -16 -3 -17 -10 -5 -6 8 -7
19 -3 25 4 5 7 15 8 20 0 6 2 16 2 23 1 6 4 12 6 12 3 0 3 -12 2 -27z m-689
-125 c9 -58 -14 -47 -26 12 -6 28 -11 68 -10 88 l0 37 15 -50 c8 -27 17 -67
21 -87z m-180 -40 c-2 -24 -4 -5 -4 42 0 47 2 66 4 43 2 -24 2 -62 0 -85z
m969 105 c-1 -7 -8 -19 -16 -26 -10 -10 -11 -9 -5 1 4 8 0 18 -10 26 -15 11
-14 12 8 12 15 0 24 -5 23 -13z m-51 -3 c3 -5 1 -10 -4 -10 -6 0 -11 5 -11 10
0 6 2 10 4 10 3 0 8 -4 11 -10z m270 -30 c3 -5 1 -10 -4 -10 -6 0 -11 5 -11
10 0 6 2 10 4 10 3 0 8 -4 11 -10z m-295 -20 c6 -11 8 -20 6 -20 -3 0 -10 9
-16 20 -6 11 -8 20 -6 20 3 0 10 -9 16 -20z m290 -15 c0 -16 39 -36 53 -28 4
2 7 -14 7 -36 l0 -40 -40 1 c-43 0 -49 8 -25 28 8 7 12 16 9 21 -3 5 0 9 6 9
6 0 2 10 -10 22 -22 24 -26 38 -10 38 6 0 10 -7 10 -15z m25 5 c3 -5 1 -10 -4
-10 -6 0 -11 5 -11 10 0 6 2 10 4 10 3 0 8 -4 11 -10z m-170 -30 c-3 -5 -12
-10 -18 -10 -7 0 -6 4 3 10 19 12 23 12 15 0z m131 -5 c20 -17 -3 -45 -36 -45
-16 0 -32 5 -36 12 -5 7 -2 9 7 4 8 -4 5 0 -5 8 -11 9 -16 19 -13 23 4 4 12 2
18 -4 13 -13 42 -6 33 8 -7 12 16 7 32 -6z m-920 -21 c-3 -7 -1 -16 3 -19 12
-7 20 -55 10 -55 -5 0 -9 7 -9 15 0 24 -2 29 -16 50 -18 26 -18 36 2 28 8 -3
13 -12 10 -19z m814 -17 c0 -5 -4 -5 -10 -2 -5 3 -10 14 -10 23 0 15 2 15 10
2 5 -8 10 -19 10 -23z m20 -21 c0 -3 -4 -8 -10 -11 -5 -3 -10 -1 -10 4 0 6 5
11 10 11 6 0 10 -2 10 -4z m76 -37 c4 -8 0 -9 -15 -4 -12 4 -21 2 -21 -4 0 -6
9 -11 20 -11 10 0 23 -8 28 -17 9 -15 26 -22 60 -25 6 -1 12 -7 12 -13 0 -7
-12 -10 -31 -7 -22 3 -30 1 -25 -7 4 -6 18 -11 31 -11 23 0 24 -2 27 -107 2
-60 2 -130 0 -158 l-3 -50 -82 6 c-45 3 -83 4 -85 3 -2 -1 7 -14 19 -28 21
-24 27 -26 86 -21 l63 5 0 -77 0 -78 -66 -3 c-36 -1 -78 -8 -93 -16 -38 -20
-101 -31 -101 -18 0 14 -44 62 -57 62 -20 0 -64 43 -59 57 3 8 1 11 -4 8 -16
-10 -11 29 7 55 17 24 16 24 -32 -5 -65 -38 -237 -125 -248 -125 -5 0 -7 51
-5 114 2 96 1 112 -11 103 -10 -9 -13 -8 -10 7 3 11 27 27 64 42 110 45 180
79 188 92 4 6 19 12 31 12 33 0 88 25 79 35 -5 4 0 6 9 2 9 -3 19 0 22 9 4 9
23 15 58 16 47 1 49 2 13 5 -22 3 -46 10 -54 16 -11 9 -15 9 -18 0 -10 -28
-18 -11 -15 27 3 32 7 38 17 30 8 -6 31 -10 52 -7 l38 4 -42 1 c-66 3 -51 22
17 22 33 0 60 4 60 10 0 6 9 10 20 10 11 0 20 5 20 11 0 5 -5 7 -11 3 -8 -4
-8 0 0 15 13 23 36 28 47 10z m-1159 -91 c-2 -13 -4 -3 -4 22 0 25 2 35 4 23
2 -13 2 -33 0 -45z m0 -135 c-3 -10 -5 -4 -5 12 0 17 2 24 5 18 2 -7 2 -21 0
-30z m798 17 c-11 -5 -27 -9 -35 -9 -9 0 -8 4 5 9 11 5 27 9 35 9 9 0 8 -4 -5
-9z m402 -226 c-3 -3 -12 -4 -19 -1 -8 3 -5 6 6 6 11 1 17 -2 13 -5z m-390
-113 c6 6 9 1 8 -13 -1 -13 -7 -22 -13 -21 -5 1 -16 -5 -24 -14 -12 -15 -10
-16 15 -9 16 4 27 2 27 -4 0 -5 7 -10 15 -10 8 0 15 -5 15 -10 0 -6 11 -20 25
-32 19 -16 22 -24 13 -30 -18 -11 17 -11 40 1 9 5 44 17 77 26 33 10 65 22 72
27 6 5 46 10 87 11 l76 2 0 -687 0 -686 -72 -4 c-40 -2 -317 -3 -616 -3 -472
0 -544 2 -552 15 -6 9 -9 286 -8 710 1 382 4 658 5 612 l4 -82 167 2 c96 1
152 4 132 8 -31 7 -32 8 -7 9 38 2 34 21 -5 22 l-33 1 30 7 c28 6 129 -3 168
-15 9 -3 17 -1 17 4 0 6 -24 13 -52 17 -58 8 -103 23 -78 25 8 1 26 4 40 7 14
3 42 6 62 7 39 1 55 16 18 16 -11 0 -20 4 -20 8 0 4 16 8 35 8 19 0 31 -2 27
-5 -12 -10 -12 -29 1 -27 27 6 47 19 41 27 -5 9 9 13 35 9 8 -1 17 4 21 10 4
7 41 15 81 20 46 4 59 8 35 9 -42 1 -40 17 1 24 13 2 25 6 29 9 3 4 16 3 29
-2 13 -5 26 -5 32 1z m-398 -67 c2 -2 -7 -5 -20 -5 -21 -1 -21 -2 6 -9 l30 -8
-30 0 c-16 0 -41 4 -55 8 -21 7 -22 8 -5 10 17 2 17 3 -5 10 -17 6 -9 7 25 3
28 -3 52 -7 54 -9z m532 6 c10 -6 19 -17 19 -25 0 -26 -16 -23 -32 6 -19 32
-17 34 13 19z m-621 -40 c-19 -13 -30 -13 -30 0 0 6 10 10 23 10 18 0 19 -2 7
-10z"/>
<path d="M3356 3034 c-5 -14 -4 -15 9 -4 17 14 19 20 6 20 -5 0 -12 -7 -15
-16z"/>
<path d="M3400 3040 c0 -5 9 -10 21 -10 11 0 17 5 14 10 -3 6 -13 10 -21 10
-8 0 -14 -4 -14 -10z"/>
<path d="M3053 3023 c9 -2 23 -2 30 0 6 3 -1 5 -18 5 -16 0 -22 -2 -12 -5z"/>
<path d="M3115 3023 c15 -16 55 -26 55 -14 0 6 -6 11 -14 11 -8 0 -23 3 -33 6
-12 5 -15 4 -8 -3z"/>
<path d="M3518 3023 c12 -2 30 -2 40 0 9 3 -1 5 -23 4 -22 0 -30 -2 -17 -4z"/>
<path d="M3658 3013 c7 -3 16 -2 19 1 4 3 -2 6 -13 5 -11 0 -14 -3 -6 -6z"/>
<path d="M3375 3000 c3 -5 8 -10 11 -10 2 0 4 5 4 10 0 6 -5 10 -11 10 -5 0
-7 -4 -4 -10z"/>
<path d="M3528 3003 c6 -2 18 -2 25 0 6 3 1 5 -13 5 -14 0 -19 -2 -12 -5z"/>
<path d="M3563 2983 c9 -2 23 -2 30 0 6 3 -1 5 -18 5 -16 0 -22 -2 -12 -5z"/>
<path d="M3250 2971 c0 -5 5 -13 10 -16 6 -3 10 -2 10 4 0 5 -4 13 -10 16 -5
3 -10 2 -10 -4z"/>
<path d="M3208 2958 c9 -9 15 -9 24 0 9 9 7 12 -12 12 -19 0 -21 -3 -12 -12z"/>
<path d="M3578 2943 c7 -3 16 -2 19 1 4 3 -2 6 -13 5 -11 0 -14 -3 -6 -6z"/>
<path d="M3474 2736 c-4 -9 -13 -15 -20 -12 -8 3 -14 1 -14 -4 0 -6 -6 -10
-14 -10 -19 0 -73 -46 -65 -55 4 -3 18 5 32 19 25 25 45 30 93 27 20 -2 41 25
29 37 -3 3 -5 -1 -5 -9 -1 -10 -5 -9 -15 5 -13 18 -15 18 -21 2z"/>
<path d="M3056 2258 c5 -25 3 -28 -17 -28 -15 0 -19 -3 -12 -8 6 -4 16 -20 22
-35 6 -16 16 -25 24 -22 16 7 10 72 -10 100 -13 19 -14 18 -7 -7z"/>
<path d="M3096 2245 c-3 -9 0 -15 9 -15 8 0 15 7 15 15 0 8 -4 15 -9 15 -5 0
-11 -7 -15 -15z"/>
<path d="M3131 2244 c0 -11 3 -14 6 -6 3 7 2 16 -1 19 -3 4 -6 -2 -5 -13z"/>
<path d="M3101 2206 c-9 -11 -7 -15 9 -19 11 -3 23 0 27 5 4 7 1 8 -7 3 -10
-6 -12 -4 -7 8 8 21 -6 22 -22 3z"/>
<path d="M3438 2233 c6 -2 18 -2 25 0 6 3 1 5 -13 5 -14 0 -19 -2 -12 -5z"/>
<path d="M3456 2142 c-3 -3 2 -11 12 -18 11 -8 54 -12 117 -12 104 0 108 16 5
18 -30 0 -72 4 -92 9 -20 5 -39 6 -42 3z"/>
<path d="M3460 1974 c0 -6 6 -16 13 -23 6 -7 8 -11 2 -10 -5 1 -20 -2 -33 -7
-20 -8 -16 -11 31 -19 49 -9 53 -9 49 7 -2 10 -9 18 -14 18 -5 0 -6 -5 -2 -12
4 -7 3 -8 -5 -4 -6 4 -9 11 -6 15 2 5 -4 16 -15 26 -11 10 -20 14 -20 9z"/>
<path d="M3445 1869 c-16 -5 -36 -18 -44 -31 -12 -19 -11 -24 9 -40 22 -18 81
-26 79 -10 -4 23 4 32 28 32 25 0 26 0 8 -20 -21 -23 -14 -27 8 -5 36 36 -29
90 -88 74z m19 -38 c11 -4 15 -10 10 -13 -10 -6 -54 8 -54 17 0 7 21 5 44 -4z"/>
<path d="M3168 1733 c7 -3 16 -2 19 1 4 3 -2 6 -13 5 -11 0 -14 -3 -6 -6z"/>
<path d="M3012 1619 c5 -16 78 -25 78 -10 0 6 -8 11 -17 11 -10 0 -29 3 -42 7
-17 4 -22 2 -19 -8z"/>
<path d="M3145 1620 c-30 -8 -30 -8 -3 -9 14 0 33 -4 42 -7 11 -4 16 -1 16 10
0 17 -8 18 -55 6z"/>
<path d="M3298 1593 c7 -3 16 -2 19 1 4 3 -2 6 -13 5 -11 0 -14 -3 -6 -6z"/>
<path d="M2560 1409 l0 -50 38 3 c35 3 37 5 37 38 1 53 -4 60 -41 60 l-34 0 0
-51z m60 21 c0 -5 -11 -10 -25 -10 -14 0 -25 5 -25 10 0 6 11 10 25 10 14 0
25 -4 25 -10z m0 -40 c0 -5 -11 -10 -25 -10 -14 0 -25 5 -25 10 0 6 11 10 25
10 14 0 25 -4 25 -10z"/>
<path d="M3040 1409 l0 -50 38 3 c35 3 37 5 37 38 1 53 -4 60 -41 60 l-34 0 0
-51z m60 21 c0 -5 -11 -10 -25 -10 -14 0 -25 5 -25 10 0 6 11 10 25 10 14 0
25 -4 25 -10z m0 -40 c0 -5 -11 -10 -25 -10 -14 0 -25 5 -25 10 0 6 11 10 25
10 14 0 25 -4 25 -10z"/>
<path d="M2660 1400 c0 -22 5 -40 10 -40 6 0 10 14 10 30 0 17 5 30 10 30 6 0
10 5 10 10 0 6 -9 10 -20 10 -17 0 -20 -7 -20 -40z"/>
<path d="M2722 1428 c-28 -28 -1 -75 38 -63 14 4 20 15 20 35 0 36 -33 53 -58
28z m43 -28 c0 -8 -8 -16 -17 -18 -13 -2 -18 3 -18 18 0 15 5 20 18 18 9 -2
17 -10 17 -18z"/>
<path d="M2802 1400 c12 -47 25 -51 35 -13 l6 28 10 -28 c12 -38 23 -34 35 13
10 41 -1 57 -12 18 l-7 -23 -9 23 c-11 27 -30 21 -31 -11 -1 -20 -2 -19 -12 6
-16 41 -26 33 -15 -13z"/>
<path d="M2910 1399 c0 -21 5 -39 10 -39 6 0 10 14 10 31 0 39 22 34 32 -7 5
-25 6 -23 5 11 -2 36 -5 40 -29 42 -26 2 -28 -1 -28 -38z"/>
<path d="M3145 1430 c-3 -6 4 -10 17 -11 l23 0 -22 -11 c-35 -17 -30 -47 7
-46 24 1 30 5 30 24 0 12 -3 29 -6 38 -7 18 -39 22 -49 6z m35 -40 c0 -5 -7
-10 -16 -10 -8 0 -12 5 -9 10 3 6 10 10 16 10 5 0 9 -4 9 -10z"/>
<path d="M3221 1427 c-13 -13 -14 -44 -2 -51 5 -3 7 -15 4 -27 -5 -18 -2 -20
23 -17 27 3 29 6 32 54 3 49 2 52 -22 52 -13 0 -29 -5 -35 -11z m39 -27 c0
-11 -7 -20 -15 -20 -8 0 -15 9 -15 20 0 11 7 20 15 20 8 0 15 -9 15 -20z m0
-40 c0 -5 -5 -10 -11 -10 -5 0 -7 5 -4 10 3 6 8 10 11 10 2 0 4 -4 4 -10z"/>
<path d="M2780 1225 c0 -34 20 -49 35 -25 3 6 -1 7 -9 4 -11 -4 -16 0 -16 11
0 11 5 15 15 11 20 -7 19 -4 -5 17 -19 16 -20 16 -20 -18z"/>
<path d="M2551 1223 c-1 -28 2 -33 22 -32 15 1 17 3 5 6 -9 2 -19 16 -21 31
-4 24 -4 24 -6 -5z"/>
<path d="M2730 1222 c0 -18 4 -32 8 -32 9 0 8 47 -1 57 -4 3 -7 -8 -7 -25z"/>
<path d="M3340 1222 c0 -18 4 -32 8 -32 9 0 8 47 -1 57 -4 3 -7 -8 -7 -25z"/>
<path d="M2630 1236 c0 -2 7 -7 16 -10 8 -3 12 -2 9 4 -6 10 -25 14 -25 6z"/>
<path d="M2680 1230 c0 -5 7 -7 15 -4 8 4 15 8 15 10 0 2 -7 4 -15 4 -8 0 -15
-4 -15 -10z"/>
<path d="M2878 1233 c7 -3 16 -2 19 1 4 3 -2 6 -13 5 -11 0 -14 -3 -6 -6z"/>
<path d="M2990 1230 c0 -5 7 -7 15 -4 8 4 15 8 15 10 0 2 -7 4 -15 4 -8 0 -15
-4 -15 -10z"/>
<path d="M3070 1230 c0 -5 7 -7 15 -4 8 4 15 8 15 10 0 2 -7 4 -15 4 -8 0 -15
-4 -15 -10z"/>
<path d="M3128 1233 c7 -3 16 -2 19 1 4 3 -2 6 -13 5 -11 0 -14 -3 -6 -6z"/>
<path d="M3175 1228 c-8 -22 1 -53 16 -53 8 0 15 13 17 33 2 24 -1 32 -13 32
-8 0 -18 -6 -20 -12z m25 -13 c0 -8 -4 -15 -10 -15 -5 0 -10 7 -10 15 0 8 5
15 10 15 6 0 10 -7 10 -15z"/>
<path d="M3370 1230 c0 -5 7 -7 15 -4 8 4 15 8 15 10 0 2 -7 4 -15 4 -8 0 -15
-4 -15 -10z"/>
<path d="M2920 1218 c0 -9 5 -20 10 -23 13 -8 13 5 0 25 -8 13 -10 13 -10 -2z"/>
<path d="M3250 1218 c0 -9 5 -20 10 -23 13 -8 13 5 0 25 -8 13 -10 13 -10 -2z"/>
<path d="M3139 1211 c11 -7 10 -10 -5 -14 -16 -4 -16 -5 4 -6 13 -1 22 5 22
14 0 8 -8 15 -17 15 -15 0 -15 -2 -4 -9z"/>
<path d="M2640 1200 c-13 -9 -13 -10 0 -10 13 0 13 -1 0 -10 -13 -8 -12 -10 3
-10 10 0 17 8 17 20 0 23 0 23 -20 10z"/>
<path d="M3070 1200 c0 -6 7 -10 15 -10 8 0 15 2 15 4 0 2 -7 6 -15 10 -8 3
-15 1 -15 -4z"/>
<path d="M2878 1193 c7 -3 16 -2 19 1 4 3 -2 6 -13 5 -11 0 -14 -3 -6 -6z"/>
<path d="M2733 1115 c0 -22 2 -30 4 -17 2 12 2 30 0 40 -3 9 -5 -1 -4 -23z"/>
<path d="M2753 1115 c0 -22 2 -30 4 -17 2 12 2 30 0 40 -3 9 -5 -1 -4 -23z"/>
<path d="M2902 1120 c0 -19 2 -27 5 -17 2 9 2 25 0 35 -3 9 -5 1 -5 -18z"/>
<path d="M3205 1129 c-17 -17 -17 -19 -2 -14 12 5 17 2 17 -10 0 -11 -5 -15
-16 -11 -8 3 -12 2 -9 -4 15 -24 35 -9 35 25 0 40 1 40 -25 14z"/>
<path d="M3351 1113 c1 -22 3 -30 6 -18 3 11 9 22 13 25 4 3 2 11 -6 18 -12
11 -14 7 -13 -25z"/>
<path d="M3480 1115 c0 -25 4 -35 15 -35 26 0 29 30 6 51 l-21 20 0 -36z m30
-10 c0 -8 -4 -15 -10 -15 -5 0 -10 7 -10 15 0 8 5 15 10 15 6 0 10 -7 10 -15z"/>
<path d="M3320 1112 c0 -18 4 -32 8 -32 9 0 8 47 -1 57 -4 3 -7 -8 -7 -25z"/>
<path d="M2555 1120 c-3 -6 2 -13 11 -17 16 -6 16 -7 -2 -14 -16 -6 -16 -8 -2
-8 23 -1 33 18 13 25 -13 6 -14 8 -3 15 9 6 9 9 1 9 -6 0 -15 -5 -18 -10z"/>
<path d="M2601 1102 c2 -25 2 -25 6 -4 3 14 10 22 17 19 7 -3 18 -2 25 2 7 5
0 8 -18 9 -27 1 -31 -2 -30 -26z"/>
<path d="M2688 1123 c7 -3 16 -2 19 1 4 3 -2 6 -13 5 -11 0 -14 -3 -6 -6z"/>
<path d="M2800 1120 c0 -5 7 -7 15 -4 8 4 15 8 15 10 0 2 -7 4 -15 4 -8 0 -15
-4 -15 -10z"/>
<path d="M2854 1105 c1 -11 9 -21 19 -23 11 -2 17 3 16 15 0 10 -3 13 -6 6 -7
-19 -21 -16 -26 5 -3 13 -4 12 -3 -3z"/>
<path d="M2974 1116 c-8 -20 3 -36 24 -35 14 0 13 2 -3 9 -18 8 -18 9 -2 9 10
1 17 6 15 13 -7 19 -27 21 -34 4z"/>
<path d="M3052 1105 c0 -16 2 -22 5 -12 2 9 2 23 0 30 -3 6 -5 -1 -5 -18z"/>
<path d="M3071 1103 c1 -23 2 -24 6 -5 2 12 8 22 13 22 5 0 11 -10 13 -22 5
-20 5 -20 4 2 -1 15 -9 26 -19 28 -14 3 -18 -3 -17 -25z"/>
<path d="M3172 1105 c0 -16 2 -22 5 -12 2 9 2 23 0 30 -3 6 -5 -1 -5 -18z"/>
<path d="M3258 1123 c7 -3 16 -2 19 1 4 3 -2 6 -13 5 -11 0 -14 -3 -6 -6z"/>
<path d="M3404 1116 c-8 -20 3 -36 24 -35 14 0 13 2 -3 9 -18 8 -18 9 -2 9 10
1 17 6 15 13 -7 19 -27 21 -34 4z"/>
<path d="M3550 1120 c13 -9 13 -10 0 -10 -13 0 -13 -2 -1 -9 11 -7 10 -10 -5
-14 -16 -4 -16 -5 4 -6 17 -1 22 4 22 24 0 17 -5 25 -17 25 -15 0 -16 -2 -3
-10z"/>
<path d="M3590 1126 c0 -2 7 -7 16 -10 8 -3 12 -2 9 4 -6 10 -25 14 -25 6z"/>
<path d="M2689 1101 c9 -6 10 -10 2 -14 -8 -4 -8 -5 1 -3 20 4 21 26 1 26 -14
0 -15 -2 -4 -9z"/>
<path d="M2939 1101 c9 -6 10 -10 2 -14 -8 -4 -8 -5 1 -3 20 4 21 26 1 26 -14
0 -15 -2 -4 -9z"/>
<path d="M3139 1101 c9 -6 10 -10 2 -14 -8 -4 -8 -5 1 -3 20 4 21 26 1 26 -14
0 -15 -2 -4 -9z"/>
<path d="M3248 1103 c6 -2 18 -2 25 0 6 3 1 5 -13 5 -14 0 -19 -2 -12 -5z"/>
<path d="M2800 1090 c0 -6 7 -10 15 -10 8 0 15 2 15 4 0 2 -7 6 -15 10 -8 3
-15 1 -15 -4z"/>
<path d="M3600 1090 c-13 -9 -13 -10 0 -10 13 0 13 -1 0 -10 -13 -8 -12 -10 3
-10 10 0 17 8 17 20 0 23 0 23 -20 10z"/>
<path d="M3258 1083 c7 -3 16 -2 19 1 4 3 -2 6 -13 5 -11 0 -14 -3 -6 -6z"/>
<path d="M2566 921 c-15 -17 -15 -20 -1 -34 20 -21 19 -38 -2 -30 -16 6 -16 4
1 -16 l20 -22 20 20 c19 19 19 21 3 39 -19 20 -23 37 -7 27 15 -9 12 11 -3 24
-11 8 -18 6 -31 -8z"/>
<path d="M2642 918 c-29 -29 -3 -98 33 -84 22 8 19 47 -5 53 -11 3 -20 10 -20
15 0 5 10 6 21 3 15 -5 20 -3 17 6 -6 19 -31 22 -46 7z m38 -58 c0 -5 -7 -10
-15 -10 -8 0 -15 5 -15 10 0 6 7 10 15 10 8 0 15 -4 15 -10z"/>
<path d="M2722 918 c-30 -30 -3 -98 33 -84 12 4 15 17 13 48 -3 45 -22 60 -46
36z m33 -38 c0 -13 -6 -25 -12 -27 -9 -3 -13 6 -13 27 0 21 4 30 13 28 6 -3
12 -15 12 -28z"/>
<path d="M3410 902 c0 -5 7 -9 15 -9 8 0 15 4 15 9 0 4 -7 8 -15 8 -8 0 -15
-4 -15 -8z"/>
<path d="M3528 888 c-15 -15 -15 -18 -3 -18 8 0 15 -6 15 -12 0 -9 3 -10 8 -2
4 6 14 14 22 17 12 4 12 6 -2 6 -9 1 -18 7 -20 14 -2 9 -8 8 -20 -5z"/>
<path d="M3293 873 c9 -2 25 -2 35 0 9 3 1 5 -18 5 -19 0 -27 -2 -17 -5z"/>
<path d="M3410 850 c0 -6 7 -10 15 -10 8 0 15 2 15 4 0 2 -7 6 -15 10 -8 3
-15 1 -15 -4z"/>
<path d="M2801 588 c-19 -52 -22 -68 -12 -68 6 0 11 5 11 10 0 14 38 12 43 -2
2 -7 7 -10 11 -7 9 8 -18 82 -32 87 -7 2 -16 -7 -21 -20z m29 -28 c0 -5 -4
-10 -10 -10 -5 0 -10 5 -10 10 0 6 5 10 10 10 6 0 10 -4 10 -10z"/>
<path d="M2910 601 c0 -5 -9 -11 -21 -14 -16 -4 -20 -12 -17 -34 2 -22 9 -29
31 -31 26 -3 27 -2 27 42 0 25 -4 46 -10 46 -5 0 -10 -4 -10 -9z m0 -46 c0
-14 -4 -25 -10 -25 -5 0 -10 11 -10 25 0 14 5 25 10 25 6 0 10 -11 10 -25z"/>
<path d="M2980 601 c0 -5 -9 -11 -21 -14 -16 -4 -20 -12 -17 -34 2 -22 9 -29
31 -31 26 -3 27 -2 27 42 0 25 -4 46 -10 46 -5 0 -10 -4 -10 -9z m0 -46 c0
-14 -4 -25 -10 -25 -5 0 -10 11 -10 25 0 14 5 25 10 25 6 0 10 -11 10 -25z"/>
<path d="M3054 600 c-13 -13 -5 -80 10 -80 7 0 10 16 9 41 -1 45 -5 53 -19 39z"/>
<path d="M3202 598 c-27 -27 -7 -78 29 -78 10 0 21 4 24 10 4 6 -4 9 -17 7
-19 -2 -23 3 -23 28 0 25 4 30 23 28 13 -2 21 1 17 7 -8 14 -38 13 -53 -2z"/>
<path d="M3395 601 c-3 -6 -17 -11 -31 -11 -21 0 -24 -5 -24 -35 0 -19 5 -35
10 -35 6 0 10 14 10 30 0 20 5 30 15 30 10 0 15 -10 15 -30 0 -17 5 -30 13
-30 8 0 11 14 10 41 -1 43 -7 57 -18 40z"/>
<path d="M3090 569 c-16 -28 7 -54 39 -44 17 5 21 13 19 33 -4 35 -42 43 -58
11z m40 -20 c0 -20 -15 -26 -25 -9 -9 15 3 43 15 35 5 -3 10 -15 10 -26z"/>
<path d="M3283 577 c3 -8 1 -19 -5 -25 -15 -15 0 -32 28 -32 22 0 25 4 22 33
-2 25 -8 33 -27 35 -18 3 -22 0 -18 -11z m23 -44 c-10 -10 -19 5 -10 18 6 11
8 11 12 0 2 -7 1 -15 -2 -18z"/>
<path d="M5461 3078 l-21 -7 0 -1370 c0 -1345 0 -1370 19 -1381 27 -14 1225
-14 1252 0 19 11 19 36 19 1373 0 841 -4 1368 -10 1377 -8 13 -89 15 -624 16
-338 0 -623 -3 -635 -8z m194 -49 c-16 -5 -63 -12 -102 -15 -62 -6 -73 -4 -73
9 0 21 7 23 112 18 73 -3 86 -5 63 -12z m174 17 c-11 -9 -100 -15 -94 -6 3 6
27 10 52 10 26 0 44 -2 42 -4z m579 -2 c16 -5 22 -14 22 -34 0 -16 -6 -30 -12
-33 -8 -3 -6 -8 7 -13 11 -4 26 -16 33 -26 16 -22 77 -25 85 -4 6 16 69 17 84
3 4 -5 -1 -5 -12 -2 -19 6 -19 6 1 -12 29 -26 37 -84 12 -91 -10 -2 -18 -8
-18 -12 0 -5 -8 -7 -17 -5 -10 1 -62 6 -115 10 -116 9 -138 23 -119 76 19 55
16 57 -51 50 -5 -1 -8 -17 -8 -36 0 -40 -20 -55 -74 -55 -34 0 -36 -2 -36 -32
0 -39 13 -63 29 -53 7 4 18 1 26 -5 8 -7 15 -8 15 -3 0 5 7 10 15 10 9 0 15
-9 15 -21 0 -18 -2 -19 -11 -6 -8 11 -12 12 -16 3 -7 -18 -23 -16 -23 3 0 8
-4 12 -10 9 -17 -11 -11 -24 15 -31 14 -3 25 -11 25 -18 1 -6 9 -2 18 10 22
26 62 16 62 -15 0 -15 9 -22 35 -27 29 -5 35 -10 35 -33 0 -14 4 -31 8 -37 8
-14 161 -46 175 -37 5 3 7 0 5 -8 -6 -17 -32 -16 -116 3 -53 12 -69 21 -98 54
-33 38 -33 38 11 -42 25 -45 45 -89 45 -97 0 -9 -17 -26 -37 -38 -41 -25 -54
-39 -47 -50 2 -4 -11 -9 -29 -12 -38 -7 -283 -23 -312 -20 -11 1 -71 -5 -133
-13 -168 -21 -214 -19 -245 10 -15 14 -42 30 -62 37 -19 7 -35 16 -35 19 0 4
9 33 20 66 13 37 19 76 17 104 -3 33 1 50 14 64 10 10 16 23 12 29 -3 5 -10 2
-15 -7 -11 -20 -29 -21 -22 -1 4 9 0 15 -9 15 -8 0 -17 -7 -21 -15 -3 -9 -18
-15 -38 -15 -25 0 -29 3 -18 10 10 6 11 10 3 10 -20 0 -18 306 1 313 7 3 50 9
95 12 l81 8 0 -39 c0 -22 4 -54 10 -73 5 -18 12 -57 14 -85 4 -45 24 -115 25
-93 1 4 -8 69 -20 143 -19 121 -20 158 -4 142 3 -2 15 -70 27 -150 l21 -146
33 14 c21 9 35 10 39 4 4 -6 10 -8 15 -5 5 3 12 0 16 -6 4 -8 3 -9 -4 -5 -7 4
-12 3 -12 -3 0 -13 58 -71 73 -72 14 -2 12 -2 63 6 22 3 51 7 65 8 34 3 52 23
67 74 12 40 13 42 47 36 39 -6 39 -6 25 55 -13 55 -30 215 -23 225 5 8 228 9
261 1z m257 -2 l25 -2 -2 -717 -3 -718 -23 -3 c-13 -2 -31 0 -40 4 -9 4 -27 6
-39 5 -13 -1 -23 2 -23 8 0 6 -10 4 -26 -3 -22 -12 -64 -11 -64 1 0 3 10 14
23 24 22 20 22 20 -18 2 -48 -21 -142 -23 -297 -4 -99 11 -114 11 -190 -7
-160 -39 -226 -38 -223 1 1 18 10 23 51 30 27 4 69 13 94 19 25 7 71 14 103
16 47 3 57 1 57 -12 0 -9 5 -16 11 -16 5 0 8 4 4 9 -9 16 26 20 115 15 182
-11 238 -9 260 11 11 10 20 26 20 37 0 21 -11 23 -27 7 -9 -9 -11 -7 -6 9 3
12 11 18 18 16 9 -4 12 1 10 13 -2 10 -4 26 -4 35 -1 12 -6 16 -18 11 -12 -3
-10 0 5 12 17 12 26 14 36 6 10 -8 17 -7 26 4 11 13 10 14 -4 9 -9 -4 -16 -1
-16 6 0 7 -8 19 -17 26 -17 12 -16 13 7 23 21 8 22 10 5 11 -17 0 -17 2 -5 10
8 5 11 10 5 10 -5 0 -3 5 5 11 12 9 11 10 -7 6 -23 -5 -23 -5 -23 120 l0 125
41 38 41 38 -25 55 c-14 31 -28 85 -32 123 l-7 69 69 -1 c38 0 76 -4 84 -8 7
-4 5 0 -6 9 -11 9 -19 21 -17 27 5 17 -18 37 -39 33 -12 -2 -23 2 -26 11 -4
11 -8 12 -13 4 -8 -13 -60 -3 -60 12 0 6 7 7 16 4 8 -3 12 -2 9 4 -7 11 1 12
33 4 12 -4 22 -11 22 -18 0 -6 11 -11 25 -11 14 0 25 6 25 13 0 7 4 11 8 8 4
-2 8 7 9 22 2 72 4 83 21 100 12 12 18 33 18 62 -1 25 3 70 8 102 l8 56 -54 7
c-54 7 -54 7 -50 39 4 35 0 34 87 28z m-132 -16 c4 -10 1 -13 -9 -9 -7 3 -14
9 -14 14 0 14 17 10 23 -5z m-711 -13 c13 -12 18 -13 18 -3 0 9 6 8 20 -5 23
-21 19 -35 -5 -15 -11 9 -15 9 -15 1 0 -7 -4 -9 -10 -6 -5 3 -19 1 -30 -5 -16
-9 -18 -8 -14 5 3 8 10 12 15 9 5 -3 9 -1 9 5 0 19 -19 21 -29 4 -9 -16 -10
-16 -11 -1 0 14 10 24 29 27 3 1 13 -6 23 -16z m106 -4 c-2 -6 -7 -10 -12 -9
-15 3 -25 -24 -14 -37 7 -9 7 -13 0 -13 -6 0 -13 -8 -15 -17 -3 -10 -4 -2 -2
17 2 19 3 43 4 53 1 10 9 17 22 17 11 0 19 -5 17 -11z m94 -5 c17 -11 7 -22
-14 -17 -19 5 -17 0 12 -25 34 -30 35 -31 16 -49 -10 -10 -16 -13 -13 -7 9 16
-17 36 -35 29 -17 -7 -33 21 -17 30 5 4 6 11 3 17 -4 7 -9 6 -14 -2 -5 -7 -9
-2 -12 15 -5 26 -4 27 31 20 20 -4 39 -9 43 -11z m-154 -43 c3 -8 -1 -12 -9
-9 -7 2 -15 10 -17 17 -3 8 1 12 9 9 7 -2 15 -10 17 -17z m-22 -22 c20 -22 23
-28 9 -21 -23 12 -59 52 -47 52 5 0 21 -14 38 -31z m-59 -31 c-3 -8 -6 -5 -6
6 -1 11 2 17 5 13 3 -3 4 -12 1 -19z m43 7 c0 -2 -6 -8 -13 -14 -10 -8 -14 -7
-14 2 0 8 6 14 14 14 7 0 13 -1 13 -2z m42 -47 c14 -18 23 -39 21 -46 -4 -11
-63 58 -63 73 0 15 20 1 42 -27z m-56 -74 c-3 -9 -6 -21 -6 -27 0 -7 -4 -7 -9
2 -10 16 -4 41 11 41 6 0 7 -7 4 -16z m281 -20 c0 -9 -8 -9 -29 -2 -35 13 -35
15 0 14 16 -1 29 -6 29 -12z m-27 -38 c0 -2 -7 -7 -16 -10 -8 -3 -12 -2 -9 4
6 10 25 14 25 6z m-86 -24 c3 -5 -1 -9 -9 -9 -8 0 -15 4 -15 9 0 4 4 8 9 8 6
0 12 -4 15 -8z m521 -2 c3 -5 1 -10 -4 -10 -6 0 -11 5 -11 10 0 6 2 10 4 10 3
0 8 -4 11 -10z m-27 -74 c-7 -8 -15 -12 -17 -11 -5 6 10 25 20 25 5 0 4 -6 -3
-14z m-199 -392 c28 -35 30 -135 4 -167 -15 -18 -27 -22 -70 -19 -48 3 -53 1
-53 -18 0 -12 9 -25 23 -30 22 -10 22 -10 -3 -7 -20 2 -26 8 -28 35 l-3 32 48
0 c62 1 104 29 86 58 -8 14 -8 23 -1 30 16 16 0 80 -22 92 -10 5 -52 10 -93
10 -68 0 -76 -2 -91 -25 -9 -13 -16 -33 -16 -45 0 -16 6 -20 35 -20 24 0 35 5
35 15 0 23 76 21 82 -2 10 -41 -2 -53 -50 -53 -33 0 -52 -6 -69 -22 -26 -24
-31 -57 -8 -59 8 -1 20 -2 27 -3 25 -2 19 -26 -6 -26 -22 0 -26 -5 -26 -27 0
-38 10 -50 45 -56 28 -4 28 -4 -6 -6 -42 -1 -48 10 -55 111 -4 51 -2 58 22 77
18 14 41 21 70 21 40 0 44 2 44 25 0 21 -5 25 -30 25 -20 0 -30 -5 -30 -15 0
-11 -12 -15 -45 -15 -44 0 -45 1 -45 32 0 19 9 41 22 55 19 20 31 23 104 23
77 0 84 -2 103 -26z m-269 1 c8 -9 9 -15 2 -15 -6 0 -14 5 -18 11 -9 16 -145
1 -166 -19 -18 -15 -25 -67 -10 -75 14 -10 62 6 62 19 0 8 9 14 23 13 16 -1
18 -2 5 -6 -10 -2 -18 -10 -18 -18 0 -14 -64 -30 -80 -20 -15 9 -12 68 5 92
11 16 28 23 63 26 103 8 120 7 132 -8z m245 -24 c7 -12 -12 -24 -25 -16 -11 7
-4 25 10 25 5 0 11 -4 15 -9z m-295 -73 c0 -9 -3 -19 -7 -21 -5 -3 -8 10 -9
29 0 21 3 30 8 22 4 -7 8 -21 8 -30z m60 1 c0 -5 -10 -9 -21 -9 -18 0 -19 2
-9 15 12 15 30 12 30 -6z m-134 -38 c-41 -9 -56 -36 -31 -54 18 -14 18 -15 -3
-26 -32 -17 -40 12 -17 55 15 28 24 34 49 33 l31 -1 -29 -7z m145 -15 c13 8
11 -20 -3 -34 -7 -7 -19 -12 -27 -12 -14 1 -14 2 1 10 10 6 15 19 12 32 -2 13
-2 17 2 10 3 -6 10 -10 15 -6z m-77 -11 c-4 -8 -11 -12 -16 -9 -6 4 -5 10 3
15 19 12 19 11 13 -6z m-385 -40 c42 -5 82 -19 92 -32 7 -7 12 -36 13 -63 1
-28 4 -50 7 -50 4 0 9 -15 12 -32 3 -18 9 -42 13 -52 5 -14 4 -17 -5 -11 -9 5
-8 0 2 -16 8 -13 18 -37 21 -54 30 -144 42 -130 -106 -133 -114 -2 -128 -1
-135 15 -4 10 -7 111 -5 225 l3 207 27 3 c15 2 31 2 36 -1 5 -2 16 -5 25 -6z
m379 -2 c-41 -6 -39 -43 2 -43 25 0 30 -4 29 -22 -1 -17 -2 -19 -6 -5 -3 11
-14 17 -34 17 -26 0 -29 4 -29 30 0 27 3 30 33 29 30 -2 30 -2 5 -6z m290 -10
c-9 -2 -19 -12 -21 -21 -3 -12 -5 -10 -6 6 -1 17 4 22 22 21 15 -1 17 -3 5 -6z
m62 -20 c0 -10 3 -35 6 -55 6 -35 5 -38 -17 -37 -19 1 -20 2 -5 6 14 4 17 11
12 35 -3 17 -6 36 -6 44 0 7 -8 15 -17 17 -14 4 -12 5 5 6 15 1 22 -5 22 -16z
m-30 -14 c0 8 2 12 5 9 3 -3 2 -13 -1 -22 -5 -14 -9 -15 -15 -4 -5 7 -9 18 -9
23 0 6 5 3 10 -5 8 -12 10 -12 10 -1z m-370 -11 c0 -4 -4 -8 -9 -8 -6 0 -12 4
-15 8 -3 5 1 9 9 9 8 0 15 -4 15 -9z m144 -3 c-7 -18 -20 -19 -30 -3 -4 6 -3
8 4 4 6 -3 13 -2 17 4 9 15 15 12 9 -5z m169 -52 c-7 -2 -21 -2 -30 0 -10 3
-4 5 12 5 17 0 24 -2 18 -5z m-332 -24 c-14 -5 -28 -6 -33 -1 -4 4 7 9 25 9
30 2 31 2 8 -8z m382 -74 l167 -8 0 -48 c0 -27 -4 -49 -9 -49 -5 0 -15 -2 -23
-5 -10 -4 -12 5 -10 40 4 44 15 58 25 33 3 -8 6 -6 6 5 1 13 -7 17 -34 17 -27
0 -35 -4 -35 -17 0 -15 2 -16 10 -3 7 11 10 4 10 -27 0 -40 -2 -43 -27 -43
-21 0 -24 3 -15 12 18 18 15 65 -4 72 -9 4 -26 4 -37 0 -16 -5 -18 -12 -13
-44 5 -33 3 -38 -12 -35 -9 2 -38 4 -64 4 -36 1 -48 5 -48 16 0 8 5 15 10 15
6 0 10 5 10 10 0 6 -7 10 -15 10 -8 0 -15 7 -15 15 0 18 12 19 28 3 9 -9 12
-8 12 5 0 13 -10 16 -56 16 l-56 -1 5 -39 c5 -43 -3 -49 -62 -49 -21 0 -58 -6
-82 -13 -43 -13 -44 -13 -45 10 -1 12 2 20 7 17 5 -3 9 0 9 5 0 6 -4 11 -9 11
-17 0 -20 40 -3 49 19 9 146 26 175 23 9 -1 17 4 17 11 0 9 2 9 8 0 4 -7 67
-14 175 -18z m-147 -35 c5 0 12 -13 15 -29 6 -28 4 -31 -17 -31 -22 0 -24 4
-24 43 0 27 3 37 9 29 4 -8 12 -13 17 -12z m-252 -21 c12 -61 12 -61 -67 -75
-37 -6 -38 -6 -26 14 16 26 -1 71 -28 73 -21 2 49 15 88 18 22 1 28 -4 33 -30z
m460 15 c10 -25 7 -33 -14 -44 -18 -10 -20 -8 -20 25 0 37 22 50 34 19z m-566
-45 c3 -19 1 -22 -9 -12 -17 17 -21 45 -6 40 7 -2 14 -14 15 -28z m952 -784
c0 -493 -3 -625 -12 -625 -395 -4 -1219 -1 -1227 4 -8 5 -11 183 -11 627 l0
619 625 0 625 0 0 -625z"/>
<path d="M6553 2873 c-16 -6 -17 -33 -2 -33 5 0 7 6 4 13 -4 6 0 4 7 -5 13
-15 15 -15 25 2 17 26 0 37 -34 23z"/>
<path d="M6296 2711 c-3 -5 3 -11 13 -14 14 -3 18 -1 14 9 -6 16 -19 18 -27 5z"/>
<path d="M6198 2567 c-21 -8 -22 -9 -5 -21 22 -17 22 -25 -2 -19 -43 11 -72
-27 -55 -71 8 -22 23 -20 51 6 19 17 23 19 17 5 -3 -9 -4 -17 0 -17 3 0 10 15
15 33 l9 32 2 -45 c2 -27 5 -36 7 -21 3 13 13 26 24 28 24 7 25 33 2 33 -17 1
-17 1 0 11 10 6 25 8 33 5 8 -3 14 -1 14 5 0 7 -16 10 -40 7 -44 -4 -50 12 -9
23 13 4 22 8 19 9 -14 7 -61 5 -82 -3z m-17 -86 c-13 -23 -26 -27 -36 -11 -3
6 -2 10 3 10 5 0 12 10 16 22 4 17 8 20 17 11 8 -8 8 -16 0 -32z"/>
<path d="M5690 1729 c0 -5 5 -7 10 -4 6 3 10 8 10 11 0 2 -4 4 -10 4 -5 0 -10
-5 -10 -11z"/>
<path d="M5993 1814 c-10 -27 14 -64 42 -64 24 0 26 3 23 37 -2 20 -8 38 -15
40 -9 3 -9 -3 0 -26 12 -34 6 -47 -19 -37 -12 4 -15 15 -12 36 5 31 -8 41 -19
14z"/>
<path d="M5885 1800 c3 -5 10 -10 16 -10 5 0 9 5 9 10 0 6 -7 10 -16 10 -8 0
-12 -4 -9 -10z"/>
<path d="M5793 1793 c-7 -2 -13 -9 -13 -15 0 -6 6 -6 15 2 12 10 15 9 15 -8 0
-27 10 -52 20 -52 5 0 6 16 3 37 -4 26 -3 34 5 29 7 -4 12 -2 12 3 0 11 -35
14 -57 4z"/>
<path d="M5540 1410 l0 -51 38 3 c37 3 37 3 37 48 0 45 0 45 -37 48 l-38 3 0
-51z m60 20 c0 -5 -9 -10 -20 -10 -11 0 -20 5 -20 10 0 6 9 10 20 10 11 0 20
-4 20 -10z m10 -40 c0 -5 -11 -10 -25 -10 -14 0 -25 5 -25 10 0 6 11 10 25 10
14 0 25 -4 25 -10z"/>
<path d="M5810 1410 l0 -51 38 3 c37 3 37 3 37 48 0 45 0 45 -37 48 l-38 3 0
-51z m60 20 c0 -5 -9 -10 -20 -10 -11 0 -20 5 -20 10 0 6 9 10 20 10 11 0 20
-4 20 -10z m0 -40 c0 -5 -9 -10 -20 -10 -11 0 -20 5 -20 10 0 6 9 10 20 10 11
0 20 -4 20 -10z"/>
<path d="M6120 1450 c0 -5 7 -10 15 -10 11 0 15 -11 15 -40 0 -22 5 -40 10
-40 6 0 10 18 10 40 0 22 5 40 10 40 6 0 10 5 10 10 0 6 -16 10 -35 10 -19 0
-35 -4 -35 -10z"/>
<path d="M5648 1400 c-2 -22 0 -40 4 -40 5 0 8 18 8 40 0 22 -2 40 -4 40 -2 0
-6 -18 -8 -40z"/>
<path d="M5684 1414 c-7 -28 12 -58 33 -50 7 3 13 1 13 -5 0 -7 -10 -9 -25 -5
-19 5 -23 3 -19 -9 8 -20 50 -19 58 1 3 9 6 33 6 53 0 35 -2 38 -30 39 -24 0
-31 -4 -36 -24z m46 -14 c0 -11 -7 -20 -15 -20 -8 0 -15 9 -15 20 0 11 7 20
15 20 8 0 15 -9 15 -20z"/>
<path d="M5920 1425 c-26 -31 13 -82 44 -56 19 16 21 42 4 59 -16 16 -33 15
-48 -3z m40 -25 c0 -21 -24 -28 -35 -10 -8 14 3 30 21 30 8 0 14 -9 14 -20z"/>
<path d="M6005 1399 c11 -31 12 -45 4 -55 -9 -11 -8 -14 0 -14 11 0 30 35 45
88 4 12 3 22 -2 22 -6 0 -13 -12 -17 -27 l-7 -28 -10 28 c-5 15 -14 27 -18 27
-5 0 -3 -19 5 -41z"/>
<path d="M6200 1425 c-26 -31 13 -82 44 -56 19 16 21 42 4 59 -16 16 -33 15
-48 -3z m40 -25 c0 -21 -24 -28 -35 -10 -8 14 3 30 21 30 8 0 14 -9 14 -20z"/>
<path d="M6280 1384 c0 -30 5 -54 10 -54 6 0 10 9 10 19 0 11 6 18 16 17 9 0
21 7 28 17 15 24 -3 51 -38 54 -25 2 -26 0 -26 -53z m50 16 c0 -11 -7 -20 -15
-20 -8 0 -15 9 -15 20 0 11 7 20 15 20 8 0 15 -9 15 -20z"/>
<path d="M5553 1284 c-4 -12 3 -25 23 -42 l29 -24 -28 6 c-21 5 -28 3 -25 -6
7 -19 43 -21 58 -3 10 12 10 18 0 30 -7 8 -19 15 -26 15 -8 0 -14 5 -14 11 0
6 9 8 21 4 15 -5 20 -3 17 6 -7 21 -47 23 -55 3z"/>
<path d="M5642 1250 c0 -39 2 -47 7 -26 9 41 31 46 31 7 0 -17 5 -31 11 -31 6
0 9 16 7 38 -3 31 -6 37 -25 35 -13 -2 -23 4 -26 15 -3 9 -5 -8 -5 -38z"/>
<path d="M5825 1291 c-3 -6 -19 -11 -36 -11 -27 0 -29 -2 -29 -40 0 -22 5 -40
10 -40 6 0 10 13 10 29 0 16 6 31 14 34 19 8 26 -1 26 -35 0 -17 5 -28 13 -28
10 0 13 13 12 45 -2 48 -9 63 -20 46z"/>
<path d="M5720 1240 c0 -22 5 -40 10 -40 6 0 10 18 10 40 0 22 -4 40 -10 40
-5 0 -10 -18 -10 -40z"/>
<path d="M5810 1086 c0 -2 9 -6 20 -9 11 -3 18 -1 14 4 -5 9 -34 13 -34 5z"/>
<path d="M5906 1067 c-16 -12 -16 -13 2 -13 10 0 19 6 19 13 0 7 -1 13 -2 13
-1 0 -9 -6 -19 -13z"/>
<path d="M6020 1052 c0 -18 4 -32 8 -32 9 0 8 47 -1 57 -4 3 -7 -8 -7 -25z"/>
<path d="M6330 1052 c0 -18 4 -32 8 -32 9 0 8 47 -1 57 -4 3 -7 -8 -7 -25z"/>
<path d="M5605 1061 c14 -7 15 -10 5 -10 -13 -1 -13 -3 -1 -10 11 -7 10 -10
-5 -14 -16 -4 -15 -5 4 -6 19 -1 23 3 20 21 -2 14 -11 24 -23 25 l-20 3 20 -9z"/>
<path d="M5644 1055 c-3 -8 -4 -20 -2 -27 3 -7 7 -1 10 15 6 29 1 36 -8 12z"/>
<path d="M5680 1066 c0 -2 7 -7 16 -10 8 -3 12 -2 9 4 -6 10 -25 14 -25 6z"/>
<path d="M5738 1063 c7 -3 16 -2 19 1 4 3 -2 6 -13 5 -11 0 -14 -3 -6 -6z"/>
<path d="M5817 1059 c7 -7 15 -10 18 -7 3 3 -2 9 -12 12 -14 6 -15 5 -6 -5z"/>
<path d="M5960 1061 c13 -9 12 -11 -3 -11 -24 0 -16 -24 9 -27 18 -3 18 -2 -1
6 -18 9 -18 10 -2 10 21 1 18 23 -4 29 -11 3 -11 2 1 -7z"/>
<path d="M6058 1063 c7 -3 16 -2 19 1 4 3 -2 6 -13 5 -11 0 -14 -3 -6 -6z"/>
<path d="M6100 1035 l0 -36 21 20 c23 21 20 51 -6 51 -11 0 -15 -10 -15 -35z
m30 10 c0 -8 -4 -15 -10 -15 -5 0 -10 7 -10 15 0 8 5 15 10 15 6 0 10 -7 10
-15z"/>
<path d="M6188 1063 c7 -3 16 -2 19 1 4 3 -2 6 -13 5 -11 0 -14 -3 -6 -6z"/>
<path d="M6235 1060 c-3 -6 1 -7 9 -4 18 7 21 14 7 14 -6 0 -13 -4 -16 -10z"/>
<path d="M6300 1059 c0 -5 5 -7 10 -4 6 3 10 8 10 11 0 2 -4 4 -10 4 -5 0 -10
-5 -10 -11z"/>
<path d="M5738 1043 c6 -2 18 -2 25 0 6 3 1 5 -13 5 -14 0 -19 -2 -12 -5z"/>
<path d="M6188 1043 c7 -3 16 -2 19 1 4 3 -2 6 -13 5 -11 0 -14 -3 -6 -6z"/>
<path d="M5690 1030 c-13 -9 -13 -10 0 -10 13 0 13 -1 0 -10 -13 -8 -12 -10 3
-10 10 0 17 8 17 20 0 23 0 23 -20 10z"/>
<path d="M5910 1030 c-9 -6 -10 -10 -3 -10 6 0 15 5 18 10 8 12 4 12 -15 0z"/>
<path d="M5548 1023 c6 -2 18 -2 25 0 6 3 1 5 -13 5 -14 0 -19 -2 -12 -5z"/>
<path d="M5738 1023 c7 -3 16 -2 19 1 4 3 -2 6 -13 5 -11 0 -14 -3 -6 -6z"/>
<path d="M5818 1023 c6 -2 18 -2 25 0 6 3 1 5 -13 5 -14 0 -19 -2 -12 -5z"/>
<path d="M6058 1023 c7 -3 16 -2 19 1 4 3 -2 6 -13 5 -11 0 -14 -3 -6 -6z"/>
<path d="M6188 1023 c7 -3 16 -2 19 1 4 3 -2 6 -13 5 -11 0 -14 -3 -6 -6z"/>
<path d="M5544 855 c-7 -18 12 -45 32 -45 8 0 14 -5 14 -11 0 -7 -10 -9 -26
-5 -19 5 -25 3 -22 -6 3 -7 16 -13 29 -13 32 0 40 40 10 50 -12 3 -21 11 -21
16 0 6 9 8 20 4 15 -5 18 -3 14 9 -8 20 -43 21 -50 1z"/>
<path d="M5638 856 c-22 -16 -23 -27 -4 -20 11 4 16 -4 19 -33 3 -32 4 -30 5
15 1 28 1 52 0 52 -2 0 -11 -7 -20 -14z"/>
<path d="M5707 863 c-14 -13 -7 -84 8 -89 22 -9 45 14 45 45 0 39 -32 65 -53
44z m33 -43 c0 -16 -5 -30 -10 -30 -14 0 -24 26 -16 45 10 26 26 16 26 -15z"/>
<path d="M5787 863 c-14 -13 -7 -84 8 -89 22 -9 45 14 45 45 0 39 -32 65 -53
44z m33 -43 c0 -31 -16 -41 -26 -15 -8 19 2 45 16 45 5 0 10 -13 10 -30z"/>
<path d="M6394 836 c-9 -23 0 -51 16 -51 10 0 15 10 15 29 0 32 -21 47 -31 22z
m26 -21 c0 -14 -4 -25 -10 -25 -5 0 -10 11 -10 25 0 14 5 25 10 25 6 0 10 -11
10 -25z"/>
<path d="M6521 820 c0 -29 1 -32 10 -17 7 11 7 23 0 35 -9 14 -10 11 -10 -18z"/>
<path d="M5778 515 c-15 -45 -12 -55 10 -33 10 10 17 10 32 0 29 -18 29 -16
11 33 -9 25 -21 45 -27 45 -7 0 -18 -20 -26 -45z m36 0 c3 -8 1 -15 -4 -15 -6
0 -10 7 -10 15 0 8 2 15 4 15 2 0 6 -7 10 -15z"/>
<path d="M5890 550 c0 -5 -7 -10 -15 -10 -16 0 -31 -43 -20 -59 3 -6 17 -11
31 -11 22 0 24 4 24 45 0 25 -4 45 -10 45 -5 0 -10 -4 -10 -10z m0 -45 c0 -14
-4 -25 -10 -25 -11 0 -14 33 -3 43 11 11 13 8 13 -18z"/>
<path d="M5971 553 c-1 -7 -9 -13 -20 -13 -22 0 -35 -38 -19 -57 30 -37 63 2
47 57 -4 14 -7 19 -8 13z m-8 -61 c-5 -12 -7 -12 -15 2 -11 20 1 44 12 25 5
-6 6 -19 3 -27z"/>
<path d="M6035 549 c-2 -8 -4 -27 -2 -44 2 -28 6 -30 44 -32 50 -3 70 15 53
47 -17 31 -54 23 -58 -12 -5 -41 -23 -34 -20 7 2 36 -8 58 -17 34z m79 -28 c8
-12 -3 -41 -15 -41 -5 0 -9 11 -9 25 0 25 14 34 24 16z"/>
<path d="M6179 539 c-16 -31 3 -69 35 -69 14 0 28 5 31 10 4 7 -2 9 -18 5 -19
-5 -27 -2 -31 13 -11 33 3 54 31 47 16 -4 22 -2 18 5 -11 18 -54 11 -66 -11z"/>
<path d="M6385 551 c-3 -6 -17 -11 -31 -11 -21 0 -24 -4 -24 -37 0 -20 3 -33
8 -29 7 8 8 13 11 41 2 30 31 16 31 -15 0 -17 5 -30 13 -30 8 0 11 14 10 41
-1 43 -7 57 -18 40z"/>
<path d="M6264 528 c-5 -8 -1 -9 12 -5 18 7 18 6 2 -7 -28 -21 -23 -46 10 -46
29 0 31 4 23 63 -2 11 -39 8 -47 -5z m29 -33 c-3 -9 -8 -14 -10 -11 -3 3 -2 9
2 15 9 16 15 13 8 -4z"/>
<path d="M3950 3061 c-7 -13 -10 -456 -10 -1363 0 -1200 2 -1346 16 -1366 l15
-22 619 0 c549 0 620 2 634 16 14 14 16 152 16 1373 0 1042 -3 1360 -12 1369
-9 9 -165 12 -640 12 -610 0 -628 -1 -638 -19z m1268 -1359 l2 -1352 -22 -9
c-17 -5 -1171 -8 -1220 -2 -5 1 -8 613 -8 1361 l0 1360 623 -2 622 -3 3 -1353z"/>
<path d="M4595 2969 c-16 -5 -71 -11 -122 -14 l-92 -3 -84 -86 c-46 -47 -83
-86 -83 -86 1 0 25 9 54 19 28 11 52 17 52 15 0 -10 -136 -64 -150 -59 -12 5
-12 3 -3 -6 9 -9 19 -9 45 2 18 7 38 14 43 14 29 2 68 33 81 63 12 30 16 33
30 21 15 -12 14 -15 -5 -30 -12 -10 -21 -21 -21 -26 0 -4 -11 -25 -25 -46
l-26 -37 43 1 c48 0 105 7 388 44 34 4 40 3 23 -4 -13 -6 -64 -15 -115 -21
-51 -5 -124 -14 -163 -20 -38 -5 -97 -9 -131 -10 -60 0 -60 0 -83 -41 -15 -26
-29 -39 -39 -36 -10 2 -16 9 -14 16 2 9 -8 12 -29 9 -22 -2 -34 2 -36 12 -4
12 -3 12 5 1 5 -7 12 -9 15 -4 3 4 -1 16 -8 26 -12 17 -14 17 -35 -5 l-21 -23
68 -32 c83 -39 77 -42 -12 -7 -64 26 -66 26 -80 8 -22 -30 -50 -83 -45 -86 7
-5 113 -49 130 -55 10 -2 21 5 29 19 6 13 21 24 32 24 22 0 24 -7 7 -26 -11
-12 -10 -12 4 -1 10 7 25 11 33 7 9 -3 27 1 40 10 18 12 28 13 44 5 26 -15 38
-14 23 1 -22 22 -13 26 63 30 41 2 75 0 75 -4 0 -4 9 -12 21 -18 18 -10 20 -9
17 7 -2 10 -11 17 -19 15 -8 -2 -11 0 -7 4 5 4 18 9 30 10 102 12 242 35 247
40 3 4 -12 4 -34 1 -167 -26 -366 -46 -450 -45 -95 1 -97 1 -40 9 33 4 67 6
76 3 23 -6 320 29 512 61 15 2 27 0 27 -5 0 -6 -17 -10 -37 -10 -36 -1 -37 -2
-19 -15 11 -8 29 -15 40 -15 16 0 18 2 7 9 -11 7 -11 9 0 13 8 3 21 2 29 -2
31 -15 79 -28 84 -22 3 3 -2 11 -12 19 -15 13 -15 13 6 3 19 -10 30 -7 68 19
l46 30 -45 48 -45 48 -47 -34 c-25 -18 -49 -31 -51 -28 -3 3 15 19 41 37 26
18 44 34 41 37 -3 3 -12 1 -19 -5 -8 -7 -18 -8 -22 -4 -5 4 -5 1 -1 -5 7 -12
-5 -18 -27 -14 -5 1 -6 -3 -3 -8 3 -5 -2 -12 -12 -16 -11 -4 -23 2 -37 19 -16
20 -31 26 -60 27 -22 1 -32 3 -22 6 14 4 10 10 -23 34 -23 16 -43 36 -47 44
-3 8 -9 12 -14 9 -5 -3 -9 2 -9 10 0 19 16 20 100 2 36 -8 67 -12 69 -10 6 6
-102 54 -121 54 -9 0 -34 16 -55 35 -41 38 -43 38 -88 24z m-22 -76 c-18 -2
-48 -2 -65 0 -18 2 -4 4 32 4 36 0 50 -2 33 -4z m-26 -39 c-3 -3 -12 -4 -19
-1 -8 3 -5 6 6 6 11 1 17 -2 13 -5z m-50 -10 c-3 -3 -12 -4 -19 -1 -8 3 -5 6
6 6 11 1 17 -2 13 -5z m149 -52 c-17 -16 -18 -16 -5 5 7 12 15 20 18 17 3 -2
-3 -12 -13 -22z m67 -2 c6 -24 0 -30 -35 -30 -28 0 -28 0 -13 30 16 32 40 32
48 0z m-319 6 c-3 -9 -13 -12 -27 -8 -21 6 -21 6 3 13 14 4 26 7 27 8 1 1 0
-5 -3 -13z m205 -30 c9 -11 2 -14 -36 -19 -27 -4 -59 -10 -73 -14 -24 -6 -25
-6 -6 12 15 15 35 22 97 34 4 0 12 -5 18 -13z m-179 -16 c10 -18 8 -20 -30
-20 -42 0 -52 12 -22 29 26 16 40 13 52 -9z"/>
<path d="M4725 2860 c3 -5 11 -10 16 -10 6 0 7 5 4 10 -3 6 -11 10 -16 10 -6
0 -7 -4 -4 -10z"/>
<path d="M4783 2841 c1 -12 5 -17 10 -12 5 5 28 7 50 5 42 -3 42 -3 7 5 -19 5
-43 12 -52 16 -13 5 -17 2 -15 -14z"/>
<path d="M4210 2640 c0 -5 5 -10 10 -10 6 0 10 5 10 10 0 6 -4 10 -10 10 -5 0
-10 -4 -10 -10z"/>
<path d="M5084 2631 c3 -5 -1 -12 -10 -15 -10 -4 -13 -2 -8 6 4 6 -4 3 -18 -8
-22 -16 -37 -65 -19 -64 14 1 40 28 33 35 -4 5 -1 5 6 1 15 -9 42 10 42 29 0
7 -7 16 -16 19 -8 3 -13 2 -10 -3z"/>
<path d="M4590 2555 c-14 -16 -10 -18 14 -9 9 3 16 10 16 15 0 14 -16 11 -30
-6z"/>
<path d="M4880 2536 c13 -16 12 -20 -5 -33 -20 -15 -20 -15 0 -10 11 3 48 9
83 12 47 5 62 11 62 23 0 12 -3 13 -12 4 -18 -18 -85 -15 -116 5 -26 17 -26
17 -12 -1z"/>
<path d="M4010 2502 c0 -15 15 -28 55 -47 31 -14 61 -23 68 -19 6 4 9 4 5 -1
-12 -13 11 -34 30 -28 10 3 13 2 6 -4 -9 -7 -10 -24 -6 -90 2 -21 5 -21 100
-18 l97 4 -97 -11 -98 -10 0 -67 0 -68 33 3 c30 3 30 3 4 -4 l-27 -7 -4 -107
c-2 -60 0 -110 5 -114 5 -3 9 2 9 10 0 8 8 20 18 25 9 6 13 11 7 11 -20 1 21
20 43 20 25 0 30 -18 7 -26 -8 -4 -15 -12 -15 -19 0 -7 -12 -16 -27 -20 -19
-5 -23 -9 -13 -13 8 -3 18 -10 22 -16 5 -8 8 -7 8 2 0 7 12 17 26 22 14 6 22
14 19 20 -3 5 -1 10 5 10 6 0 14 10 19 21 l8 22 20 -22 c12 -12 36 -30 54 -39
19 -9 34 -24 34 -32 0 -12 -19 -15 -112 -15 -61 0 -109 -3 -107 -7 2 -3 -2 -9
-8 -11 -13 -5 139 0 237 8 31 2 42 0 30 -4 -11 -5 -76 -11 -143 -15 -144 -8
-155 -11 -142 -34 6 -10 14 -29 20 -45 8 -22 14 -26 32 -23 13 3 79 10 148 16
69 6 142 14 163 18 l37 7 -25 27 -25 28 25 6 c14 3 25 12 25 20 0 7 12 21 26
31 14 10 38 28 53 40 l29 23 6 -23 c11 -44 8 -51 -16 -31 -12 10 -18 14 -15 7
4 -6 1 -14 -5 -17 -10 -5 -10 -7 0 -12 9 -4 7 -12 -10 -29 -33 -33 -62 -85
-48 -85 15 0 110 96 110 110 0 6 13 4 30 -5 16 -8 31 -15 34 -15 8 0 2 32 -8
49 -7 10 -4 12 13 6 15 -4 21 -2 21 9 0 18 -47 52 -58 42 -3 -4 0 -11 8 -16 8
-5 12 -12 8 -15 -8 -9 -48 26 -48 42 0 7 4 13 8 13 5 0 19 10 31 21 21 19 27
20 62 10 39 -12 59 -9 59 10 0 5 -16 9 -36 9 -24 0 -34 4 -31 13 6 18 58 9 78
-14 18 -21 49 -25 67 -7 9 9 16 7 32 -7 l20 -18 -22 -15 c-13 -8 -50 -41 -83
-73 -33 -31 -107 -88 -164 -125 -58 -37 -99 -70 -93 -72 14 -4 44 12 110 60
28 21 52 36 52 32 0 -4 9 1 20 11 11 10 20 15 20 11 0 -5 16 12 36 36 47 57
95 97 117 98 11 0 15 5 11 11 -4 7 0 9 12 6 11 -3 35 3 54 13 19 11 29 19 22
20 -10 0 -10 5 -2 20 10 19 7 20 -47 22 l-58 2 54 3 54 4 -7 67 c-4 36 -9 68
-11 70 -2 2 -39 0 -83 -3 -67 -6 -81 -11 -85 -26 -6 -24 -68 -26 -87 -4 -7 8
-16 15 -20 15 -13 0 -100 -72 -95 -80 2 -3 -1 -7 -8 -7 -7 0 -51 -29 -100 -64
-141 -103 -149 -109 -159 -109 -20 0 -1 20 60 62 89 61 281 212 281 221 2 16
-21 4 -80 -43 -34 -27 -68 -50 -76 -50 -7 0 -13 -5 -13 -10 0 -11 -196 -160
-211 -160 -21 0 -6 17 44 50 41 27 150 111 307 238 3 2 -10 16 -27 31 -18 15
-33 33 -33 39 0 7 -7 12 -15 12 -8 0 -15 4 -15 9 0 4 71 13 158 20 230 17 225
16 218 53 -3 17 -6 40 -6 52 0 44 -12 49 -86 38 -115 -18 -251 -24 -234 -11
12 9 10 10 -10 5 -14 -3 -32 -6 -40 -6 -10 0 -11 -3 -3 -8 6 -4 -67 -7 -163
-7 -130 0 -175 3 -179 13 -2 6 -10 12 -17 12 -9 0 -9 -3 0 -12 20 -20 14 -24
-59 -37 -68 -13 -84 -11 -84 11 0 12 -77 54 -117 64 -24 5 -28 3 -28 -14z
m355 -62 c-3 -5 -23 -9 -43 -9 l-37 1 30 8 c44 11 57 11 50 0z m201 -46 c-4
-9 0 -22 8 -28 16 -13 48 -105 40 -117 -15 -25 -33 -3 -49 59 -10 37 -25 75
-33 85 -14 16 -13 17 13 17 21 0 26 -4 21 -16z m-116 -80 c-17 -15 -29 -33
-26 -40 3 -8 0 -11 -9 -8 -21 8 -41 -6 -24 -17 10 -6 3 -9 -20 -9 l-33 0 68
68 c54 53 70 64 72 50 2 -11 -9 -29 -28 -44z m-138 -45 c-19 -7 -22 -14 -18
-41 4 -30 1 -35 -33 -50 -21 -10 -47 -18 -59 -18 -19 0 -22 5 -22 44 0 25 6
48 13 53 12 7 82 20 122 21 17 1 17 0 -3 -9z m168 2 c0 -5 -7 -12 -16 -15 -14
-5 -15 -4 -4 9 14 17 20 19 20 6z m-58 -93 c79 -13 88 -17 66 -36 -16 -12
-108 2 -150 24 -53 28 -33 30 84 12z m-147 -138 c3 -5 -1 -10 -9 -10 -9 0 -16
5 -16 10 0 6 4 10 9 10 6 0 13 -4 16 -10z m785 -25 c0 -8 -4 -15 -8 -15 -13 0
-32 23 -32 37 0 11 5 11 20 3 11 -6 20 -17 20 -25z m-745 -15 c-11 -5 -47 -8
-80 -8 l-60 1 55 7 c30 4 66 7 80 8 23 1 23 0 5 -8z"/>
<path d="M4255 2250 c-3 -5 -2 -10 4 -10 5 0 13 5 16 10 3 6 2 10 -4 10 -5 0
-13 -4 -16 -10z"/>
<path d="M4555 2500 c3 -5 11 -10 16 -10 6 0 7 5 4 10 -3 6 -11 10 -16 10 -6
0 -7 -4 -4 -10z"/>
<path d="M4798 2493 c6 -2 18 -2 25 0 6 3 1 5 -13 5 -14 0 -19 -2 -12 -5z"/>
<path d="M4940 2349 c-88 -10 -110 -17 -59 -18 60 -2 159 11 159 20 0 5 -6 8
-12 8 -7 -1 -47 -5 -88 -10z"/>
<path d="M4713 2323 c9 -2 23 -2 30 0 6 3 -1 5 -18 5 -16 0 -22 -2 -12 -5z"/>
<path d="M4780 2320 c0 -5 12 -10 26 -10 14 0 23 4 19 10 -3 6 -15 10 -26 10
-10 0 -19 -4 -19 -10z"/>
<path d="M5018 2323 c7 -3 16 -2 19 1 4 3 -2 6 -13 5 -11 0 -14 -3 -6 -6z"/>
<path d="M4840 2289 c0 -5 5 -7 10 -4 6 3 10 8 10 11 0 2 -4 4 -10 4 -5 0 -10
-5 -10 -11z"/>
<path d="M4762 2267 c-7 -8 -9 -17 -5 -20 11 -12 79 -7 98 7 17 12 17 13 -9
20 -17 4 -34 2 -43 -5 -11 -10 -16 -10 -22 0 -6 9 -10 9 -19 -2z"/>
<path d="M4915 2220 c-12 -6 13 -7 65 -3 47 3 87 7 89 9 9 8 -135 2 -154 -6z"/>
<path d="M5095 1930 c7 -24 -2 -25 -29 -5 -22 17 -36 19 -36 7 0 -5 12 -14 26
-20 27 -13 24 -32 -6 -32 -10 0 -20 -4 -22 -8 -6 -16 -117 -94 -126 -89 -10 7
-20 0 -52 -37 l-25 -29 45 28 c25 16 67 44 95 62 43 30 56 34 105 32 95 -4
116 24 59 80 -36 36 -43 38 -34 11z"/>
<path d="M4268 1883 c7 -3 16 -2 19 1 4 3 -2 6 -13 5 -11 0 -14 -3 -6 -6z"/>
<path d="M4715 1660 c-16 -7 -17 -9 -3 -9 9 -1 20 4 23 9 7 11 7 11 -20 0z"/>
<path d="M4050 1410 l0 -51 38 3 c37 3 37 3 37 48 0 45 0 45 -37 48 l-38 3 0
-51z m60 20 c0 -5 -9 -10 -20 -10 -11 0 -20 5 -20 10 0 6 9 10 20 10 11 0 20
-4 20 -10z m0 -40 c0 -5 -9 -10 -20 -10 -11 0 -20 5 -20 10 0 6 9 10 20 10 11
0 20 -4 20 -10z"/>
<path d="M4230 1411 c0 -48 1 -50 26 -48 35 3 53 30 38 55 -7 9 -19 16 -28 16
-9 -1 -16 4 -16 12 0 8 -4 14 -10 14 -5 0 -10 -22 -10 -49z m50 -11 c0 -11 -7
-20 -15 -20 -8 0 -15 9 -15 20 0 11 7 20 15 20 8 0 15 -9 15 -20z"/>
<path d="M4440 1440 c-17 -31 -4 -69 25 -76 28 -7 45 1 45 23 0 13 -3 13 -15
3 -20 -17 -45 -5 -45 20 0 26 25 36 46 19 14 -12 16 -11 13 6 -6 29 -54 33
-69 5z"/>
<path d="M4543 1410 c0 -30 2 -43 4 -27 2 15 2 39 0 55 -2 15 -4 2 -4 -28z"/>
<path d="M4662 1448 c-15 -19 0 -82 21 -86 9 -2 17 1 17 7 0 6 -5 11 -11 11
-7 0 -9 11 -6 28 7 36 -5 59 -21 40z"/>
<path d="M4710 1410 c0 -27 5 -50 10 -50 6 0 10 14 10 31 0 39 22 34 32 -7 5
-25 6 -23 5 11 -2 31 -6 40 -19 39 -10 -1 -18 4 -18 12 0 8 -4 14 -10 14 -5 0
-10 -22 -10 -50z"/>
<path d="M4155 1431 c-3 -7 3 -11 17 -12 l23 0 -22 -11 c-13 -6 -23 -19 -23
-29 0 -14 7 -18 30 -16 29 2 31 4 28 37 -2 27 -8 36 -25 38 -11 2 -24 -2 -28
-7z m35 -41 c0 -5 -7 -10 -16 -10 -8 0 -12 5 -9 10 3 6 10 10 16 10 5 0 9 -4
9 -10z"/>
<path d="M4315 1418 c16 -55 17 -70 4 -80 -11 -7 -10 -8 5 -6 13 2 25 20 37
56 10 28 14 52 9 52 -5 0 -12 -11 -16 -25 -7 -28 -24 -24 -24 6 0 10 -5 19
-11 19 -7 0 -9 -8 -4 -22z"/>
<path d="M4580 1421 c-15 -29 4 -63 33 -59 18 2 22 10 22 38 0 28 -4 36 -22
38 -14 2 -26 -4 -33 -17z m45 -21 c0 -8 -8 -16 -17 -18 -13 -2 -18 3 -18 18 0
15 5 20 18 18 9 -2 17 -10 17 -18z"/>
<path d="M4058 1253 c6 -2 18 -2 25 0 6 3 1 5 -13 5 -14 0 -19 -2 -12 -5z"/>
<path d="M4210 1225 c0 -34 20 -49 35 -25 3 6 -1 7 -9 4 -11 -4 -16 0 -16 11
0 11 5 15 15 11 20 -7 19 -4 -5 17 -19 16 -20 16 -20 -18z"/>
<path d="M5078 1253 c7 -3 16 -2 19 1 4 3 -2 6 -13 5 -11 0 -14 -3 -6 -6z"/>
<path d="M4570 1222 c0 -18 4 -32 8 -32 9 0 8 47 -1 57 -4 3 -7 -8 -7 -25z"/>
<path d="M4620 1227 c0 -14 4 -28 8 -31 9 -5 8 41 -1 51 -4 3 -7 -5 -7 -20z"/>
<path d="M4106 1232 c-2 -4 4 -8 14 -8 10 0 16 4 14 8 -3 4 -9 8 -14 8 -5 0
-11 -4 -14 -8z"/>
<path d="M4278 1233 c7 -3 16 -2 19 1 4 3 -2 6 -13 5 -11 0 -14 -3 -6 -6z"/>
<path d="M4320 1230 c0 -5 7 -7 15 -4 8 4 15 8 15 10 0 2 -7 4 -15 4 -8 0 -15
-4 -15 -10z"/>
<path d="M4372 1215 c0 -16 2 -22 5 -12 2 9 2 23 0 30 -3 6 -5 -1 -5 -18z"/>
<path d="M4397 1234 c-13 -13 -7 -24 14 -24 11 0 19 5 17 12 -5 14 -22 21 -31
12z"/>
<path d="M4445 1230 c-3 -6 2 -13 11 -17 16 -6 16 -7 -2 -14 -16 -6 -16 -8 -2
-8 23 -1 33 18 13 25 -13 6 -14 8 -3 15 9 6 9 9 1 9 -6 0 -15 -5 -18 -10z"/>
<path d="M4528 1233 c7 -3 16 -2 19 1 4 3 -2 6 -13 5 -11 0 -14 -3 -6 -6z"/>
<path d="M4650 1230 c0 -5 7 -7 15 -4 8 4 15 8 15 10 0 2 -7 4 -15 4 -8 0 -15
-4 -15 -10z"/>
<path d="M4720 1231 c13 -9 12 -11 -3 -11 -24 0 -16 -24 9 -27 18 -3 18 -2 -1
6 -18 9 -18 10 -2 10 21 1 18 23 -4 29 -11 3 -11 2 1 -7z"/>
<path d="M4795 1231 c14 -7 15 -10 5 -10 -13 -1 -13 -3 -1 -10 11 -7 10 -10
-5 -14 -16 -4 -15 -5 4 -6 19 -1 23 3 20 21 -2 14 -11 24 -23 25 l-20 3 20 -9z"/>
<path d="M4835 1228 c-8 -22 1 -53 16 -53 8 0 15 13 17 33 2 24 -1 32 -13 32
-8 0 -18 -6 -20 -12z m25 -13 c0 -8 -4 -15 -10 -15 -5 0 -10 7 -10 15 0 8 5
15 10 15 6 0 10 -7 10 -15z"/>
<path d="M4898 1233 c7 -3 16 -2 19 1 4 3 -2 6 -13 5 -11 0 -14 -3 -6 -6z"/>
<path d="M4966 1232 c-2 -4 4 -8 14 -8 10 0 16 4 14 8 -3 4 -9 8 -14 8 -5 0
-11 -4 -14 -8z"/>
<path d="M5070 1230 c0 -5 7 -7 15 -4 8 4 15 8 15 10 0 2 -7 4 -15 4 -8 0 -15
-4 -15 -10z"/>
<path d="M4058 1223 c7 -3 16 -2 19 1 4 3 -2 6 -13 5 -11 0 -14 -3 -6 -6z"/>
<path d="M4265 1211 c-3 -5 -1 -12 5 -16 12 -7 30 2 30 16 0 12 -27 12 -35 0z"/>
<path d="M4528 1213 c7 -3 16 -2 19 1 4 3 -2 6 -13 5 -11 0 -14 -3 -6 -6z"/>
<path d="M4888 1213 c6 -2 18 -2 25 0 6 3 1 5 -13 5 -14 0 -19 -2 -12 -5z"/>
<path d="M4110 1196 c7 -7 13 -7 20 0 6 6 3 10 -10 10 -13 0 -16 -4 -10 -10z"/>
<path d="M4320 1200 c0 -6 7 -10 15 -10 8 0 15 2 15 4 0 2 -7 6 -15 10 -8 3
-15 1 -15 -4z"/>
<path d="M4970 1196 c7 -7 13 -7 20 0 6 6 3 10 -10 10 -13 0 -16 -4 -10 -10z"/>
<path d="M4408 1193 c7 -3 16 -2 19 1 4 3 -2 6 -13 5 -11 0 -14 -3 -6 -6z"/>
<path d="M4898 1193 c7 -3 16 -2 19 1 4 3 -2 6 -13 5 -11 0 -14 -3 -6 -6z"/>
<path d="M5078 1193 c7 -3 16 -2 19 1 4 3 -2 6 -13 5 -11 0 -14 -3 -6 -6z"/>
<path d="M4365 1138 c-8 -22 1 -53 16 -53 9 0 14 11 14 29 0 30 -21 48 -30 24z
m25 -13 c0 -8 -4 -15 -10 -15 -5 0 -10 7 -10 15 0 8 5 15 10 15 6 0 10 -7 10
-15z"/>
<path d="M4094 1116 c-8 -20 3 -36 24 -35 14 0 13 2 -3 9 -18 8 -18 9 -2 9 10
1 17 6 15 13 -7 19 -27 21 -34 4z"/>
<path d="M4158 1123 c7 -3 16 -2 19 1 4 3 -2 6 -13 5 -11 0 -14 -3 -6 -6z"/>
<path d="M4200 1119 c0 -5 5 -7 10 -4 6 3 10 8 10 11 0 2 -4 4 -10 4 -5 0 -10
-5 -10 -11z"/>
<path d="M4285 1120 c-3 -6 1 -7 9 -4 11 4 16 0 16 -11 0 -12 -5 -15 -17 -10
-15 5 -16 4 -5 -6 16 -17 37 3 29 25 -7 18 -23 21 -32 6z"/>
<path d="M4479 1122 c11 -8 10 -11 -5 -15 -16 -4 -15 -5 4 -6 25 -1 26 20 1
27 -12 3 -12 2 0 -6z"/>
<path d="M4528 1122 c11 -7 11 -10 -2 -15 -23 -9 -20 -27 5 -27 15 0 20 5 17
22 -2 12 -10 23 -18 25 -12 4 -12 3 -2 -5z"/>
<path d="M4147 1104 c-9 -10 2 -24 19 -24 8 0 14 7 14 15 0 15 -21 21 -33 9z"/>
<path d="M4423 1093 c-3 -10 -8 -22 -10 -28 -3 -5 3 -1 11 9 16 20 21 36 11
36 -3 0 -8 -8 -12 -17z"/>
<path d="M4609 1101 c9 -6 10 -10 2 -14 -8 -4 -8 -5 1 -3 20 4 21 26 1 26 -14
0 -15 -2 -4 -9z"/>
<path d="M4055 1090 c3 -5 8 -10 11 -10 2 0 4 5 4 10 0 6 -5 10 -11 10 -5 0
-7 -4 -4 -10z"/>
<path d="M4478 1083 c7 -3 16 -2 19 1 4 3 -2 6 -13 5 -11 0 -14 -3 -6 -6z"/>
<path d="M4057 923 c-14 -13 -6 -42 13 -48 26 -8 26 -29 -1 -22 -13 3 -19 1
-16 -6 6 -19 39 -14 51 7 8 14 8 20 0 23 -6 2 -20 11 -30 19 -18 14 -17 15 10
9 26 -5 28 -4 17 9 -14 17 -33 21 -44 9z"/>
<path d="M4142 918 c-15 -15 -16 -32 -2 -23 6 4 10 -8 10 -29 0 -20 5 -36 10
-36 6 0 10 23 10 50 0 51 -6 60 -28 38z"/>
<path d="M4213 915 c-3 -9 -3 -19 1 -22 3 -4 6 -1 6 5 0 7 7 12 15 12 19 0 19
-14 -1 -30 -8 -8 -20 -22 -25 -32 -9 -16 -6 -18 26 -18 19 0 35 5 35 10 0 6
-9 10 -21 10 l-20 0 20 26 c16 21 18 30 10 40 -15 19 -38 18 -46 -1z"/>
<path d="M4292 918 c-30 -30 -3 -98 33 -84 12 4 15 17 13 48 -3 45 -22 60 -46
36z m33 -38 c0 -13 -6 -25 -12 -27 -9 -3 -13 6 -13 27 0 21 4 30 13 28 6 -3
12 -15 12 -28z"/>
<path d="M4905 900 c-4 -6 -4 -14 -1 -17 3 -4 6 -1 6 5 0 7 5 12 10 12 6 0 10
-11 10 -25 0 -25 -14 -34 -23 -15 -3 6 -4 5 -3 -2 5 -27 31 -13 31 16 0 30
-18 46 -30 26z"/>
<path d="M5031 898 c0 -9 -9 -19 -18 -21 -16 -4 -16 -5 -1 -6 9 0 19 -9 21
-18 4 -16 5 -16 6 -1 0 9 9 19 19 21 15 4 15 5 0 6 -9 0 -19 9 -21 19 -4 15
-5 15 -6 0z"/>
<path d="M4788 873 c12 -2 30 -2 40 0 9 3 -1 5 -23 4 -22 0 -30 -2 -17 -4z"/>
<path d="M4294 593 c-3 -10 -10 -29 -15 -42 -5 -13 -7 -26 -3 -30 4 -3 9 0 11
7 3 6 13 12 23 12 10 0 20 -6 23 -12 2 -7 7 -10 11 -7 4 4 1 25 -6 48 -13 43
-35 54 -44 24z m26 -33 c0 -5 -4 -10 -10 -10 -5 0 -10 5 -10 10 0 6 5 10 10
10 6 0 10 -4 10 -10z"/>
<path d="M4400 601 c0 -5 -9 -11 -21 -14 -16 -4 -20 -12 -17 -34 2 -22 9 -29
31 -31 26 -3 27 -2 27 42 0 25 -4 46 -10 46 -5 0 -10 -4 -10 -9z m0 -46 c0
-14 -4 -25 -10 -25 -5 0 -10 11 -10 25 0 14 5 25 10 25 6 0 10 -11 10 -25z"/>
<path d="M4475 600 c3 -5 -3 -10 -14 -10 -22 0 -35 -28 -25 -54 3 -9 17 -16
30 -16 22 0 24 4 24 45 0 25 -5 45 -11 45 -5 0 -7 -4 -4 -10z m-5 -47 c0 -20
-3 -24 -11 -16 -7 7 -9 19 -6 27 10 24 17 19 17 -11z"/>
<path d="M4544 600 c-6 -6 -8 -26 -6 -45 4 -34 5 -34 51 -32 44 2 46 3 46 32
0 25 -4 30 -25 30 -20 0 -26 -6 -28 -27 -5 -41 -23 -34 -20 7 2 38 -3 50 -18
35z m76 -45 c0 -14 -4 -25 -10 -25 -5 0 -10 11 -10 25 0 14 5 25 10 25 6 0 10
-11 10 -25z"/>
<path d="M4690 594 c-31 -36 30 -98 63 -65 7 7 1 10 -19 8 -26 -2 -29 1 -29
28 0 27 3 30 28 28 15 -1 25 2 22 8 -10 14 -51 11 -65 -7z"/>
<path d="M4886 601 c-4 -6 -16 -11 -26 -11 -21 0 -28 -15 -22 -47 6 -32 18
-29 18 4 -1 36 22 42 26 6 2 -19 10 -29 23 -31 15 -2 17 -1 6 6 -8 6 -12 20
-9 35 6 30 -5 56 -16 38z"/>
<path d="M4774 579 c-5 -8 -2 -11 7 -7 10 4 15 -2 17 -19 1 -14 -2 -22 -8 -18
-6 4 -8 11 -5 16 4 5 1 9 -4 9 -6 0 -11 -9 -11 -20 0 -15 7 -20 26 -20 23 0
25 3 22 32 -3 34 -29 50 -44 27z"/>
</g>
</svg>
